<?xml version="1.0" standalone="no"?><!DOCTYPE svg PUBLIC "-//W3C//DTD SVG 1.1//EN" "http://www.w3.org/Graphics/SVG/1.1/DTD/svg11.dtd"><svg t="1560937539491" class="icon" style="" viewBox="0 0 1024 1024" version="1.1" xmlns="http://www.w3.org/2000/svg" p-id="517" xmlns:xlink="http://www.w3.org/1999/xlink" width="200" height="200"><defs><style type="text/css"></style></defs><path d="M903.2 848 903.2 848l-144 160 0 0c-8.8 9.6-21.6 16-35.2 16-14.4 0-26.4-6.4-35.2-16l0 0-144-160 0 0c-8-8.8-12.8-20-12.8-32 0-26.4 21.6-48 48-48 14.4 0 26.4 6.4 35.2 16l0 0 60 67.2L675.2 624l0 0L675.2 416l0 0L675.2 172.8l0 0L675.2 48c0-26.4 21.6-48 48-48 26.4 0 48 21.6 48 48l0 304 0 112c0 0 0 0 0 0l0 96 0 291.2L832 784l0 0c8.8-9.6 21.6-16 35.2-16 26.4 0 48 21.6 48 48C916 828 911.2 839.2 903.2 848zM452 256c-14.4 0-26.4-6.4-35.2-16l0 0-60-67.2L356.8 464c0 0 0 0 0 0l0 96 0 112 0 304c0 26.4-21.6 48-48 48-26.4 0-48-21.6-48-48l0-124.8 0 0L260.8 608l0 0L260.8 400l0 0L260.8 172.8 200 240l0 0c-8.8 9.6-21.6 16-35.2 16-26.4 0-48-21.6-48-48 0-12 4.8-23.2 12.8-32l0 0L272 16l0 0c8.8-9.6 21.6-16 35.2-16 14.4 0 26.4 6.4 35.2 16l0 0 144 160 0 0c8 8.8 12.8 20 12.8 32C500 234.4 478.4 256 452 256z" p-id="518" fill="#00CCFF"></path></svg>