<svg xmlns="http://www.w3.org/2000/svg" xmlns:xlink="http://www.w3.org/1999/xlink" viewBox="0 0 410.57 414.37"><defs><style>.cls-1,.cls-22,.cls-32,.cls-34,.cls-37,.cls-38,.cls-44,.cls-45,.cls-51,.cls-52,.cls-54,.cls-55,.cls-56,.cls-63,.cls-68{fill:none;}.cls-2{fill:#afa39e;}.cls-3{fill:#f2f1e4;}.cls-4{fill:#f9cabc;}.cls-5{fill:#141312;}.cls-6{fill:#c7bbba;}.cls-7{fill:#f59389;}.cls-8{fill:#282426;}.cls-9{fill:#efb7a4;}.cls-10{fill:#879de4;}.cls-11{fill:#9fc4af;}.cls-12{fill:#da9d9b;}.cls-13{fill:#fff;}.cls-14{fill:#eaa9a4;}.cls-15{fill:#f7dcdc;}.cls-16{fill:#ef554b;}.cls-17{fill:#ecdfd9;}.cls-18{fill:#f1eae7;}.cls-19{fill:#f6f3f1;}.cls-20{fill:#fffbfa;}.cls-21{fill:#f46763;}.cls-22{stroke:#ecdfd9;stroke-width:0.12px;}.cls-22,.cls-32,.cls-34,.cls-37,.cls-38,.cls-44,.cls-45,.cls-51,.cls-52,.cls-54,.cls-55,.cls-56,.cls-63,.cls-68{stroke-miterlimit:10;}.cls-23{fill:#9e9797;}.cls-24{fill:#abd4be;}.cls-25{fill:url(#Motivo_nuevo_6);}.cls-26{fill:#192749;}.cls-27{fill:#b2b0a5;}.cls-28{fill:#fec75d;}.cls-29{fill:#bab9b1;}.cls-30{fill:#c7c6b9;}.cls-31{fill:#f2564d;}.cls-32{stroke:#b5414d;stroke-width:0.23px;}.cls-33{fill:#f9f9ef;}.cls-34{stroke:#706f6f;stroke-width:0.08px;}.cls-35{fill:#e7dedc;}.cls-36{fill:#89a8c5;}.cls-37,.cls-52{stroke:#282426;}.cls-37{stroke-width:0.24px;}.cls-38,.cls-44,.cls-54,.cls-68{stroke:#afa39e;}.cls-38{stroke-width:0.06px;}.cls-39{fill:#893f0e;}.cls-40{fill:#f4ad9d;}.cls-41{fill:#332f2d;}.cls-42{fill:#e8baaf;}.cls-43{fill:#a0c7c6;}.cls-44{stroke-width:0.06px;}.cls-45{stroke:#86a8a6;stroke-width:0.22px;}.cls-46{clip-path:url(#clip-path);}.cls-47{fill:#ea948b;}.cls-48{fill:#f7ebe8;}.cls-49{fill:#bab3b3;}.cls-50{fill:#deb39a;}.cls-51,.cls-55,.cls-56,.cls-63{stroke:#1e120d;}.cls-51{stroke-width:0.32px;}.cls-52{stroke-width:0.19px;}.cls-53{fill:#cecbbe;}.cls-54{stroke-width:0.07px;}.cls-55{stroke-width:0.33px;}.cls-56{stroke-width:0.3px;}.cls-57{fill:#d7b631;}.cls-58{fill:#ff9e00;}.cls-59{fill:#ff0013;}.cls-60{fill:#2bc6eb;}.cls-61{fill:url(#Motivo_nuevo_6-3);}.cls-62{fill:#f9dee5;}.cls-63{stroke-width:0.29px;}.cls-64{fill:#fcfcfc;}.cls-65{fill:url(#Motivo_nuevo_6-5);}.cls-66{fill:#c44;}.cls-67{fill:#39408c;}.cls-68{stroke-width:0.05px;}</style><pattern id="Motivo_nuevo_6" data-name="Motivo nuevo 6" width="28.77" height="29.36" patternTransform="translate(147.56 46.17) rotate(-90.48) scale(0.46)" patternUnits="userSpaceOnUse" viewBox="0 0 28.77 29.36"><rect class="cls-1" width="28.77" height="29.36"/><path class="cls-2" d="M20.67,21.91a1.16,1.16,0,0,0-.2-.4l0-.06a.45.45,0,0,0-.26-.22A1.37,1.37,0,0,0,19.07,21a1.52,1.52,0,0,0-1,1.81,1.33,1.33,0,0,0,1.84.71,1.36,1.36,0,0,0,.67-.9A1.14,1.14,0,0,0,20.67,21.91Z"/><path class="cls-2" d="M24.44,25.89a1.16,1.16,0,0,0-.2-.4l0-.06a.45.45,0,0,0-.26-.22A1.37,1.37,0,0,0,22.84,25a1.52,1.52,0,0,0-.95,1.81,1.33,1.33,0,0,0,1.84.71,1.31,1.31,0,0,0,.66-.9A1.14,1.14,0,0,0,24.44,25.89Z"/><path class="cls-2" d="M5.37,26.59a1.16,1.16,0,0,0-.2-.4l0-.06a.45.45,0,0,0-.26-.22,1.33,1.33,0,0,0-1.11-.2,1.51,1.51,0,0,0-1,1.81,1.31,1.31,0,0,0,2.51-.19A1.25,1.25,0,0,0,5.37,26.59Z"/><path class="cls-2" d="M25.4,17.18a1.16,1.16,0,0,0-.2-.4.21.21,0,0,0,0-.06.44.44,0,0,0-.25-.22,1.39,1.39,0,0,0-1.12-.21,1.52,1.52,0,0,0-.95,1.81,1.33,1.33,0,0,0,1.84.71,1.36,1.36,0,0,0,.67-.9A1.21,1.21,0,0,0,25.4,17.18Z"/><path class="cls-2" d="M28.71,22.22a1.16,1.16,0,0,0-.2-.4.21.21,0,0,1,0-.06.54.54,0,0,0-.26-.22,1.32,1.32,0,0,0-1.11-.2,1.52,1.52,0,0,0-1,1.81,1.34,1.34,0,0,0,1.84.71,1.38,1.38,0,0,0,.67-.9A1.24,1.24,0,0,0,28.71,22.22Z"/><path class="cls-2" d="M21.11,10.17a1.16,1.16,0,0,0-.2-.4l0-.06a.49.49,0,0,0-.26-.22,1.32,1.32,0,0,0-1.11-.2,1.52,1.52,0,0,0-1,1.81,1.33,1.33,0,0,0,1.84.7,1.29,1.29,0,0,0,.66-.89A1.17,1.17,0,0,0,21.11,10.17Z"/><path class="cls-2" d="M26,3.79a1.16,1.16,0,0,0-.2-.4l0-.06a.49.49,0,0,0-.26-.22,1.32,1.32,0,0,0-1.11-.2,1.52,1.52,0,0,0-.95,1.81A1.31,1.31,0,0,0,26,4.53,1.17,1.17,0,0,0,26,3.79Z"/><path class="cls-2" d="M28.11,10.69a1.2,1.2,0,0,0-.2-.41l0-.06a.47.47,0,0,0-.26-.21,1.36,1.36,0,0,0-1.11-.21,1.52,1.52,0,0,0-1,1.81,1.33,1.33,0,0,0,1.84.71,1.31,1.31,0,0,0,.66-.9A1.14,1.14,0,0,0,28.11,10.69Z"/><path class="cls-2" d="M12.9,7a1.08,1.08,0,0,0-.2-.4l0-.06a.45.45,0,0,0-.26-.22,1.37,1.37,0,0,0-1.11-.21,1.52,1.52,0,0,0-1,1.81,1.33,1.33,0,0,0,1.84.71,1.31,1.31,0,0,0,.66-.9A1.14,1.14,0,0,0,12.9,7Z"/><path class="cls-2" d="M3.15,17.14a1.16,1.16,0,0,0-.2-.4.21.21,0,0,0,0-.06.44.44,0,0,0-.25-.22,1.39,1.39,0,0,0-1.12-.21,1.52,1.52,0,0,0-.95,1.81,1.34,1.34,0,0,0,1.84.71,1.36,1.36,0,0,0,.67-.9A1.21,1.21,0,0,0,3.15,17.14Z"/><path class="cls-2" d="M9.29,10.94a1.16,1.16,0,0,0-.2-.4l0-.06a.54.54,0,0,0-.26-.22,1.33,1.33,0,0,0-1.11-.2,1.51,1.51,0,0,0-1,1.81,1.35,1.35,0,0,0,1.84.71,1.38,1.38,0,0,0,.67-.9A1.17,1.17,0,0,0,9.29,10.94Z"/><path class="cls-2" d="M14.73,13.13a1.25,1.25,0,0,0-.2-.4.21.21,0,0,1,0-.06.47.47,0,0,0-.26-.21,1.32,1.32,0,0,0-1.11-.21,1.52,1.52,0,0,0-.95,1.81,1.34,1.34,0,0,0,1.84.71,1.38,1.38,0,0,0,.67-.9A1.24,1.24,0,0,0,14.73,13.13Z"/><path class="cls-2" d="M19.27,3.17a1.25,1.25,0,0,0-.2-.4l0-.06a.47.47,0,0,0-.26-.21,1.32,1.32,0,0,0-1.11-.21,1.52,1.52,0,0,0-1,1.81,1.34,1.34,0,0,0,1.84.71,1.38,1.38,0,0,0,.67-.9A1.17,1.17,0,0,0,19.27,3.17Z"/><path class="cls-2" d="M14.61,27.51a1.25,1.25,0,0,0-.2-.4l0-.06a.47.47,0,0,0-.26-.21A1.32,1.32,0,0,0,13,26.63a1.52,1.52,0,0,0-.95,1.81,1.3,1.3,0,0,0,2.5-.19A1.1,1.1,0,0,0,14.61,27.51Z"/><path class="cls-2" d="M9.13,20.71a1.16,1.16,0,0,0-.2-.4l0-.06A.54.54,0,0,0,8.64,20a1.33,1.33,0,0,0-1.11-.2,1.51,1.51,0,0,0-1,1.81,1.35,1.35,0,0,0,1.84.71,1.38,1.38,0,0,0,.67-.9A1.17,1.17,0,0,0,9.13,20.71Z"/><path class="cls-2" d="M4.63,4.77a1.16,1.16,0,0,0-.2-.4l0-.06a.45.45,0,0,0-.26-.22A1.37,1.37,0,0,0,3,3.88a1.52,1.52,0,0,0-1,1.81,1.33,1.33,0,0,0,1.84.71,1.36,1.36,0,0,0,.67-.9A1.21,1.21,0,0,0,4.63,4.77Z"/><path class="cls-2" d="M14.43,20.67a1.16,1.16,0,0,0-.2-.4l0-.06a.54.54,0,0,0-.26-.22,1.33,1.33,0,0,0-1.11-.2,1.5,1.5,0,0,0-.95,1.81,1.33,1.33,0,0,0,1.83.71,1.38,1.38,0,0,0,.67-.9A1.17,1.17,0,0,0,14.43,20.67Z"/></pattern><clipPath id="clip-path"><path class="cls-1" d="M364,142.54a1.81,1.81,0,1,1-1.81-1.81A1.81,1.81,0,0,1,364,142.54Z"/></clipPath><pattern id="Motivo_nuevo_6-3" data-name="Motivo nuevo 6" width="28.77" height="29.36" patternTransform="translate(138.53 30.34) rotate(-90) scale(0.46)" patternUnits="userSpaceOnUse" viewBox="0 0 28.77 29.36"><rect class="cls-1" width="28.77" height="29.36"/><path class="cls-2" d="M20.67,21.91a1.16,1.16,0,0,0-.2-.4l0-.06a.45.45,0,0,0-.26-.22A1.37,1.37,0,0,0,19.07,21a1.52,1.52,0,0,0-1,1.81,1.33,1.33,0,0,0,1.84.71,1.36,1.36,0,0,0,.67-.9A1.14,1.14,0,0,0,20.67,21.91Z"/><path class="cls-2" d="M24.44,25.89a1.16,1.16,0,0,0-.2-.4l0-.06a.45.45,0,0,0-.26-.22A1.37,1.37,0,0,0,22.84,25a1.52,1.52,0,0,0-.95,1.81,1.33,1.33,0,0,0,1.84.71,1.31,1.31,0,0,0,.66-.9A1.14,1.14,0,0,0,24.44,25.89Z"/><path class="cls-2" d="M5.37,26.59a1.16,1.16,0,0,0-.2-.4l0-.06a.45.45,0,0,0-.26-.22,1.33,1.33,0,0,0-1.11-.2,1.51,1.51,0,0,0-1,1.81,1.31,1.31,0,0,0,2.51-.19A1.25,1.25,0,0,0,5.37,26.59Z"/><path class="cls-2" d="M25.4,17.18a1.16,1.16,0,0,0-.2-.4.21.21,0,0,0,0-.06.44.44,0,0,0-.25-.22,1.39,1.39,0,0,0-1.12-.21,1.52,1.52,0,0,0-.95,1.81,1.33,1.33,0,0,0,1.84.71,1.36,1.36,0,0,0,.67-.9A1.21,1.21,0,0,0,25.4,17.18Z"/><path class="cls-2" d="M28.71,22.22a1.16,1.16,0,0,0-.2-.4.21.21,0,0,1,0-.06.54.54,0,0,0-.26-.22,1.32,1.32,0,0,0-1.11-.2,1.52,1.52,0,0,0-1,1.81,1.34,1.34,0,0,0,1.84.71,1.38,1.38,0,0,0,.67-.9A1.24,1.24,0,0,0,28.71,22.22Z"/><path class="cls-2" d="M21.11,10.17a1.16,1.16,0,0,0-.2-.4l0-.06a.49.49,0,0,0-.26-.22,1.32,1.32,0,0,0-1.11-.2,1.52,1.52,0,0,0-1,1.81,1.33,1.33,0,0,0,1.84.7,1.29,1.29,0,0,0,.66-.89A1.17,1.17,0,0,0,21.11,10.17Z"/><path class="cls-2" d="M26,3.79a1.16,1.16,0,0,0-.2-.4l0-.06a.49.49,0,0,0-.26-.22,1.32,1.32,0,0,0-1.11-.2,1.52,1.52,0,0,0-.95,1.81A1.31,1.31,0,0,0,26,4.53,1.17,1.17,0,0,0,26,3.79Z"/><path class="cls-2" d="M28.11,10.69a1.2,1.2,0,0,0-.2-.41l0-.06a.47.47,0,0,0-.26-.21,1.36,1.36,0,0,0-1.11-.21,1.52,1.52,0,0,0-1,1.81,1.33,1.33,0,0,0,1.84.71,1.31,1.31,0,0,0,.66-.9A1.14,1.14,0,0,0,28.11,10.69Z"/><path class="cls-2" d="M12.9,7a1.08,1.08,0,0,0-.2-.4l0-.06a.45.45,0,0,0-.26-.22,1.37,1.37,0,0,0-1.11-.21,1.52,1.52,0,0,0-1,1.81,1.33,1.33,0,0,0,1.84.71,1.31,1.31,0,0,0,.66-.9A1.14,1.14,0,0,0,12.9,7Z"/><path class="cls-2" d="M3.15,17.14a1.16,1.16,0,0,0-.2-.4.21.21,0,0,0,0-.06.44.44,0,0,0-.25-.22,1.39,1.39,0,0,0-1.12-.21,1.52,1.52,0,0,0-.95,1.81,1.34,1.34,0,0,0,1.84.71,1.36,1.36,0,0,0,.67-.9A1.21,1.21,0,0,0,3.15,17.14Z"/><path class="cls-2" d="M9.29,10.94a1.16,1.16,0,0,0-.2-.4l0-.06a.54.54,0,0,0-.26-.22,1.33,1.33,0,0,0-1.11-.2,1.51,1.51,0,0,0-1,1.81,1.35,1.35,0,0,0,1.84.71,1.38,1.38,0,0,0,.67-.9A1.17,1.17,0,0,0,9.29,10.94Z"/><path class="cls-2" d="M14.73,13.13a1.25,1.25,0,0,0-.2-.4.21.21,0,0,1,0-.06.47.47,0,0,0-.26-.21,1.32,1.32,0,0,0-1.11-.21,1.52,1.52,0,0,0-.95,1.81,1.34,1.34,0,0,0,1.84.71,1.38,1.38,0,0,0,.67-.9A1.24,1.24,0,0,0,14.73,13.13Z"/><path class="cls-2" d="M19.27,3.17a1.25,1.25,0,0,0-.2-.4l0-.06a.47.47,0,0,0-.26-.21,1.32,1.32,0,0,0-1.11-.21,1.52,1.52,0,0,0-1,1.81,1.34,1.34,0,0,0,1.84.71,1.38,1.38,0,0,0,.67-.9A1.17,1.17,0,0,0,19.27,3.17Z"/><path class="cls-2" d="M14.61,27.51a1.25,1.25,0,0,0-.2-.4l0-.06a.47.47,0,0,0-.26-.21A1.32,1.32,0,0,0,13,26.63a1.52,1.52,0,0,0-.95,1.81,1.3,1.3,0,0,0,2.5-.19A1.1,1.1,0,0,0,14.61,27.51Z"/><path class="cls-2" d="M9.13,20.71a1.16,1.16,0,0,0-.2-.4l0-.06A.54.54,0,0,0,8.64,20a1.33,1.33,0,0,0-1.11-.2,1.51,1.51,0,0,0-1,1.81,1.35,1.35,0,0,0,1.84.71,1.38,1.38,0,0,0,.67-.9A1.17,1.17,0,0,0,9.13,20.71Z"/><path class="cls-2" d="M4.63,4.77a1.16,1.16,0,0,0-.2-.4l0-.06a.45.45,0,0,0-.26-.22A1.37,1.37,0,0,0,3,3.88a1.52,1.52,0,0,0-1,1.81,1.33,1.33,0,0,0,1.84.71,1.36,1.36,0,0,0,.67-.9A1.21,1.21,0,0,0,4.63,4.77Z"/><path class="cls-2" d="M14.43,20.67a1.16,1.16,0,0,0-.2-.4l0-.06a.54.54,0,0,0-.26-.22,1.33,1.33,0,0,0-1.11-.2,1.5,1.5,0,0,0-.95,1.81,1.33,1.33,0,0,0,1.83.71,1.38,1.38,0,0,0,.67-.9A1.17,1.17,0,0,0,14.43,20.67Z"/></pattern><pattern id="Motivo_nuevo_6-5" data-name="Motivo nuevo 6" width="28.77" height="29.36" patternTransform="translate(154.31 64.49) rotate(-90) scale(0.46)" patternUnits="userSpaceOnUse" viewBox="0 0 28.77 29.36"><rect class="cls-1" width="28.77" height="29.36"/><path class="cls-2" d="M20.67,21.91a1.16,1.16,0,0,0-.2-.4l0-.06a.45.45,0,0,0-.26-.22A1.37,1.37,0,0,0,19.07,21a1.52,1.52,0,0,0-1,1.81,1.33,1.33,0,0,0,1.84.71,1.36,1.36,0,0,0,.67-.9A1.14,1.14,0,0,0,20.67,21.91Z"/><path class="cls-2" d="M24.44,25.89a1.16,1.16,0,0,0-.2-.4l0-.06a.45.45,0,0,0-.26-.22A1.37,1.37,0,0,0,22.84,25a1.52,1.52,0,0,0-.95,1.81,1.33,1.33,0,0,0,1.84.71,1.31,1.31,0,0,0,.66-.9A1.14,1.14,0,0,0,24.44,25.89Z"/><path class="cls-2" d="M5.37,26.59a1.16,1.16,0,0,0-.2-.4l0-.06a.45.45,0,0,0-.26-.22,1.33,1.33,0,0,0-1.11-.2,1.51,1.51,0,0,0-1,1.81,1.31,1.31,0,0,0,2.51-.19A1.25,1.25,0,0,0,5.37,26.59Z"/><path class="cls-2" d="M25.4,17.18a1.16,1.16,0,0,0-.2-.4.21.21,0,0,0,0-.06.44.44,0,0,0-.25-.22,1.39,1.39,0,0,0-1.12-.21,1.52,1.52,0,0,0-.95,1.81,1.33,1.33,0,0,0,1.84.71,1.36,1.36,0,0,0,.67-.9A1.21,1.21,0,0,0,25.4,17.18Z"/><path class="cls-2" d="M28.71,22.22a1.16,1.16,0,0,0-.2-.4.21.21,0,0,1,0-.06.54.54,0,0,0-.26-.22,1.32,1.32,0,0,0-1.11-.2,1.52,1.52,0,0,0-1,1.81,1.34,1.34,0,0,0,1.84.71,1.38,1.38,0,0,0,.67-.9A1.24,1.24,0,0,0,28.71,22.22Z"/><path class="cls-2" d="M21.11,10.17a1.16,1.16,0,0,0-.2-.4l0-.06a.49.49,0,0,0-.26-.22,1.32,1.32,0,0,0-1.11-.2,1.52,1.52,0,0,0-1,1.81,1.33,1.33,0,0,0,1.84.7,1.29,1.29,0,0,0,.66-.89A1.17,1.17,0,0,0,21.11,10.17Z"/><path class="cls-2" d="M26,3.79a1.16,1.16,0,0,0-.2-.4l0-.06a.49.49,0,0,0-.26-.22,1.32,1.32,0,0,0-1.11-.2,1.52,1.52,0,0,0-.95,1.81A1.31,1.31,0,0,0,26,4.53,1.17,1.17,0,0,0,26,3.79Z"/><path class="cls-2" d="M28.11,10.69a1.2,1.2,0,0,0-.2-.41l0-.06a.47.47,0,0,0-.26-.21,1.36,1.36,0,0,0-1.11-.21,1.52,1.52,0,0,0-1,1.81,1.33,1.33,0,0,0,1.84.71,1.31,1.31,0,0,0,.66-.9A1.14,1.14,0,0,0,28.11,10.69Z"/><path class="cls-2" d="M12.9,7a1.08,1.08,0,0,0-.2-.4l0-.06a.45.45,0,0,0-.26-.22,1.37,1.37,0,0,0-1.11-.21,1.52,1.52,0,0,0-1,1.81,1.33,1.33,0,0,0,1.84.71,1.31,1.31,0,0,0,.66-.9A1.14,1.14,0,0,0,12.9,7Z"/><path class="cls-2" d="M3.15,17.14a1.16,1.16,0,0,0-.2-.4.21.21,0,0,0,0-.06.44.44,0,0,0-.25-.22,1.39,1.39,0,0,0-1.12-.21,1.52,1.52,0,0,0-.95,1.81,1.34,1.34,0,0,0,1.84.71,1.36,1.36,0,0,0,.67-.9A1.21,1.21,0,0,0,3.15,17.14Z"/><path class="cls-2" d="M9.29,10.94a1.16,1.16,0,0,0-.2-.4l0-.06a.54.54,0,0,0-.26-.22,1.33,1.33,0,0,0-1.11-.2,1.51,1.51,0,0,0-1,1.81,1.35,1.35,0,0,0,1.84.71,1.38,1.38,0,0,0,.67-.9A1.17,1.17,0,0,0,9.29,10.94Z"/><path class="cls-2" d="M14.73,13.13a1.25,1.25,0,0,0-.2-.4.21.21,0,0,1,0-.06.47.47,0,0,0-.26-.21,1.32,1.32,0,0,0-1.11-.21,1.52,1.52,0,0,0-.95,1.81,1.34,1.34,0,0,0,1.84.71,1.38,1.38,0,0,0,.67-.9A1.24,1.24,0,0,0,14.73,13.13Z"/><path class="cls-2" d="M19.27,3.17a1.25,1.25,0,0,0-.2-.4l0-.06a.47.47,0,0,0-.26-.21,1.32,1.32,0,0,0-1.11-.21,1.52,1.52,0,0,0-1,1.81,1.34,1.34,0,0,0,1.84.71,1.38,1.38,0,0,0,.67-.9A1.17,1.17,0,0,0,19.27,3.17Z"/><path class="cls-2" d="M14.61,27.51a1.25,1.25,0,0,0-.2-.4l0-.06a.47.47,0,0,0-.26-.21A1.32,1.32,0,0,0,13,26.63a1.52,1.52,0,0,0-.95,1.81,1.3,1.3,0,0,0,2.5-.19A1.1,1.1,0,0,0,14.61,27.51Z"/><path class="cls-2" d="M9.13,20.71a1.16,1.16,0,0,0-.2-.4l0-.06A.54.54,0,0,0,8.64,20a1.33,1.33,0,0,0-1.11-.2,1.51,1.51,0,0,0-1,1.81,1.35,1.35,0,0,0,1.84.71,1.38,1.38,0,0,0,.67-.9A1.17,1.17,0,0,0,9.13,20.71Z"/><path class="cls-2" d="M4.63,4.77a1.16,1.16,0,0,0-.2-.4l0-.06a.45.45,0,0,0-.26-.22A1.37,1.37,0,0,0,3,3.88a1.52,1.52,0,0,0-1,1.81,1.33,1.33,0,0,0,1.84.71,1.36,1.36,0,0,0,.67-.9A1.21,1.21,0,0,0,4.63,4.77Z"/><path class="cls-2" d="M14.43,20.67a1.16,1.16,0,0,0-.2-.4l0-.06a.54.54,0,0,0-.26-.22,1.33,1.33,0,0,0-1.11-.2,1.5,1.5,0,0,0-.95,1.81,1.33,1.33,0,0,0,1.83.71,1.38,1.38,0,0,0,.67-.9A1.17,1.17,0,0,0,14.43,20.67Z"/></pattern></defs><title>Asset 1</title><g id="Layer_2" data-name="Layer 2"><g id="OBJECTS"><ellipse class="cls-3" cx="52.84" cy="395.83" rx="52.84" ry="14.07"/><path class="cls-4" d="M14.75,378.82l-2.87-3.5-2.13,1.6c-.91.68-2.46.33-3.49-.86L13.77,370l5.17,6Z"/><path class="cls-5" d="M12.35,375l3.48-2.89-2.09-2.66L6.07,376h0a3,3,0,0,0,4.2.71Z"/><path class="cls-4" d="M10.81,404.87l-4.5.48L6.47,408c.08,1.13-1.07,2.24-2.63,2.44l-1-9.63,7.87-1Z"/><path class="cls-5" d="M6.33,404.8l-.5-4.5-3.38.28,1.23,10h0a3,3,0,0,0,2.9-3.11Z"/><path class="cls-6" d="M41.91,381.85a43.39,43.39,0,0,1-23.14-6.37l-4.95,3.32s7.4,8.62,18.84,10.75l-.1,1.27L9.44,399.74l1.24,6.63,34.64-9.64Z"/><path class="cls-7" d="M81.16,378.67a3.2,3.2,0,0,0-4.29,1.12l-4.35,6.64L67,375.62a19.84,19.84,0,0,0,.56-4.31l-4.86-2.22c-6.24,7.5-21.26,12.47-21.26,12.47l3.61,15.25c10.22-2.95,15.8-8.38,18.85-13.47q2.76,5.46,5.53,10.9c1.12,2.22,4.2,1.85,5.41,0q3.7-5.64,7.4-11.29A3.16,3.16,0,0,0,81.16,378.67Z"/><ellipse class="cls-8" cx="65.99" cy="356.22" rx="12.69" ry="11.94"/><path class="cls-9" d="M64.64,373.29h0a2.4,2.4,0,0,1-1.63-3l1.37-4.75L69,366.91l-1.37,4.75A2.4,2.4,0,0,1,64.64,373.29Z"/><path class="cls-4" d="M78,363.73a11.32,11.32,0,1,1-4.9-15.24A11.31,11.31,0,0,1,78,363.73Z"/><path class="cls-8" d="M74.17,347.1l-5.75-1.26-1.63.76a11.49,11.49,0,0,0-4.33-.57,9.67,9.67,0,0,0-8.9,7.39,5.87,5.87,0,0,1-3.82,4.38l-.52.16c-1.4.36-3,.15-4.13,1.2-1.93,1.82-.88,5.69-2.2,8.15-.81,1.51-2.38,2.23-3.29,3.66-1.51,2.39-.58,6,1.41,7.89s4.65,2.23,7.17,2.21a20.83,20.83,0,0,0,15.33-6.41,24.21,24.21,0,0,0,4.36-7c3.23-1.69,5.23-6.35,5.88-10.17A7.86,7.86,0,0,0,75.49,351a6.8,6.8,0,0,0,3.1,3.68C79.34,350.49,74.17,347.1,74.17,347.1Z"/><polygon class="cls-10" points="68.22 355.86 66.16 386.78 84.15 383.41 85.3 359.3 68.22 355.86"/><path class="cls-4" d="M81.19,378.5s1.12-1.65,1-2.51c-.26-1.48-2.88,3-2.88,3s.66-2.37-.3-2.3c-1.22.09-1.74,3-1.26,4.39,1,2.88,4,2.31,6.27,1a5.46,5.46,0,0,0,1.39-.94c.46-.76-3.06,0-3.06,0s2.87-1.61,3.11-2.12c.58-1.17-3.54.6-3.54.6s2.8-2.1,2.74-2.8C84.53,375.57,81.19,378.5,81.19,378.5Z"/><path class="cls-7" d="M76.63,380.15l-4.11,6.28-.39-.77c-3.46,0-3.8,0-7,0,1.6,3.16,2.74,5.43,4.34,8.58,1.12,2.22,4.2,1.85,5.41,0l7-10.66Z"/><path class="cls-4" d="M247.22,405l.1,4-2.29.16a2.36,2.36,0,0,0-1.78,2.57l8.35-.28,0-6.94Z"/><path class="cls-5" d="M247.79,408.85l3.92-.09.14,3-8.69.1h0a2.62,2.62,0,0,1,2.33-2.87Z"/><path class="cls-4" d="M232.66,403.91l0,4-2.3.08a2.36,2.36,0,0,0-1.88,2.5l8.36,0,.21-6.93Z"/><path class="cls-5" d="M233.09,407.8l3.91.06,0,3-8.69-.23h0a2.62,2.62,0,0,1,2.43-2.78Z"/><path class="cls-2" d="M228.69,369.92s.62,26.06,2.43,33.87l5.94.32,2.62-26.26h1.74l4.51,27.33H252l.44-33.43Z"/><path class="cls-4" d="M218.25,330.3s-.24-1.73.21-2.34c.77-1.06,1.08,3.49,1.08,3.49s.4-2.13,1.12-1.7c.91.55.2,3-.71,3.94-1.88,1.89-4,.28-5.26-1.63a5,5,0,0,1-.72-1.28c-.07-.78,2.37,1.21,2.37,1.21a15.08,15.08,0,0,1-1.61-2.88c0-1.15,2.53,1.85,2.53,1.85s-1.37-2.74-1-3.27C216.78,326.71,218.25,330.3,218.25,330.3Z"/><path class="cls-11" d="M221.33,333.06s5.6,12,15.54,14.48l.91,5.83s-14.7-.69-21.32-18.89Z"/><path class="cls-9" d="M249.08,348.6h0a2.79,2.79,0,0,1-1.88-3.45l1.59-5.55,5.29,1.54-1.59,5.56A2.74,2.74,0,0,1,249.08,348.6Z"/><path class="cls-4" d="M264.65,336.48c-3.12,6.51-10.57,9.08-16.64,5.73s-8.47-11.33-5.35-17.84,10.57-9.07,16.64-5.73S267.77,330,264.65,336.48Z"/><path class="cls-5" d="M269.6,322.48a4.85,4.85,0,0,0-3.27,1.11c-3.82-8.66-13.23-8-16.09-7.52a1.43,1.43,0,0,0-1.16,1.26c-.25,2.55.07,9.62,5.84,11.76a24.29,24.29,0,0,0-1.33,14.57c8.43,0,13.83-7,14-14.12a4.89,4.89,0,0,0,1.9.41c2.45.06,4.47-1.57,4.52-3.64S272.05,322.53,269.6,322.48Z"/><path class="cls-12" d="M242.89,324.1l-1.49,0a.66.66,0,0,0-.42,1.07l1,1.17Z"/><path class="cls-5" d="M247.66,325.64c-.16.37-.49.57-.75.45a.64.64,0,0,1-.17-.86c.16-.36.5-.56.75-.45A.64.64,0,0,1,247.66,325.64Z"/><path class="cls-4" d="M256.31,331a1.65,1.65,0,0,1-1.9,1.34,1.68,1.68,0,0,1-1-2.13,1.65,1.65,0,0,1,1.9-1.34A1.67,1.67,0,0,1,256.31,331Z"/><path class="cls-12" d="M254,331.24s.73-2.33,1.34-1.34c.89,1.46-.49.79-.49.79S254.59,330.51,254,331.24Z"/><path class="cls-13" d="M244.15,332.77a.92.92,0,1,1-1.83,0,.92.92,0,1,1,1.83,0Z"/><path class="cls-14" d="M249.69,329.82a1.92,1.92,0,1,1-1.91-1.94A1.92,1.92,0,0,1,249.69,329.82Z"/><path class="cls-15" d="M242.32,332.77s.77-.38.91,0c0,0,.57-.74.92,0a.91.91,0,0,1-.92.93A.86.86,0,0,1,242.32,332.77Z"/><polygon class="cls-16" points="203.8 307.5 219.05 306.89 233.44 304.31 235.32 328.49 220.89 330.88 207.57 335.89 203.8 307.5"/><polygon class="cls-17" points="218.96 307.75 221.26 330 234.21 327.84 232.59 305.51 218.96 307.75"/><path class="cls-17" d="M219,307.76s-12.73.66-14.6.62L208,334.77,221.26,330Z"/><path class="cls-18" d="M219,307.76s-10.53,1.55-13,1.58l3.2,24.92L221.26,330Z"/><path class="cls-19" d="M219,307.76s-7.56,2.69-10.48,3l2.68,22.85,10.1-3.65Z"/><polygon class="cls-18" points="218.96 307.75 232.9 306.75 234.21 327.84 221.26 330 218.96 307.75"/><path class="cls-19" d="M219,307.76a87.87,87.87,0,0,0,14.29.42l1,19.66-13,2.16Z"/><path class="cls-20" d="M219,307.76a27.69,27.69,0,0,1-7.87,4.24l2,20.65s8.22-2.29,8.14-2.65S219,307.76,219,307.76Z"/><path class="cls-20" d="M219,307.76a48.56,48.56,0,0,0,12.46,1.77l.81,18.59-11,1.88Z"/><polygon class="cls-21" points="203.8 307.5 203.47 307.46 219.12 306.44 233.13 303.92 233.44 304.31 219.05 306.89 203.8 307.5"/><polygon class="cls-21" points="207.57 335.89 207.14 335.47 203.47 307.46 203.8 307.5 207.57 335.89"/><line class="cls-22" x1="219.15" y1="307.76" x2="221.45" y2="330"/><path class="cls-23" d="M221.6,313.34c1.09-.71,1.65-.13,2.64-.23a6.4,6.4,0,0,0,.87-.35c.76-.24,1.29.16,2,.15.55,0,1.23-.47,1.9-.39s.76.42,1.4.15c.08,0,0-.15,0-.12-.8.33-1.58-.45-2.38-.4a9.35,9.35,0,0,0-1.26.52c-.34,0-.71-.21-1.11-.17-.79.07-1.45.35-2.27.36a2.74,2.74,0,0,0-1.84.37c-.07,0,0,.15.06.11Z"/><path class="cls-23" d="M230.7,315c-.5,0-2.08-.33-2.21-.31s-.23-.08-.31-.05-.21.18-.31.18a2.57,2.57,0,0,0-.28.29,1.4,1.4,0,0,1-1.83-.08c-1.91.14.9-.33-.77.09a8.81,8.81,0,0,1-1.71.35,4.32,4.32,0,0,0-1.33.19.06.06,0,1,0,0,.12,10,10,0,0,1,2.5-.1,1.57,1.57,0,0,0,.31-.18.63.63,0,0,1,.68,0c.39,0,.83.22,1.13.21.94-.05,1.19-.65,2.31-.62.57,0,1.2.05,1.79.07.08,0,.08-.12,0-.12Z"/><path class="cls-23" d="M230.56,317.3c-1.09.71-1.65.13-2.64.23a5.71,5.71,0,0,0-.87.35c-.76.23-1.29-.16-2-.15-.54,0-1.23.47-1.89.39s-.76-.42-1.41-.16c-.07,0,0,.16,0,.13.8-.33,1.58.45,2.38.39a7.73,7.73,0,0,0,1.25-.51c.34,0,.72.21,1.11.17a21.64,21.64,0,0,1,2.28-.36,2.77,2.77,0,0,0,1.83-.37c.07-.05,0-.16-.06-.11Z"/><path class="cls-23" d="M230.89,320.12c-.5,0-2.08-.33-2.21-.31s-.23-.08-.31-.05-.21.17-.3.18a1.59,1.59,0,0,0-.29.29,1.39,1.39,0,0,1-1.83-.09c-1.91.15.9-.33-.77.1a9.58,9.58,0,0,1-1.71.34,5,5,0,0,0-1.33.19c-.08,0,0,.15,0,.13a10,10,0,0,1,2.5-.1,1.57,1.57,0,0,0,.31-.18.63.63,0,0,1,.68-.05c.39,0,.84.23,1.13.21.94,0,1.19-.64,2.31-.61.57,0,1.2.05,1.79.07.08,0,.08-.12,0-.12Z"/><path class="cls-23" d="M221.66,323.94c1.08-.7,1.64-.12,2.64-.22a6.31,6.31,0,0,0,.86-.36c.76-.23,1.29.16,2,.15.55,0,1.23-.47,1.9-.39s.76.42,1.4.16c.08,0,.05-.16,0-.13-.8.33-1.58-.45-2.38-.39a8.3,8.3,0,0,0-1.25.51c-.35,0-.72-.21-1.12-.17a21,21,0,0,1-2.27.36,2.81,2.81,0,0,0-1.84.37c-.07.05,0,.16.07.11Z"/><path class="cls-23" d="M230.75,325.55c-.5,0-2.08-.32-2.21-.3s-.23-.08-.31-.06-.21.18-.3.19a1.24,1.24,0,0,0-.28.28,1.4,1.4,0,0,1-1.84-.08c-1.91.15.9-.33-.77.09a8.66,8.66,0,0,1-1.71.35,5,5,0,0,0-1.33.19c-.08,0-.05.15,0,.12a10.54,10.54,0,0,1,2.5-.1,1,1,0,0,0,.31-.18.65.65,0,0,1,.68,0c.39,0,.84.23,1.13.21.94-.05,1.19-.64,2.31-.62l1.79.08a.07.07,0,0,0,0-.13Z"/><path class="cls-23" d="M212.16,315.92c.58-.73,1.22-.31,1.87-.52.21-.06.35-.31.54-.41.47-.23,1,.08,1.44-.06.11,0,.12-.19.22-.24s.72-.46.76-.46.29.16.4.17c.41.08.59.26.94,0a.06.06,0,1,0-.09-.09c-.47.43-1.22-.35-1.78-.13-.26.11-.42.55-.72.61-.06,0-.48-.13-.6-.12-.62,0-1,.62-1.61.67s-1-.05-1.46.54c0,.06,0,.16.09.09Z"/><path class="cls-23" d="M218.84,316.58c-.53.05-1.11-.15-1.61-.07-.06,0-.14-.07-.2,0s-.16.15-.27.29-.11.35-.22.45l-.93.09a1.08,1.08,0,0,0-.34-.21c-.34.05-.13,0-.49.21l-.6.57-.38,0c-.07,0-.16,0-.24,0a1.57,1.57,0,0,0-.85.33c-.07,0,0,.15.06.11.63-.41,1.21-.08,1.79-.38.35-.18.42-.6.86-.55.23,0,.4.38.68.37.46,0,.4-.37.66-.65s.67-.13,1.15-.15.6-.15.93-.18c.08,0,.08-.13,0-.13Z"/><path class="cls-23" d="M219.06,318.93c-.58.74-1.22.31-1.87.52-.21.07-.35.32-.54.41-.47.24-1-.08-1.44.06-.11,0-.12.19-.22.24s-.72.46-.76.46-.29-.15-.4-.17c-.41-.08-.59-.26-.94.06-.06.05,0,.14.09.08.47-.42,1.22.36,1.78.13.27-.1.42-.55.72-.61.06,0,.48.13.6.12.62,0,1-.62,1.61-.67s1,.05,1.46-.54c0-.06,0-.15-.09-.09Z"/><path class="cls-23" d="M219.73,321.68c-.53.05-1.11-.16-1.61-.08-.06,0-.14-.06-.2,0s-.16.14-.27.28-.11.35-.22.45l-.93.1a1.33,1.33,0,0,0-.34-.22c-.34.06-.13-.05-.49.21l-.6.58-.38-.05a2.12,2.12,0,0,1-.24,0,1.65,1.65,0,0,0-.85.33c-.07,0,0,.16.06.11.63-.4,1.21-.07,1.79-.37.35-.18.42-.61.86-.55.23,0,.4.37.68.36.46,0,.4-.36.66-.65s.67-.13,1.15-.15c.33,0,.6-.14.93-.17.08,0,.08-.14,0-.13Z"/><path class="cls-23" d="M213.75,326.41c.58-.74,1.22-.31,1.87-.52.2-.07.35-.32.54-.41.46-.24,1,.08,1.43-.06.11,0,.13-.19.23-.24s.72-.46.76-.46.29.15.39.17c.42.08.6.26.95-.05a.06.06,0,1,0-.09-.09c-.48.42-1.22-.36-1.79-.13-.26.1-.42.55-.72.61-.06,0-.47-.13-.59-.12-.63,0-1,.62-1.61.67s-1,0-1.46.54c0,.06,0,.15.09.09Z"/><path class="cls-23" d="M220.42,327.07c-.53.05-1.11-.16-1.61-.07-.06,0-.13-.07-.19,0s-.16.14-.28.28-.1.36-.22.45l-.92.1a1.79,1.79,0,0,0-.34-.22c-.35.06-.13,0-.49.22l-.61.57-.37-.05c-.08,0-.17,0-.24,0a1.56,1.56,0,0,0-.86.33c-.07,0,0,.15.07.11.62-.41,1.21-.08,1.78-.38.35-.18.42-.6.86-.55.24,0,.41.37.68.36.46,0,.4-.36.66-.64s.68-.13,1.16-.15c.32,0,.6-.15.92-.18.08,0,.08-.14,0-.13Z"/><path class="cls-24" d="M237.94,344.82s-7.68,11.91-9.25,25.1l23.86,2.78s2-21.89-.49-26Z"/><path class="cls-4" d="M222,328.82s-.86-1.63-1.62-1.87c-1.31-.43,1.22,3.66,1.22,3.66s-1.65-1.57-2-.74c-.45,1,1.69,2.71,3,2.92,2.76.43,3.56-2.27,3.49-4.71a5.72,5.72,0,0,0-.17-1.55c-.42-.71-1.28,2.53-1.28,2.53a15.55,15.55,0,0,0-.4-3.47c-.71-1-1,3.16-1,3.16s-.51-3.2-1.11-3.45C221,324.82,222,328.82,222,328.82Z"/><path class="cls-24" d="M226.06,331.53s11,14.6,26.85,14.42l.26,6.32s-23.93-.18-31.48-19.26Z"/><ellipse class="cls-25" cx="56.91" cy="81.21" rx="50.63" ry="15.24" transform="translate(-0.68 0.48) rotate(-0.48)"/><polygon class="cls-26" points="36.97 76.64 44.4 44.12 69.7 43.41 78.3 78.1 36.97 76.64"/><path class="cls-4" d="M71.55,37.92C70,45.92,62,51.11,53.63,49.5S39.74,40.12,41.27,32.11s9.56-13.18,17.92-11.58S73.08,29.92,71.55,37.92Z"/><path class="cls-8" d="M46.7,31.89,48,27l.37,4.88,9.45.7,2.56-5.49,1.83,5.17,4.74-.68.28-3.37.71,3.36,4.36-1.26S67,17.29,55.78,18.56A18.25,18.25,0,0,0,41,29.6L40.5,31Z"/><polygon class="cls-27" points="35.93 73.47 42.9 73.78 68.6 75.58 77.5 75.5 57.27 81.43 35.93 73.47"/><path class="cls-28" d="M34.81,81.31s-7.83-.65-8.35,1.32,8.38,3.44,8.38,3.44Z"/><path class="cls-29" d="M75.2,85.59,34.2,86l-.57-5.18s38.63-5.1,45.15-5.38C88.37,75,81.47,84.21,75.2,85.59Z"/><path class="cls-28" d="M75.7,78.43s8-.65,8.45,1.34-8.62,3.42-8.62,3.42Z"/><path class="cls-30" d="M37.92,71.41,76.8,77.47l-.12,6s-36.34.77-39.76-.84C29.5,79.15,29,71.5,37.92,71.41Z"/><polygon class="cls-31" points="32.51 60.84 56.19 65.9 79.89 61.16 79.41 28.23 56.23 33.8 33.38 29.76 32.51 60.84"/><path class="cls-4" d="M35.62,44.87s1.76-.82,2.06-1.62c.52-1.37-3.92,1.08-3.92,1.08s1.75-1.65.9-2.08c-1.06-.53-2.95,1.65-3.24,3-.61,2.91,2.17,3.92,4.73,4a5.61,5.61,0,0,0,1.64-.09c.77-.4-2.58-1.51-2.58-1.51s3.21.09,3.67-.21c1.07-.7-3.26-1.27-3.26-1.27s3.38-.36,3.69-1C39.87,44.09,35.62,44.87,35.62,44.87Z"/><path class="cls-4" d="M77.41,44.48s-1.83-.81-2.16-1.62c-.55-1.4,4.06,1,4.06,1s-1.83-1.67-1-2.12c1.09-.57,3.07,1.64,3.4,3.08.67,3-2.17,4.06-4.81,4.17A5.56,5.56,0,0,1,75.25,49c-.8-.4,2.62-1.59,2.62-1.59s-3.3.14-3.77-.16c-1.12-.7,3.33-1.37,3.33-1.37s-3.49-.31-3.81-.94C73,43.76,77.41,44.48,77.41,44.48Z"/><line class="cls-32" x1="56.23" y1="33.8" x2="56.19" y2="65.9"/><polygon class="cls-33" points="34.2 29.89 34.99 28.65 56.2 32.83 78.19 27.33 78.69 28.41 56.23 33.8 34.2 29.89"/><polyline class="cls-34" points="34.8 28.95 56.2 33.15 78.33 27.62"/><polyline class="cls-34" points="34.45 29.51 56.21 33.53 78.5 28.01"/><ellipse class="cls-35" cx="340.96" cy="283.93" rx="60.1" ry="13.3"/><path class="cls-31" d="M318.38,268.27l-8.74,17.24h5.28q-3.62-5.52-7.22-11a3.14,3.14,0,0,0-4.19-1.1,3.1,3.1,0,0,0-1.1,4.19l7.23,11c1.18,1.81,4.19,2.17,5.28,0l8.75-17.23a3.13,3.13,0,0,0-1.1-4.19,3.09,3.09,0,0,0-4.19,1.1Z"/><path class="cls-26" d="M327.88,247.1c.16,6.11-5.27,11.22-12.12,11.4s-12.54-4.63-12.7-10.75,5.26-11.22,12.12-11.4S327.71,241,327.88,247.1Z"/><path class="cls-9" d="M320.52,267.15h0a2.44,2.44,0,0,0,1.59-3.07l-1.53-4.84-4.67,1.48,1.54,4.84A2.45,2.45,0,0,0,320.52,267.15Z"/><path class="cls-4" d="M302.6,252a1.34,1.34,0,1,0,.16-2A1.47,1.47,0,0,0,302.6,252Z"/><path class="cls-12" d="M304.6,251.53s-1.32-1.69-1.52-.69c-.3,1.48.64.5.64.5S303.9,251.11,304.6,251.53Z"/><path class="cls-4" d="M328.59,248a1.34,1.34,0,1,1-1.82-1A1.48,1.48,0,0,1,328.59,248Z"/><path class="cls-12" d="M327.1,249.4s-.71-2,.24-1.65c1.41.54.08.81.08.81S327.13,248.59,327.1,249.4Z"/><path class="cls-4" d="M305.6,255.74A11.62,11.62,0,1,0,310.21,240,11.63,11.63,0,0,0,305.6,255.74Z"/><path class="cls-26" d="M304,249.86a10.67,10.67,0,0,0,4.25-7.56s7.63,1.57,13.53-1.33c0,0,1.8,6.14,5.39,5.87,0,0-1.37-10.94-12.53-9.41C302.24,239.13,304,249.86,304,249.86Z"/><path class="cls-5" d="M310.29,249.9c0,.3-.1.57-.31.6s-.42-.19-.46-.49.09-.57.3-.6S310.24,249.6,310.29,249.9Z"/><path class="cls-5" d="M322,248.89c0,.3-.22.54-.43.52s-.37-.28-.35-.58.22-.53.43-.52S322,248.59,322,248.89Z"/><path class="cls-14" d="M324.28,251.88a1.48,1.48,0,1,1-3,.08,1.48,1.48,0,0,1,3-.08Z"/><path class="cls-12" d="M315.85,249.73l1.82.79a.48.48,0,0,1,0,.87l-1.64.85Z"/><path class="cls-13" d="M315,255.71l4-.43S317.15,258.46,315,255.71Z"/><path class="cls-4" d="M378.14,282.13l4.65-2.07,1.33,2.68c.57,1.15,2.31,1.58,3.95.89l-4.48-9.91-8.22,3.45Z"/><path class="cls-5" d="M382.46,279.54l-2-4.67,3.44-1.62,4.42,10.42h0a3.4,3.4,0,0,1-4.57-1.4Z"/><path class="cls-10" d="M340,273.52a42,42,0,0,0,18.53,5l18.66-2.15,3,5.05-14.42,5.3a46.81,46.81,0,0,1-16.63,2.95c-7.85-.08-15.24-1.44-16.74-2.39Z"/><path class="cls-31" d="M317.08,266.05s-9.12,17.28,16.37,22.23l7.45-14.63s-11.57-3.09-18.12-10.2Z"/><polygon class="cls-6" points="316.14 251.11 318.16 281.31 300.59 278.01 296.06 253.16 316.14 251.11"/><path class="cls-4" d="M303.82,272s-.82-1.82-.52-2.65c.52-1.42,2.33,3.48,2.33,3.48s-.25-2.46.7-2.22c1.19.3,1.19,3.27.47,4.56-1.48,2.68-4.33,1.6-6.37-.09a5.37,5.37,0,0,1-1.22-1.17c-.32-.83,3,.56,3,.56s-2.56-2.09-2.71-2.64c-.37-1.26,3.4,1.21,3.4,1.21s-2.4-2.56-2.22-3.25C301,268.51,303.82,272,303.82,272Z"/><path class="cls-31" d="M312.33,280.21l-.39.75-4.12-6.3c-1.83.93-4.29,2.15-5.57,2.61.05.1.1.2.16.3l7.23,11c1.18,1.81,4.19,2.17,5.28,0,1.57-3.08,2.68-5.3,4.24-8.38C316,280.25,315.71,280.17,312.33,280.21Z"/><path class="cls-4" d="M29.5,213.19l-1.11,7.61-2.28,0a2.33,2.33,0,0,0-1.93,2.42l8.31.21.87-8.9Z"/><path class="cls-5" d="M28.86,220.75l3.89.14,0,2.91-8.64-.42h0a2.6,2.6,0,0,1,2.48-2.68Z"/><path class="cls-4" d="M62.17,205.44l6.52,4.1-.9,2.1a2.31,2.31,0,0,0,1.43,2.73l3.56-7.51L65,202.47Z"/><path class="cls-5" d="M68.83,209.08l1.7-3.5,2.65,1.21-3.87,7.73h0a2.61,2.61,0,0,1-1.45-3.36Z"/><path class="cls-6" d="M50.1,177s3.1,13.87,18.51,26.49l-3.18,7.1s-17.29-8.31-24.25-22l-2.35.38-4.09,28.29-8.6,0,1.4-37.43Z"/><polygon class="cls-36" points="57.79 164.17 45.18 156.63 28.86 157 14.27 163.55 16.5 168.99 27.74 165.51 25.52 182.47 51.36 180.61 47.35 165.06 55.07 168.37 57.79 164.17"/><path class="cls-8" d="M50.75,136.9c.92,7.28-4.85,14-12.88,15s-15.3-4.06-16.22-11.34,4.85-14,12.88-15S49.82,129.62,50.75,136.9Z"/><path class="cls-9" d="M36.74,159.77h0a2.87,2.87,0,0,1-2.74-3l.27-6,5.74.27L39.74,157A2.87,2.87,0,0,1,36.74,159.77Z"/><path class="cls-4" d="M52,139.64a1.58,1.58,0,1,1-.81-2.28A1.73,1.73,0,0,1,52,139.64Z"/><path class="cls-12" d="M49.61,139.71s1-2.32,1.51-1.25c.8,1.59-.57.76-.57.76S50.28,139,49.61,139.71Z"/><path class="cls-4" d="M21.31,143a1.71,1.71,0,0,0,1.32,2,1.88,1.88,0,0,0,.44-3.67A1.71,1.71,0,0,0,21.31,143Z"/><path class="cls-12" d="M23.42,144.14s.2-2.51-.77-1.81c-1.43,1,.16.95.16.95S23.15,143.22,23.42,144.14Z"/><path class="cls-4" d="M49.75,144.78a13.66,13.66,0,1,1-10-16.5A13.66,13.66,0,0,1,49.75,144.78Z"/><path class="cls-8" d="M22.25,141.27h0a6.17,6.17,0,0,0,3-.69,9.89,9.89,0,0,0,4.94-6.81h0a7,7,0,0,0,4.73,4,14.89,14.89,0,0,0,6,.62l8.81-.85s-2.3-10.74-13.48-11.07a14.55,14.55,0,0,0-11.08,4.73C23.08,133.53,20.87,136.86,22.25,141.27Z"/><path class="cls-8" d="M29.3,143.25c0,.42-.25.76-.56.76a.68.68,0,0,1-.57-.75c0-.42.24-.76.56-.76A.68.68,0,0,1,29.3,143.25Z"/><path class="cls-8" d="M44.87,142.31a.59.59,0,1,1-1.13,0c0-.42.25-.76.56-.76A.68.68,0,0,1,44.87,142.31Z"/><path class="cls-37" d="M28.91,147.67s2.5,3.54,8.43,3.22c6.53-.35,8.32-4.71,8.32-4.71"/><path class="cls-12" d="M36.81,143.53l-.21,2.36,1.86-.31a.46.46,0,0,0,.18-.83Z"/><path class="cls-14" d="M28.38,145.23a2,2,0,1,1-2-2A2,2,0,0,1,28.38,145.23Z"/><path class="cls-14" d="M49.26,143.91a2,2,0,1,1-2-2A2,2,0,0,1,49.26,143.91Z"/><polygon class="cls-31" points="9.89 152.44 36.87 164.11 60.48 152.25 59.69 181.64 36.63 187.74 8.6 178.6 9.89 152.44"/><polygon class="cls-13" points="10.66 152.88 11.92 151.71 36.58 162.75 58.1 151.77 59.92 152.53 36.87 164.11 10.66 152.88"/><polyline class="cls-38" points="11.48 152.08 36.66 163.19 58.83 152.12"/><polyline class="cls-38" points="11.07 152.33 36.78 163.74 59.97 152.1"/><path class="cls-4" d="M58.77,168.18s-1.49-.07-1.94-.55c-.77-.82,3.11-.37,3.11-.37s-1.73-.67-1.25-1.22,2.58.31,3.2,1.23c1.29,1.89-.4,3.42-2.21,4.21a4.61,4.61,0,0,1-1.19.42c-.67-.07,1.39-1.83,1.39-1.83a12.63,12.63,0,0,1-2.67.92c-1-.19,1.95-1.86,1.95-1.86s-2.52.73-2.92.38C55.51,168.87,58.77,168.18,58.77,168.18Z"/><path class="cls-4" d="M10.15,165.23s1.51-.36,1.88-.94c.62-1-3.26.23-3.26.23s1.64-1,1-1.5c-.75-.58-2.58.83-3,1.89-.94,2.19,1.08,3.42,3.09,3.88a4.28,4.28,0,0,0,1.31.19c.66-.2-1.79-1.59-1.79-1.59a13.36,13.36,0,0,0,2.92.41c.95-.38-2.37-1.52-2.37-1.52s2.72.26,3.06-.18C13.61,165.3,10.15,165.23,10.15,165.23Z"/><path class="cls-39" d="M376.15,138.25a11.82,11.82,0,0,0,.94-4.63c0-7.1-6.28-12.86-14-12.86s-13.9,5.64-14,12.64C355.86,134.58,368.78,136.92,376.15,138.25Z"/><path class="cls-9" d="M362.26,152.81h0a2.68,2.68,0,0,0,2.59-2.77l-.2-5.57-5.37.19.2,5.57A2.68,2.68,0,0,0,362.26,152.81Z"/><path class="cls-4" d="M348.17,133.88a1.47,1.47,0,1,0,.77-2.12A1.6,1.6,0,0,0,348.17,133.88Z"/><path class="cls-12" d="M350.43,134s-.9-2.17-1.41-1.18c-.75,1.48.53.72.53.72S349.81,133.31,350.43,134Z"/><path class="cls-4" d="M376.82,137.27a1.47,1.47,0,1,1-1.63-1.56A1.6,1.6,0,0,1,376.82,137.27Z"/><path class="cls-12" d="M374.83,138.34s-.16-2.35.74-1.68c1.33,1-.16.88-.16.88S375.1,137.48,374.83,138.34Z"/><path class="cls-4" d="M350.24,138.7a12.75,12.75,0,1,0,9.52-15.32A12.76,12.76,0,0,0,350.24,138.7Z"/><path class="cls-39" d="M350.23,131.62,361,133l2.56-4.33.18,4.59,3.57.74,1-4.41.46,4.85,7.24,1.47s1.09-11.54-11.08-13.28S350.23,131.62,350.23,131.62Z"/><path class="cls-40" d="M361.13,138l1.74-1.74a.59.59,0,0,1,1,.25l.64,2.08Z"/><path class="cls-41" d="M356.34,135.72c-.08.42-.38.71-.67.66s-.46-.45-.38-.86.38-.72.67-.66S356.42,135.3,356.34,135.72Z"/><path class="cls-41" d="M369.48,137.89c-.08.42-.38.71-.67.66s-.46-.44-.38-.86.38-.72.67-.66S369.56,137.47,369.48,137.89Z"/><path class="cls-14" d="M357.15,138.63a1.87,1.87,0,1,1-1.87-1.87A1.87,1.87,0,0,1,357.15,138.63Z"/><path class="cls-14" d="M371,141a1.87,1.87,0,1,1-1.87-1.87A1.87,1.87,0,0,1,371,141Z"/><path class="cls-4" d="M351.65,209.26l-.42,3.78-2.23-.15c-1-.06-1.89.9-2.07,2.22l8.1.84.88-6.61Z"/><path class="cls-5" d="M351.69,213l3.79.44-.25,2.83-8.4-1.07h0a2.54,2.54,0,0,1,2.63-2.42Z"/><path class="cls-4" d="M369.12,209.56l.09,3.81,2.23,0a2.28,2.28,0,0,1,1.86,2.39l-8.14.13-.29-6.67Z"/><path class="cls-5" d="M368.74,213.32l-3.81.1v2.85l8.47-.33h0a2.56,2.56,0,0,0-2.41-2.65Z"/><path class="cls-31" d="M350.77,174.12,350.22,210l7.14,0,3.1-27.08,1.7.23,1.37,26.31,7.11.06c-.1-11.07.89-25,1.61-34.09Z"/><polygon class="cls-10" points="351.51 149.99 372.93 150.75 373.75 178.71 349.92 177.37 351.51 149.99"/><path class="cls-42" d="M367.68,163.68s7.52,8.51,10.59,7.65c1.58-.45.68-5.36.68-5.36l-7.86-6.61Z"/><path class="cls-42" d="M341.51,166.54c2.74,2.61,15.87-1.67,15.87-1.67l-.31-5.05-14.8,1.47S340.71,165.78,341.51,166.54Z"/><polygon class="cls-43" points="388.21 143.16 361.08 148.94 341.3 134.23 336.75 160.67 357.05 170.12 384.71 166.8 388.21 143.16"/><polygon class="cls-13" points="387.42 143.43 386.47 142.16 361.59 147.77 343.59 134.22 341.76 134.59 361.08 148.94 387.42 143.43"/><polyline class="cls-44" points="386.81 142.57 361.44 148.15 342.85 134.41"/><polyline class="cls-44" points="387.14 142.86 361.23 148.62 341.8 134.19"/><path class="cls-4" d="M345.12,149.62s-.68-4.92.55-5.27c.73-.21.88,2.67.88,2.67s1.55-4.17,2-3.06c.26.64-.59,2.36-.59,2.36s2.1-2.82,2.39-1.83c.16.54-1.58,2.36-1.58,2.36s3-1.91,2.72-.9c-.11.43-2,1.88-2,1.88s2.34-.8,2.11-.13-4.93,4.18-4.93,4.18A2.17,2.17,0,0,1,345.12,149.62Z"/><path class="cls-4" d="M344.94,148.36s-7.32,17.77-2.87,18.47c3.34.52,7.13-16.75,7.13-16.75Z"/><path class="cls-4" d="M375.68,154s-2.09-4.34-1-5.06c.63-.44,1.57,2.15,1.57,2.15s.15-4.45.92-3.54c.45.52.19,2.42.19,2.42s1.1-3.34,1.69-2.49c.32.46-.75,2.74-.75,2.74s2.21-2.76,2.29-1.73a10,10,0,0,1-1.26,2.41s2-1.49,2-.79-3.34,5.53-3.34,5.53A2.18,2.18,0,0,1,375.68,154Z"/><path class="cls-4" d="M375.11,152.91s-1.28,19.17,3.16,18.42c3.33-.57,1.43-18.15,1.43-18.15Z"/><line class="cls-45" x1="361.08" y1="148.94" x2="357.05" y2="170.12"/><path class="cls-13" d="M364,142.54a1.81,1.81,0,1,1-1.81-1.81A1.81,1.81,0,0,1,364,142.54Z"/><g class="cls-46"><path class="cls-47" d="M360.4,142.54a1.5,1.5,0,0,1,1.28-.38,1.55,1.55,0,0,0,1.1,0,.9.9,0,0,1,1.23.42l1.49,1.35-3,1.86-3.19-2.26Z"/></g><ellipse class="cls-48" cx="112.87" cy="302.21" rx="58.7" ry="13.9"/><polygon class="cls-49" points="54.41 277.4 61.93 270.97 71.31 286.39 64.98 290.66 54.41 277.4"/><path class="cls-9" d="M88.47,284.23h0a2.57,2.57,0,0,1-3.25-1.59l-1.78-5L88.25,276,90,281A2.53,2.53,0,0,1,88.47,284.23Z"/><path class="cls-4" d="M93.7,266.82c1.13,6.56-3.1,12.46-9.45,13.19s-12.4-4-13.53-10.55,3.1-12.46,9.45-13.19S92.57,260.27,93.7,266.82Z"/><path class="cls-5" d="M89.94,253.66a4.45,4.45,0,0,0-1.85,2.58c-7.5-4.47-14.23,1-16.1,2.93a1.3,1.3,0,0,0-.2,1.57c1.17,2.06,5.19,7.19,10.66,5.72a22.33,22.33,0,0,0,6.77,11.65c6.35-4.48,6.68-12.6,3-18a4.93,4.93,0,0,0,1.64-.71c1.87-1.27,2.53-3.57,1.46-5.15S91.82,252.39,89.94,253.66Z"/><path class="cls-12" d="M70.74,269.13l-1.08.83a.61.61,0,0,0,.25,1l1.35.36Z"/><path class="cls-5" d="M75.15,267.74c.08.36-.07.69-.32.74s-.51-.2-.59-.56.07-.68.33-.73S75.08,267.39,75.15,267.74Z"/><path class="cls-4" d="M84.49,267.12a1.52,1.52,0,0,1-.71,2,1.68,1.68,0,1,1,.71-2Z"/><path class="cls-12" d="M82.91,268.56s-.69-2.14.29-1.72c1.45.62.06.85.06.85S83,267.71,82.91,268.56Z"/><path class="cls-14" d="M78.91,269.8a1.77,1.77,0,1,1-2.47-.44A1.78,1.78,0,0,1,78.91,269.8Z"/><path class="cls-28" d="M85.7,283.64l-8.63,17h5.21q-3.56-5.45-7.13-10.89A3.09,3.09,0,0,0,71,288.69a3,3,0,0,0-1.08,4.13q3.56,5.44,7.13,10.89c1.16,1.78,4.13,2.13,5.21,0l8.64-17a3.1,3.1,0,0,0-1.09-4.13,3,3,0,0,0-4.13,1.08Z"/><path class="cls-28" d="M84.41,281.46s-9,17.05,16.16,21.94L107.92,289s-11.42-3-17.88-10.08Z"/><polygon class="cls-4" points="119.68 291.55 155.34 294.8 158.26 301.06 121.52 301.62 119.68 291.55"/><polygon class="cls-4" points="124.12 261.4 115.65 286.1 122.36 295.13 129.82 263.13 124.12 261.4"/><path class="cls-5" d="M157,299.48l-3-4.87,3.5-1,4.88,9h0a2.75,2.75,0,0,1-4-.72Z"/><path class="cls-5" d="M128.76,263.63l-5.41-.36,1.38-3.64,9.53,1.25h0c-.19,1.83-1.49,3.15-3,3Z"/><path class="cls-26" d="M121.28,268.91l9.08,3.42-6.3,18.85L148,293v11.16l-48-.91,4-15.71S115.81,288.47,121.28,268.91Z"/><polygon class="cls-6" points="64.11 271.79 76.36 287.77 67.01 294.04 54.41 277.4 64.11 271.79"/><path class="cls-4" d="M71.33,287.31s-.82-1.8-.52-2.62c.51-1.4,2.3,3.44,2.3,3.44s-.24-2.43.69-2.19c1.17.29,1.18,3.22.47,4.5C72.8,293.09,70,292,68,290.35a5.83,5.83,0,0,1-1.21-1.15c-.31-.83,3,.55,3,.55s-2.52-2.07-2.68-2.61c-.35-1.25,3.36,1.19,3.36,1.19s-2.37-2.52-2.19-3.2C68.57,283.88,71.33,287.31,71.33,287.31Z"/><path class="cls-28" d="M79.73,295.43l-.39.74L75.27,290c-1.8.92-4.23,2.13-5.5,2.58a1.69,1.69,0,0,0,.17.29q3.56,5.44,7.13,10.89c1.16,1.78,4.13,2.13,5.21,0,1.55-3,2.65-5.23,4.19-8.28C83.39,295.48,83.06,295.39,79.73,295.43Z"/><path class="cls-28" d="M88.09,256.24s1-2.18.23-3.6a2.76,2.76,0,0,0-1.21,3s-2.15-1-3.37.2C83.74,255.81,85.89,258.28,88.09,256.24Z"/><path class="cls-28" d="M88.11,255.92s0,2.8,4.06,4.15l.3.45s-4-.6-4.86-4.29Z"/><path class="cls-4" d="M181,103.33v3.94l-2.31.1a2.35,2.35,0,0,0-1.86,2.51l8.4-.07.13-6.88Z"/><path class="cls-5" d="M181.49,107.2h3.94l.07,2.94-8.75-.13h0a2.63,2.63,0,0,1,2.42-2.79Z"/><path class="cls-4" d="M199.19,103.81l-.15,3.93,2.3.19a2.35,2.35,0,0,1,1.77,2.57l-8.4-.38.12-6.88Z"/><path class="cls-5" d="M198.57,107.65l-3.94-.13-.18,2.93,8.75.2h0a2.63,2.63,0,0,0-2.31-2.88Z"/><path class="cls-10" d="M202.66,67.48s-1.53,25.24-2.75,36.9l-6.25-.1-1.27-27.07-2.43.11-3.88,26.55-6.13-.06.87-35.08Z"/><path class="cls-31" d="M184,45s-2.45,10.57-5.47,29l26.28-.71S202,52.92,199.57,45.12Z"/><path class="cls-4" d="M164.18,26.41s-.19-1.47.19-2c.67-.88.9,3,.9,3s.35-1.79,1-1.41c.77.47.15,2.56-.63,3.31-1.6,1.56-3.37.17-4.45-1.47a4.29,4.29,0,0,1-.61-1.09c0-.65,2,1.06,2,1.06a12.26,12.26,0,0,1-1.35-2.45c0-1,2.13,1.6,2.13,1.6s-1.14-2.33-.87-2.77C163,23.35,164.18,26.41,164.18,26.41Z"/><path class="cls-31" d="M166.35,28.72S171.65,42,184,45l-.93,9.63S164.78,46.31,162.67,30Z"/><path class="cls-4" d="M216.78,24.52s0-1.47-.49-1.92c-.79-.77-.43,3.06-.43,3.06s-.62-1.71-1.17-1.24.25,2.55,1.13,3.17c1.83,1.29,3.36-.35,4.18-2.13a4.25,4.25,0,0,0,.43-1.17c-.05-.66-1.82,1.36-1.82,1.36a12.58,12.58,0,0,0,1-2.63c-.16-1-1.87,1.9-1.87,1.9s.78-2.47.44-2.87C217.53,21.32,216.78,24.52,216.78,24.52Z"/><path class="cls-31" d="M215,27.09s-4.34,14-16.32,18.14l1.8,9.28S218.15,44.45,218.67,28Z"/><path class="cls-4" d="M193.21,41.68l.84,3.84A2.83,2.83,0,0,1,191.34,49h0a2.81,2.81,0,0,1-2.85-2.4l-.78-5.07Z"/><path class="cls-50" d="M193.75,44.33l-.54-2.65-5.5-.2.47,3.12A8.71,8.71,0,0,0,193.75,44.33Z"/><path class="cls-39" d="M196.45,31.14c-1.28,6.37-7.07,10.59-12.93,9.41s-10.3-7.68-9-14.06a11.75,11.75,0,0,1,13.64-9C194,18.64,197.72,24.76,196.45,31.14Z"/><path class="cls-4" d="M203.21,27.56c1.48,5.28-1.31,14.18-8.37,15.66-7.24,1.52-15.11-2.67-16.79-9.55s2.38-13.38,9.57-15.13A12.63,12.63,0,0,1,203.21,27.56Z"/><path class="cls-51" d="M187,29.17s4,3.24,3.7-1.21"/><path class="cls-51" d="M197.73,26.29c-.07-.07,3,3.53,2.93-.92"/><path class="cls-39" d="M201.17,22.41l-5,1.12s-2.44-2.93-3.78-3.31l.68,4.33-5.55,1.14-2.4-3.8.5,5-8.92,3.55S172.84,22,182.4,18.31c0,0,5.45-3.87,11.38-1.68A15.39,15.39,0,0,1,201.17,22.41Z"/><path class="cls-14" d="M188.65,33.25a1.63,1.63,0,1,1-1.87-1.34A1.63,1.63,0,0,1,188.65,33.25Z"/><path class="cls-14" d="M203,29a1.63,1.63,0,1,1-1.87-1.34A1.62,1.62,0,0,1,203,29Z"/><path class="cls-12" d="M196.21,28.93l.34,1.9,1.39-.64a.37.37,0,0,0,0-.69Z"/><path class="cls-52" d="M190.27,33.59s6.87,6.25,10.55-1.47"/><path class="cls-4" d="M175.45,32.53a1.59,1.59,0,1,0,.82-2.3A1.74,1.74,0,0,0,175.45,32.53Z"/><path class="cls-12" d="M177.89,32.6s-1-2.34-1.52-1.27c-.8,1.61.58.78.58.78S177.22,31.9,177.89,32.6Z"/><path class="cls-6" d="M170.28,17.38s3.16,2,1,3.89l28.39-6.62s.18-2.26-.81-2.62S170.28,17.38,170.28,17.38Z"/><path class="cls-31" d="M176.35,12.41l1,3.55,21.39-6.09S197.29,7,197.67,6.45Z"/><path class="cls-53" d="M168.26,10.51s2.7,1.59,1.47,3l26.9-8.58L195.86,2Z"/><path class="cls-43" d="M191.56,0a4.4,4.4,0,0,0,.89,2.38L171.28,8.73s-1.72-2.12-.92-3.21Z"/><ellipse class="cls-35" cx="210.51" cy="199.41" rx="49.16" ry="14.79"/><path class="cls-4" d="M181.55,195l-7,1-1.54-4.39a3.7,3.7,0,0,0-4.45-2.57h0l2.94,13.1,11.12-2.31Z"/><path class="cls-4" d="M239.64,199.2l6.4,2.86,2-2.78a3.7,3.7,0,0,1,5-1.23l-5.72,10.76-10.07-5.29Z"/><polygon class="cls-26" points="178.47 193.69 198.58 190.46 207.52 167.12 221.67 165.63 231.85 192.44 244.52 199.4 239.05 206.35 213.23 195.18 180.46 201.13 178.47 193.69"/><polygon class="cls-26" points="207.52 167.12 185.23 176.52 185.79 181.94 208.33 175.26 207.52 167.12"/><polygon class="cls-26" points="221.67 165.63 237.28 182.5 236.72 188.07 222.8 175.82 221.67 165.63"/><polygon class="cls-28" points="188.52 161.77 214.83 174.38 238.6 159.85 236.83 193.9 213.8 201.74 186.36 192.1 188.52 161.77"/><polygon class="cls-13" points="189.26 162.27 190.54 160.86 214.59 172.81 236.26 159.38 238.04 160.2 214.83 174.38 189.26 162.27"/><polyline class="cls-54" points="190.09 161.31 214.65 173.32 236.97 159.76"/><polyline class="cls-54" points="189.69 161.61 214.75 173.95 238.1 159.69"/><path class="cls-4" d="M235.49,177s-1.73-.79-2-1.57c-.52-1.34,3.87,1,3.87,1s-1.73-1.61-.9-2c1-.54,2.91,1.59,3.21,3,.62,2.86-2.1,3.87-4.62,3.95a5.66,5.66,0,0,1-1.61-.07c-.76-.4,2.52-1.51,2.52-1.51a16.2,16.2,0,0,1-3.61-.18c-1.06-.68,3.2-1.28,3.2-1.28s-3.33-.32-3.64-.93C231.31,176.23,235.49,177,235.49,177Z"/><path class="cls-4" d="M188.31,179.5s1.9.07,2.48.68c1,1-4,.51-4,.51s2.2.84,1.6,1.54c-.76.89-3.3-.37-4.1-1.53-1.66-2.41.48-4.38,2.78-5.41a5.44,5.44,0,0,1,1.52-.54c.85.08-1.76,2.34-1.76,2.34s2.87-1.29,3.4-1.19c1.24.23-2.47,2.39-2.47,2.39s3.21-1,3.72-.52C192.46,178.59,188.31,179.5,188.31,179.5Z"/><path class="cls-39" d="M228.74,155.39a11.87,11.87,0,0,0,.94-4.61c0-7.06-6.25-12.78-14-12.78s-13.81,5.6-13.94,12.56C208.57,151.74,221.41,154.06,228.74,155.39Z"/><path class="cls-9" d="M214.93,169.86h0a2.67,2.67,0,0,0,2.57-2.76l-.2-5.53-5.33.19.2,5.53A2.67,2.67,0,0,0,214.93,169.86Z"/><path class="cls-4" d="M200.92,151a1.46,1.46,0,1,0,.77-2.11A1.6,1.6,0,0,0,200.92,151Z"/><path class="cls-12" d="M203.17,151.12s-.9-2.16-1.4-1.17c-.75,1.47.53.71.53.71S202.55,150.48,203.17,151.12Z"/><path class="cls-4" d="M230.05,154.73a1.46,1.46,0,1,1-1.62-1.55A1.6,1.6,0,0,1,230.05,154.73Z"/><path class="cls-12" d="M228.07,155.8s-.15-2.33.73-1.67c1.33,1-.15.88-.15.88S228.34,155,228.07,155.8Z"/><path class="cls-4" d="M203,155.83a12.68,12.68,0,1,0,9.46-15.23A12.66,12.66,0,0,0,203,155.83Z"/><path class="cls-39" d="M203,148.79l10.69,1.34,2.55-4.31.17,4.57,3.55.73,1-4.39.45,4.83,7.19,1.45s1.1-11.46-11-13.19S203,148.79,203,148.79Z"/><path class="cls-14" d="M207.8,154.85A1.86,1.86,0,1,1,206,153,1.85,1.85,0,0,1,207.8,154.85Z"/><path class="cls-14" d="M225.3,157.62a1.86,1.86,0,1,1-1.86-1.86A1.86,1.86,0,0,1,225.3,157.62Z"/><path class="cls-12" d="M214.21,154.22l-.18,1.62-1.22-.46a.32.32,0,0,1,0-.59Z"/><path class="cls-55" d="M222.74,154s-3.91,3.59-3.88-1"/><path class="cls-55" d="M210.42,151.58c.07-.08-2.82,3.82-3.06-.75"/><path class="cls-56" d="M207,157.37s4.87,7,14.37,2"/><path class="cls-57" d="M181.16,213.17a3.12,3.12,0,1,1-2.69-3.5A3.11,3.11,0,0,1,181.16,213.17Z"/><path class="cls-58" d="M202.93,207.55a3.12,3.12,0,1,1-2.69-3.5A3.12,3.12,0,0,1,202.93,207.55Z"/><path class="cls-59" d="M222.58,211.88a3.12,3.12,0,1,1-2.69-3.5A3.13,3.13,0,0,1,222.58,211.88Z"/><path class="cls-60" d="M245.05,221a3.12,3.12,0,1,1-2.69-3.5A3.13,3.13,0,0,1,245.05,221Z"/><path class="cls-7" d="M232.57,223.86a3.12,3.12,0,1,1-2.69-3.49A3.12,3.12,0,0,1,232.57,223.86Z"/><polygon class="cls-10" points="244.74 191.51 244.74 183.48 255.29 183.63 255.14 191.84 244.74 191.51"/><polygon class="cls-7" points="245.03 182.44 251.13 176.06 255.14 182.44 245.03 182.44"/><polygon class="cls-30" points="256.77 184.08 256.92 191.95 264.94 191.95 264.94 184.08 256.77 184.08"/><polygon class="cls-30" points="151.01 178.1 151.16 185.97 159.18 185.97 159.18 178.1 151.01 178.1"/><polygon class="cls-59" points="170.58 177.85 170.73 185.72 178.75 185.72 178.75 177.85 170.58 177.85"/><polygon class="cls-7" points="151.01 168.9 151.16 176.77 159.18 176.77 159.18 168.9 151.01 168.9"/><polygon class="cls-28" points="163.47 175.02 159.67 181.92 166.63 185.92 170.55 179.1 163.47 175.02"/><ellipse class="cls-61" cx="319.77" cy="86.87" rx="49.16" ry="14.79"/><path class="cls-35" d="M399.19,18.88v0l-68.41-.22v0l-.83,0L329.47,76l4,.21,0-2L399,73.74V76l4,.21.73-57.41Zm-.08,26.22-65.28-.21.29-22.58,65.06-.48Zm-65.6,25.49.28-22.07L399.1,48,399,70.8Z"/><polygon class="cls-31" points="338.4 23.66 343.2 23.55 343.33 44.45 338.15 44.38 338.4 23.66"/><polygon class="cls-26" points="395.82 39.3 395.93 44.1 375.03 44.21 375.11 39.03 395.82 39.3"/><polygon class="cls-62" points="344.55 23.55 349.6 23.66 348.91 44.45 345.09 44.45 344.55 23.55"/><polygon class="cls-24" points="350.59 23.55 354.9 23.44 354.79 44.45 350.97 44.45 350.59 23.55"/><polygon class="cls-53" points="374.63 38.93 374.51 34.62 395.53 34.73 395.53 38.55 374.63 38.93"/><polygon class="cls-6" points="355.03 24.23 359.17 23.03 364.38 43.39 360.69 44.36 355.03 24.23"/><polygon class="cls-6" points="359.44 49.38 364.24 49.27 364.37 70.18 359.19 70.09 359.44 49.38"/><polygon class="cls-24" points="356.59 65.06 356.69 69.86 335.79 69.97 335.88 64.79 356.59 65.06"/><polygon class="cls-53" points="378.78 49.27 383.83 49.38 383.14 70.18 379.32 70.18 378.78 49.27"/><polygon class="cls-62" points="371.06 70.18 366.01 70.06 366.7 49.27 370.52 49.27 371.06 70.18"/><polygon class="cls-62" points="384.81 49.27 389.12 49.16 389.01 70.18 385.19 70.18 384.81 49.27"/><polygon class="cls-28" points="377.07 70.06 372.76 70.18 372.87 49.16 376.69 49.16 377.07 70.06"/><polygon class="cls-24" points="389.26 50.05 393.4 48.85 398.61 69.21 394.91 70.18 389.26 50.05"/><polygon class="cls-4" points="320.99 81.78 293.75 84.26 291.52 89.04 319.58 89.47 320.99 81.78"/><path class="cls-5" d="M292.5,87.84l2.31-3.72-2.68-.78-3.72,6.84h0a2.1,2.1,0,0,0,3-.56Z"/><path class="cls-26" d="M324.91,76.7l6.58,2.47a10.87,10.87,0,0,1,7,10.57l-35.07-.29-5.21-8.69Z"/><path class="cls-4" d="M339.28,35.56s1.33-1.19,1.38-2c.09-1.33-3.16,2-3.16,2s1.09-1.91.23-2.05c-1.08-.17-2.15,2.24-2,3.54.25,2.7,3,2.82,5.25,2.17a5.25,5.25,0,0,0,1.42-.52c.56-.57-2.68-.61-2.68-.61a15.61,15.61,0,0,0,3.17-1.19c.76-.9-3.22-.22-3.22-.22s2.89-1.24,3-1.86C342.82,33.72,339.28,35.56,339.28,35.56Z"/><polygon class="cls-10" points="301.44 50.33 317.95 48.3 335.67 35.07 338.24 40.48 321.14 57.28 324.91 76.7 296.22 83.94 301.44 50.33"/><path class="cls-4" d="M312.08,79.33s1.28,1,2,.9c1.2-.15-2.3-2.47-2.3-2.47s1.87.65,1.85-.14c0-1-2.33-1.54-3.47-1.21-2.35.67-2,3.1-1.05,5a4.82,4.82,0,0,0,.7,1.17c.59.41.09-2.48.09-2.48a14.4,14.4,0,0,0,1.58,2.62c.92.52-.34-2.89-.34-2.89s1.57,2.35,2.14,2.34C314.29,82.16,312.08,79.33,312.08,79.33Z"/><path class="cls-10" d="M311.23,76.44s-9.67-12.29-5.74-25.56h0a6.45,6.45,0,0,0-9.07,6.84c1.13,7,4.09,15.75,11.58,21.49Z"/><path class="cls-8" d="M316.67,29.82c2.26,6.83-1.88,14.34-9.24,16.77s-15.14-1.14-17.4-8,1.88-14.34,9.24-16.77S314.41,23,316.67,29.82Z"/><path class="cls-9" d="M310.08,53h0a2.46,2.46,0,0,0,1.81-3l-1.2-4.95-4.77,1.16,1.2,5A2.45,2.45,0,0,0,310.08,53Z"/><path class="cls-4" d="M295.55,41.78c2.81,5.8,10.51,6.91,16.05,5.12s7.76-9.5,4.95-15.3a11.67,11.67,0,0,0-21,10.18Z"/><path class="cls-12" d="M309.94,36.34l.43,2,1.44-.72a.4.4,0,0,0-.07-.73Z"/><path class="cls-14" d="M313.46,37.6a1.71,1.71,0,1,0,1.31-2A1.71,1.71,0,0,0,313.46,37.6Z"/><path class="cls-14" d="M301.06,40.87a1.71,1.71,0,1,0,1.32-2A1.71,1.71,0,0,0,301.06,40.87Z"/><path class="cls-63" d="M302.25,36.37s3.74,2.79,3.3-1.22"/><path class="cls-63" d="M311.9,33.4c-.08-.06,2.81,3.09,2.61-.93"/><path class="cls-64" d="M308.61,42l3-.61S310.86,44.07,308.61,42Z"/><path class="cls-4" d="M293,39.39a1.56,1.56,0,1,0,.56-2.32A1.7,1.7,0,0,0,293,39.39Z"/><path class="cls-12" d="M295.41,39.21s-1.2-2.18-1.62-1.08c-.62,1.64.64.7.64.7S294.68,38.6,295.41,39.21Z"/><path class="cls-8" d="M297.05,21.47a7,7,0,1,1-9-4.26A7,7,0,0,1,297.05,21.47Z"/><path class="cls-8" d="M302.44,22c-11.76,2.71-8.21,15-8.21,15,15.79-6.92,12.45-12.2,12.45-12.2s3.09,6.8,8.8,4.92C315.48,29.69,312.81,19.61,302.44,22Z"/><ellipse class="cls-65" cx="354.59" cy="397.43" rx="55.97" ry="16.94"/><path class="cls-31" d="M369.71,399,345,381.78a7.07,7.07,0,0,0-11.36,3.31l-3.26,13.2,7.41.85,2.92-9.48,14.57,11.62Z"/><path class="cls-4" d="M336.71,397.05l-1.23,7.62-10.17,0h0a4.33,4.33,0,0,1,4-3.08l2.68-.09.74-5.51Z"/><path d="M335.94,401.93l-4-.39s-5.87-.77-6.66,3.17l10.17,0Z"/><path class="cls-66" d="M345,381.78a7.07,7.07,0,0,0-11.36,3.31l-3.26,13.2,7.41.85,2.92-9.48h0a6,6,0,0,0,4.34-7.73Z"/><polygon class="cls-10" points="377.44 391.73 372.78 369.77 361.09 369.92 351.33 391.66 377.44 391.73"/><polygon class="cls-10" points="361.09 369.92 347.33 373.91 348.66 379.83 363.31 376.28 361.09 369.92"/><polygon class="cls-10" points="372.78 369.77 385.35 377.17 383.14 381.33 371.15 376.28 372.78 369.77"/><polygon class="cls-67" points="345.24 367 367.28 376.77 386.73 367.2 385.89 391.3 366.93 396.14 344 388.45 345.24 367"/><polygon class="cls-13" points="345.87 367.38 346.9 366.42 367.06 375.65 384.78 366.79 386.27 367.43 367.28 376.77 345.87 367.38"/><polyline class="cls-68" points="346.54 366.72 367.12 376.01 385.38 367.08"/><polyline class="cls-68" points="346.2 366.93 367.21 376.46 386.31 367.07"/><path class="cls-4" d="M385.22,380.26s-1.22-.07-1.59-.47c-.62-.68,2.55-.28,2.55-.28s-1.41-.56-1-1,2.12.27,2.62,1c1,1.56-.36,2.8-1.85,3.44a3.17,3.17,0,0,1-1,.33c-.54-.06,1.16-1.49,1.16-1.49a10.21,10.21,0,0,1-2.2.74c-.79-.16,1.61-1.51,1.61-1.51s-2.07.58-2.39.29C382.54,380.8,385.22,380.26,385.22,380.26Z"/><path class="cls-4" d="M345.36,377.5s1.24-.29,1.55-.76c.52-.81-2.68.16-2.68.16s1.35-.82.86-1.21-2.12.66-2.5,1.52c-.79,1.79.86,2.82,2.51,3.21a3.36,3.36,0,0,0,1.07.16c.55-.15-1.46-1.32-1.46-1.32a10.89,10.89,0,0,0,2.39.36c.79-.3-1.93-1.26-1.93-1.26s2.23.23,2.52-.13C348.2,377.58,345.36,377.5,345.36,377.5Z"/><path class="cls-4" d="M346,397.05l-1.26,7.61H334.59a4.3,4.3,0,0,1,4-3.07l2.68-.08L342,396Z"/><path class="cls-31" d="M375.44,397.26l-22.72-16a7.07,7.07,0,0,0-11,4.3l-2.24,13.84,7.78.49,1.95-6.32,7.48,3.33Z"/><path d="M345.26,401.93l-4-.39s-5.88-.77-6.67,3.17l10.17,0Z"/><path class="cls-31" d="M372.07,394.87l-4.32-3L354,392l1.27,9.25s12.29,3.33,20.42-2l1.33-5.62Z"/><path class="cls-8" d="M378.3,351.55c1.22,6.49-3.59,12.83-10.74,14.18s-13.94-2.82-15.16-9.3,3.59-12.83,10.74-14.18S377.08,345.07,378.3,351.55Z"/><path class="cls-9" d="M367,372.83h0a2.58,2.58,0,0,1-2.62-2.55l-.08-5.36,5.17-.07.08,5.35A2.6,2.6,0,0,1,367,372.83Z"/><path class="cls-4" d="M379.6,353.94a1.42,1.42,0,1,1-.85-2A1.54,1.54,0,0,1,379.6,353.94Z"/><path class="cls-12" d="M377.43,354.13s.76-2.13,1.3-1.2c.79,1.38-.48.71-.48.71S378,353.48,377.43,354.13Z"/><path class="cls-4" d="M352.22,358.58a1.42,1.42,0,1,0,1.49-1.57A1.55,1.55,0,0,0,352.22,358.58Z"/><path class="cls-12" d="M354.18,359.52s0-2.26-.78-1.58c-1.24,1,.19.84.19.84S353.89,358.71,354.18,359.52Z"/><path class="cls-4" d="M378,355.49c.56,6.75-5.17,13.35-11,13.72-5.6.36-12.87-5-13.43-11.72a12.28,12.28,0,0,1,24.47-2Z"/><path class="cls-12" d="M366.16,358.25l-.06,2.13,1.65-.38a.41.41,0,0,0,.12-.76Z"/><path class="cls-14" d="M358.69,360.23a1.8,1.8,0,1,1-1.92-1.67A1.8,1.8,0,0,1,358.69,360.23Z"/><path class="cls-14" d="M377.35,357.92a1.8,1.8,0,1,1-1.92-1.68A1.81,1.81,0,0,1,377.35,357.92Z"/><path class="cls-8" d="M361.4,357.83c0,.4-.11.73-.32.74s-.4-.28-.43-.67.1-.73.31-.74S361.36,357.44,361.4,357.83Z"/><path class="cls-8" d="M372.43,357c0,.39-.11.73-.32.74s-.4-.28-.43-.67.1-.73.31-.74S372.39,356.56,372.43,357Z"/><path class="cls-64" d="M365.57,363.48l3.79-.28S367.71,366.47,365.57,363.48Z"/><path class="cls-8" d="M353.28,357s13.34-.18,17.42-9.08c0,0,2.87,6.68,6.63,4.44,0,0-.57-8.16-10.35-8.84s-13.81,8.25-13.81,8.25Z"/></g></g></svg>