<svg xmlns="http://www.w3.org/2000/svg" xmlns:xlink="http://www.w3.org/1999/xlink" viewBox="0 0 916.85 380.23"><defs><style>.cls-1{fill:none;}.cls-2{isolation:isolate;}.cls-3{fill:#efe1d8;}.cls-103,.cls-111,.cls-13,.cls-15,.cls-16,.cls-22,.cls-3,.cls-54,.cls-56,.cls-6,.cls-61,.cls-63,.cls-68,.cls-83,.cls-86,.cls-88,.cls-90,.cls-92,.cls-95,.cls-96{mix-blend-mode:multiply;}.cls-4{fill:#251818;}.cls-5,.cls-6,.cls-96{fill:#54352e;}.cls-22,.cls-28,.cls-6,.cls-63{opacity:0.65;}.cls-7{fill:#ffb87f;}.cls-8{fill:#f39f6d;}.cls-9{fill:#f9f0c7;}.cls-10{fill:#ae1917;}.cls-11{fill:#fbf9f4;}.cls-12{fill:#783c28;}.cls-13,.cls-15{fill:#62260f;}.cls-13,.cls-56{opacity:0.18;}.cls-14{fill:#672c16;}.cls-15{opacity:0.25;}.cls-16{fill:#510900;opacity:0.22;}.cls-17{fill:#854e3c;}.cls-18{fill:#b69b75;}.cls-19{fill:#888;}.cls-20{fill:#e1d6c7;}.cls-21,.cls-22{fill:#cfbda4;}.cls-23{fill:#d8733a;}.cls-24{fill:#ffddc4;}.cls-25{fill:#391c17;}.cls-26,.cls-28,.cls-54{fill:#4f3d37;}.cls-27{fill:#776965;}.cls-29{fill:#c33;}.cls-30{fill:#ef9261;}.cls-31{fill:url(#radial-gradient);}.cls-32{fill:url(#radial-gradient-2);}.cls-33{clip-path:url(#clip-path);}.cls-34{fill:#fffff6;}.cls-35{fill:url(#radial-gradient-3);}.cls-36{fill:#3d2e29;}.cls-37{clip-path:url(#clip-path-2);}.cls-38{fill:url(#radial-gradient-4);}.cls-39{fill:#6a3c3e;}.cls-40{fill:#e78b57;}.cls-41{fill:#404040;}.cls-42{fill:#ffc9a2;}.cls-43{fill:#fff;}.cls-44{fill:#e68f5b;}.cls-45{fill:#6f4216;}.cls-46{fill:url(#radial-gradient-5);}.cls-47{fill:url(#radial-gradient-6);}.cls-48{clip-path:url(#clip-path-3);}.cls-49{fill:url(#radial-gradient-7);}.cls-50{clip-path:url(#clip-path-4);}.cls-51{fill:url(#radial-gradient-8);}.cls-52{fill:#877b77;}.cls-53{fill:#412d27;}.cls-54,.cls-59{opacity:0.44;}.cls-55,.cls-56{fill:#a86425;}.cls-57{fill:#98540f;}.cls-58{fill:#ef9968;}.cls-59{fill:#ffbc8b;}.cls-60{opacity:0.32;}.cls-61{fill:#e4a88f;}.cls-62,.cls-63{fill:#ecc89a;}.cls-64{fill:#8b000e;}.cls-65{fill:#344572;}.cls-66{fill:#c90125;}.cls-67{fill:#346fb1;}.cls-68{fill:#e5b89b;}.cls-69{fill:#b77f4b;}.cls-70{fill:#934f0e;}.cls-71{fill:#37231c;}.cls-72{fill:#2c160f;}.cls-73{clip-path:url(#clip-path-5);}.cls-74{fill:url(#radial-gradient-9);}.cls-75{fill:#34241f;}.cls-76{clip-path:url(#clip-path-6);}.cls-77{fill:url(#radial-gradient-10);}.cls-78{fill:url(#radial-gradient-11);}.cls-79{fill:url(#radial-gradient-12);}.cls-80{fill:#d00000;}.cls-81{fill:#5a91ab;}.cls-82{fill:#523f3d;}.cls-83{fill:#36302e;opacity:0.37;}.cls-84{fill:#201d1d;}.cls-85{fill:#226e76;}.cls-86{fill:#514a4e;}.cls-111,.cls-86,.cls-90{opacity:0.35;}.cls-87{fill:#a69a8e;}.cls-88{fill:#cb6d21;opacity:0.24;}.cls-89,.cls-90{fill:#6b9e55;}.cls-91{fill:#8eb569;}.cls-92{opacity:0.45;}.cls-93{fill:#e39f6d;}.cls-94,.cls-95{fill:#44221a;}.cls-95,.cls-96{opacity:0.5;}.cls-97{fill:url(#radial-gradient-13);}.cls-98{fill:url(#radial-gradient-14);}.cls-99{clip-path:url(#clip-path-7);}.cls-100{fill:url(#radial-gradient-15);}.cls-101{clip-path:url(#clip-path-8);}.cls-102{fill:url(#radial-gradient-16);}.cls-103{fill:#91918d;opacity:0.15;}.cls-104{fill:#e1e5de;}.cls-105{fill:#3b1800;}.cls-106{fill:#e1dccc;}.cls-107{fill:#bfe5e6;}.cls-108{fill:#70ccce;}.cls-109{fill:#c2e9ea;}.cls-110,.cls-111{fill:#bad3cd;}</style><radialGradient id="radial-gradient" cx="103.28" cy="44.46" r="3.94" gradientUnits="userSpaceOnUse"><stop offset="0" stop-color="#ffab87"/><stop offset="0.5" stop-color="#ffae85"/><stop offset="0.9" stop-color="#ffb87f"/><stop offset="0.9" stop-color="#ffb87f"/></radialGradient><radialGradient id="radial-gradient-2" cx="84.6" cy="80.47" r="4.57" gradientTransform="translate(11.28 -44.85) rotate(7.81)" xlink:href="#radial-gradient"/><clipPath id="clip-path"><path class="cls-1" d="M77,38.57a6.56,6.56,0,0,1,6.28-4.36c4.91,0,4.9,4.85,4.9,4.85s-1.76,3.4-6.6,2.49C77.74,40.83,77,38.57,77,38.57Z"/></clipPath><radialGradient id="radial-gradient-3" cx="81.58" cy="43.62" r="6.22" gradientUnits="userSpaceOnUse"><stop offset="0" stop-color="#847773"/><stop offset="1" stop-color="#402d26"/></radialGradient><clipPath id="clip-path-2"><path class="cls-1" d="M97.14,36.22s1.15-4.15,5.28-4.15,4.13,4.62,4.13,4.62A4.79,4.79,0,0,1,101,39.06C97.78,38.38,97.14,36.22,97.14,36.22Z"/></clipPath><radialGradient id="radial-gradient-4" cx="101.56" cy="41.01" r="5.45" xlink:href="#radial-gradient-3"/><radialGradient id="radial-gradient-5" cx="-69.49" cy="61.04" r="3.82" gradientTransform="matrix(-1, 0.07, 0.07, 1, 509.18, -1.77)" xlink:href="#radial-gradient"/><radialGradient id="radial-gradient-6" cx="-84.12" cy="120.02" r="4.43" gradientTransform="matrix(-0.98, 0.2, 0.2, 0.98, 494.98, -45.05)" xlink:href="#radial-gradient"/><clipPath id="clip-path-3"><path class="cls-1" d="M608.64,48A6.37,6.37,0,0,0,603,43.15c-4.74-.47-5.2,4.21-5.2,4.21s1.37,3.46,6.14,3C607.69,50.07,608.64,48,608.64,48Z"/></clipPath><radialGradient id="radial-gradient-7" cx="-89.07" cy="40.36" r="6.04" gradientTransform="matrix(-1.02, -0.1, -0.1, 1, 517, 3.38)" gradientUnits="userSpaceOnUse"><stop offset="0" stop-color="#876b66"/><stop offset="1" stop-color="#542d26"/></radialGradient><clipPath id="clip-path-4"><path class="cls-1" d="M588,45.91s-.88-4.08-4.89-4.32-4.26,4.25-4.26,4.25a4.65,4.65,0,0,0,5.25,2.61C587.3,48,588,45.91,588,45.91Z"/></clipPath><radialGradient id="radial-gradient-8" cx="-71.45" cy="41.46" r="5.29" gradientTransform="matrix(-1, -0.06, -0.06, 1, 514.59, 4.73)" xlink:href="#radial-gradient-7"/><clipPath id="clip-path-5"><path class="cls-1" d="M353.09,44.47s-7.15-.8-9.43,2.24c0,0,.23,3.79,2.11,4.56s6.78.66,7,.33a3.93,3.93,0,0,0,1.07-1.19,6.93,6.93,0,0,0,.58-3.56A4.57,4.57,0,0,0,353.09,44.47Z"/></clipPath><radialGradient id="radial-gradient-9" cx="344.24" cy="53.24" r="6.38" gradientTransform="translate(4.71)" gradientUnits="userSpaceOnUse"><stop offset="0" stop-color="#71879a"/><stop offset="0.87" stop-color="#2a3a5e"/></radialGradient><clipPath id="clip-path-6"><path class="cls-1" d="M365.35,44s5.73-1.45,7.92.81c0,0,.24,3.17-1.2,4s-5.44,1.3-5.64,1.05a3.17,3.17,0,0,1-1-.87,5.77,5.77,0,0,1-.87-2.88A3.79,3.79,0,0,1,365.35,44Z"/></clipPath><radialGradient id="radial-gradient-10" cx="854.98" cy="19.92" r="5.33" gradientTransform="matrix(-0.97, 0.13, 0.14, 0.99, 1199.23, -82.33)" xlink:href="#radial-gradient-9"/><radialGradient id="radial-gradient-11" cx="368.54" cy="47.44" r="3.9" gradientTransform="matrix(1, -0.03, -0.03, 1.25, 3.91, 5.44)" xlink:href="#radial-gradient"/><radialGradient id="radial-gradient-12" cx="359.59" cy="51.7" r="4.82" gradientTransform="matrix(1.07, 0.18, -0.14, 1.25, -30.84, -71.1)" xlink:href="#radial-gradient"/><radialGradient id="radial-gradient-13" cx="657.7" cy="50.35" r="3.94" gradientTransform="matrix(-1, -0.03, -0.03, 1, 1477.97, 22.85)" xlink:href="#radial-gradient"/><radialGradient id="radial-gradient-14" cx="635.39" cy="10.46" r="4.57" gradientTransform="matrix(-0.99, 0.1, 0.1, 0.99, 1468.85, -21.91)" xlink:href="#radial-gradient"/><clipPath id="clip-path-7"><path class="cls-1" d="M845.47,47.2a6.55,6.55,0,0,0-6.13-4.55c-4.91-.16-5.06,4.69-5.06,4.69s1.65,3.45,6.52,2.7C844.64,49.44,845.47,47.2,845.47,47.2Z"/></clipPath><radialGradient id="radial-gradient-15" cx="635.99" cy="49.5" r="6.22" gradientTransform="matrix(0, -1, -1, 0, 884.63, 683.58)" gradientUnits="userSpaceOnUse"><stop offset="0" stop-color="#6d828d"/><stop offset="0.82" stop-color="#405b6a"/></radialGradient><clipPath id="clip-path-8"><path class="cls-1" d="M825.4,44.21s-1-4.18-5.15-4.31S816,44.39,816,44.39a4.79,4.79,0,0,0,5.48,2.54C824.69,46.35,825.4,44.21,825.4,44.21Z"/></clipPath><radialGradient id="radial-gradient-16" cx="655.97" cy="46.89" r="5.45" gradientTransform="matrix(-1, -0.03, -0.03, 1, 1477.97, 22.85)" xlink:href="#radial-gradient-15"/></defs><title>Asset 1</title><g class="cls-2"><g id="Layer_2" data-name="Layer 2"><g id="Layer_2-2" data-name="Layer 2"><path class="cls-3" d="M147.17,361.7s-49.63-26-137.23,1.18C9.94,362.88,92.2,402.7,147.17,361.7Z"/><path class="cls-3" d="M419.18,362.3S369.55,334,282,361.15C282,361.15,364.21,403.3,419.18,362.3Z"/><path class="cls-3" d="M673.19,362.3S623.56,334,536,361.15C536,361.15,618.22,403.3,673.19,362.3Z"/><path class="cls-3" d="M916.85,361.7s-49.63-26-137.23,1.18C779.62,362.88,861.87,402.7,916.85,361.7Z"/><path class="cls-4" d="M51.16,351.38s-8.7,3.85-8.54,16.75c0,.88,1.05,1.18,1.88.88a21.21,21.21,0,0,0,11-13l.94-4,1.42-5.24-4.62,1.2-.66,2.55Z"/><path class="cls-4" d="M102.88,348.36s8.47,8.07,19.16,11.17c0,0,1.16,1.75-5.39,1.75-15.56,0-17-6.78-17-6.78v3.05H96.39v-8.33Z"/><path class="cls-5" d="M103.58,181.49a20.75,20.75,0,0,1-5.72,1.17c-3.85.26-7.79.08-11.66.06a95.77,95.77,0,0,1-17-1.8s-8.69,6.8-15.76,25.18C50.78,213,57,245.69,55.29,272.28c-.4,6.34-8.22,17-6.46,79.08l9.27,1a251.91,251.91,0,0,0,13.25-58.78c1.1-11.85,1.9-15.7,2.77-23.42,1-9.17,7.42-39.08,8.36-50.11a.42.42,0,0,1,.84,0c1.31,11.17,5,38.59,4.22,50.26-.38,5.95-2.8,10.91-1.15,24.17,2.45,19.7,7.53,54.88,7.53,54.88h11.89s1.4-55,.86-78.39C105.77,231.83,119.19,202,103.58,181.49Z"/><path class="cls-6" d="M86.26,210.83s9.09,5.49,24.61,5.49c1-14.61-.22-25.53-7.29-34.83a20.75,20.75,0,0,1-5.72,1.17c-3.85.26-7.79.08-11.66.06a95.77,95.77,0,0,1-17-1.8s-8.69,6.8-15.76,25.18a17.34,17.34,0,0,0-.4,7.14C54.5,213.8,72.47,218.24,86.26,210.83Z"/><path class="cls-7" d="M107.27,84.9S99.13,84.48,97,70.6c-7.63.3-16.14-4.42-22.48-8.51-.78,7.36-2.44,20.7-5.75,24.46,0,0,6.48,34.08,19.72,40.15S127.54,111.66,107.27,84.9Z"/><path class="cls-8" d="M85.5,78.49a19.15,19.15,0,0,1,13.31-1.28A27.16,27.16,0,0,1,97,70.6c-7.63.3-16.14-4.42-22.48-8.51-.78,7.36-2.44,20.7-5.75,24.46,0,0,.5,2.64,1.51,6.58h9.23C78.38,88,80.55,80.94,85.5,78.49Z"/><path class="cls-9" d="M99,80.34s-4.87,10.21-27.22,1.94L67.4,93,91.86,134.7l22.91-29.89Z"/><polygon class="cls-10" points="86.71 85.95 92.97 85.13 95.63 93.31 92.32 98.19 99.03 107.94 94.16 124.49 85.29 109.99 89.66 98.42 84.69 94.28 86.71 85.95"/><path class="cls-11" d="M71.44,79.52l-4.3,5.61L75.31,96l11,1.26,3-11.78A46.48,46.48,0,0,1,71.44,79.52Z"/><polygon class="cls-11" points="99.19 78.06 89.38 85.5 96.09 95.06 106.76 85.5 99.19 78.06"/><path class="cls-7" d="M190.83,117.93s5.94-3.23,9.4-7.13a57.36,57.36,0,0,0,4.59-6.3,33.82,33.82,0,0,1,5.88-6c1.25-.91,18.37-9,20.35-5.17,0,0,1.37,3.29-15.05,9,0,0,7.66,6,6.41,9.53a7.06,7.06,0,0,1-3.82,3.89c-4.8,1.66-9.87,1.82-11.72,3.14l-7.3,5.16S192.07,122.57,190.83,117.93Z"/><path class="cls-8" d="M209.34,115.25l-.47-.76-.89-.28c-2.88-.9-5.55-1.83-7.59-3.59l-.16.18c-3.46,3.9-9.4,7.13-9.4,7.13,1.24,4.64,8.74,6.2,8.74,6.2l7.3-5.16a12.39,12.39,0,0,1,4.25-1.34A20.48,20.48,0,0,1,209.34,115.25Z"/><path class="cls-8" d="M221.28,112.5c-3.78.89-7.06.48-9.9,3.68-.54.6-1.1,1.17-1.66,1.75a79.74,79.74,0,0,0,8.87-2.1,7.1,7.1,0,0,0,3.73-3.66A8.42,8.42,0,0,1,221.28,112.5Z"/><path class="cls-8" d="M226.75,92.5a28.77,28.77,0,0,0-8.61,4.66c-1.13.94-4.42,2.27-5.61,3.09s-2.61,2.92-3.81,3.86c.73-.24,3.69-2.13,4.55-2.19a4.91,4.91,0,0,1,1.92.29,4.84,4.84,0,0,1,1.26,0c15.93-5.64,14.6-8.87,14.6-8.87C230.5,92.31,228.85,92.15,226.75,92.5Z"/><polygon class="cls-11" points="192.21 116.21 197.21 111.34 205.4 120.85 199.81 125.09 192.21 116.21"/><path class="cls-12" d="M117.34,90.19s-2.21,33.65,4.59,49.29,20.79,32.37,27.59,28.51,51.16-42.42,51.16-42.42L192.59,115s-41.32,25.52-43.53,25c-1.78-.45-12.77-34.29-24.77-46.5Z"/><path class="cls-13" d="M147.19,156.13c-12.35-2.73-16.62-32.07-20-42.93-2-6.27-9.23,17.15-5.26,26.28,6.81,15.63,20.79,32.37,27.59,28.51,3.16-1.79,14.37-11,25.5-20.43,0,0,0-.11,0-.09C172.17,148.5,153.23,157.47,147.19,156.13Z"/><path class="cls-14" d="M104,83.38s19.7,9.52,20.31,10.06,7.9,33.15-3.53,49.61a61.79,61.79,0,0,0-10.87,40.08,125.83,125.83,0,0,0,4.88,24.38s-21.44,9.6-29.06-3.87c0,0,12-53,7.07-84.95C92.78,118.69,101.36,105.12,104,83.38Z"/><path class="cls-15" d="M113.79,156.24c-6.08,8.22-12.25,13.81-22.28,13.91-2.44,18.68-5.8,33.49-5.8,33.49,7.62,13.47,29.06,3.87,29.06,3.87a125.83,125.83,0,0,1-4.88-24.38A56.62,56.62,0,0,1,111,165.78,58.19,58.19,0,0,1,113.79,156.24Z"/><path class="cls-12" d="M92.78,116.76s9.53-25,11-34.23l6,3.67s2.37,9.87,2.1,11.07-6.35,3.4-6.35,3.4,6.66,2.49,6.83,2.85c1,2.11-14.87,19.86-18,23.45C94.27,127,91.49,124.3,92.78,116.76Z"/><path class="cls-16" d="M93.41,119.58c3.1,32.18-8.59,83.14-8.59,83.14a15.42,15.42,0,0,0,3.93,4.6c8.06-10.81,6.69-25,7.89-41.32C97.42,155.55,97.76,124.51,93.41,119.58Z"/><path class="cls-14" d="M67.4,84.79S46.17,93,37.15,96c0,0,13.69,21.66,10.66,41.65,0,0,17.79,18,16.68,35.83C63.79,184.73,49.38,204,49.38,204s30,18.35,41.06-4.86c4.93-10.39,6-70.39,3.83-77.83S67.73,85.52,67.4,84.79Z"/><path class="cls-15" d="M89.89,170.12c-8.46-.52-15.36-4.06-19.79-11.48-4.54-7.63-7.38-16-11.56-23.86a161.93,161.93,0,0,0-13.12-20.25c2.16,7,3.59,15.2,2.39,23.13,0,0,17.79,18,16.68,35.83C63.79,184.73,49.38,204,49.38,204s30,18.35,41.06-4.86c1.94-4.1,3.29-15.92,4.08-29.19A22.17,22.17,0,0,1,89.89,170.12Z"/><path class="cls-17" d="M92.43,132c0,1.07-.64,1.93-1.44,1.93s-1.45-.86-1.45-1.93A1.74,1.74,0,0,1,91,130.11C91.79,130.11,92.43,131,92.43,132Z"/><path class="cls-17" d="M92.43,158.06c0,1.06-.64,1.92-1.44,1.92a1.74,1.74,0,0,1-1.45-1.92c0-1.07.65-1.93,1.45-1.93S92.43,157,92.43,158.06Z"/><path class="cls-17" d="M90.43,185.8c0,1.06-.64,1.92-1.44,1.92a1.74,1.74,0,0,1-1.45-1.92c0-1.07.65-1.93,1.45-1.93S90.43,184.73,90.43,185.8Z"/><path class="cls-12" d="M68.48,83.38l-4,2.48s-1.51,9.6-.68,10.52,7.9,3.37,7.9,3.37-6.77,4.08-6.6,5.43c.24,1.88,27.33,18,29.91,25.47a24.31,24.31,0,0,0-1.11-12C90.79,109.62,80.65,97.27,68.48,83.38Z"/><polygon class="cls-18" points="41.99 143.45 50.66 192.74 84.82 186.12 78.22 136.51 41.99 143.45"/><path class="cls-19" d="M82.15,167.77l-.93-6.44a43.4,43.4,0,0,1-4.69,2.56c-2.63,1.32-4,2.82-1.85,5.49S79.67,170.12,82.15,167.77Z"/><polygon class="cls-20" points="43.51 144.54 50.54 190 82.57 183.97 76.37 138.25 43.51 144.54"/><path class="cls-21" d="M66.71,150.52c-3.55-2.08-5.39-4.67-7.22-8.31-.11-.23-.23-.44-.34-.66l-17,3.08,8,45.37,32.39-6-4.14-30.58A21.18,21.18,0,0,1,66.71,150.52Z"/><path class="cls-22" d="M80.1,157.6h0a6.74,6.74,0,0,0-5.57,1c-4.19,3-5.78,1.34-10,4.16-3.09,2.07-15.87-6.76-20.25-6.55l4.67,26.05a118.63,118.63,0,0,0,14.21-2.14c2.88-.72,10.25,1.84,13.17,1.29a51.84,51.84,0,0,0,7.53-2.13l-2.76-21.07C80.94,158.33,80.63,158.13,80.1,157.6Z"/><path class="cls-11" d="M49.92,150.52l-1.28.23-.26-.5-1.31.23L47,151l-1.23.22.7-4,1.4-.25Zm-2.59-2.33-.16,1.41.81-.15-.63-1.27Z"/><path class="cls-11" d="M50.37,150.44l-.67-3.76,1.21-.22.5,2.8,1.93-.34.17,1Z"/><path class="cls-11" d="M57.3,146.73l-1.15.2c-.06-.32-.43-.46-.81-.39a.79.79,0,0,0-.71,1l.07.35a.78.78,0,0,0,1,.71c.39-.06.68-.32.63-.62l-.86.15-.13-.76,2-.36.38,2.1-.63.11-.18-.35a2,2,0,0,1-1.27.68A1.72,1.72,0,0,1,53.43,148a1.83,1.83,0,0,1,1.7-2.32C56.19,145.45,57.13,145.78,57.3,146.73Z"/><path class="cls-11" d="M58.48,149l-.68-3.76,3.26-.58.16.9-2,.37.1.52,1.75-.31.15.86-1.75.31.1.58,2.09-.37.16.9Z"/><path class="cls-11" d="M64.26,144.08a1,1,0,0,1,1.2.74.83.83,0,0,1-.47,1v0a.87.87,0,0,1,.88.81,1,1,0,0,1-.91,1.2l-2.54.45-.67-3.76Zm-1.15,1.06.11.64.83-.15a.29.29,0,0,0,.23-.35v-.05a.29.29,0,0,0-.33-.24Zm.25,1.41.12.65.91-.17a.28.28,0,0,0,.23-.34v-.05a.28.28,0,0,0-.33-.25Z"/><path class="cls-11" d="M69.24,145.45l1.12,1.42-1.36.24-.91-1.25-.45.08.24,1.37-1.2.22L66,143.77l2.31-.41a1.16,1.16,0,0,1,1.47.92A1.1,1.1,0,0,1,69.24,145.45Zm-1.08-1.18-.79.14.12.69.79-.14a.35.35,0,0,0-.12-.69Z"/><path class="cls-11" d="M74.73,146.09l-1.28.23-.25-.5-1.32.23-.07.56-1.23.22.7-4,1.4-.25Zm-2.59-2.33L72,145.17l.81-.15-.63-1.27Z"/><rect class="cls-11" x="45.96" y="150.31" width="29.41" height="1" transform="translate(-24.19 12.16) rotate(-9.55)"/><path class="cls-7" d="M62.52,176.36s9,3.57,10.09,4.07c1.88.86,2.08.19,10.58-2.13a.75.75,0,0,0,.55-.74A3,3,0,0,0,83,175.4s3.32-1.25,2.29-2.61c-.48-.62-1.15-1.35-1.15-1.35s1.57-.65,1.61-1.76c0-.75-1.1-1.75-2.12-2.27,0,0,1.33-1.14,1.21-2-.07-.47-.52-1.7-3.17-3.24,0,0,.14,1,.26,1.79,0,0-.56,1.75-3.63,3.66-1.38.86-2.53.34-2-.83.67-1.53,1.59-.92,3.77-3,1.92-1.81,2.61-4.72,1.29-5.48-2.17-1.26-4.12,2.4-5.25,3.32-2.42,2-7,3.22-7.59,3.87-1,1.06-2.72,3.54-5.24,3.16Z"/><path class="cls-8" d="M78.88,167.19l-.62.41c-1.22.76-2.26.44-2.13-.45-.11,0-.2,0-.31,0a4.28,4.28,0,0,1-4.25-3.11,16,16,0,0,0-3.11,1.44c-1,1.06-2.72,3.54-5.24,3.16l-.7,7.69s9,3.57,10.09,4.07c1.34.61,1.84.44,5.12-.55,0-.06,0-.12,0-.17.55-3.49,1.91-6.89,1.5-10.51A17.82,17.82,0,0,0,78.88,167.19Z"/><path class="cls-7" d="M81.89,163.94s-.56,1.75-3.63,3.66c-1.38.86-2.53.34-2-.83.67-1.53,1.59-.92,3.77-3,1.92-1.81,2.61-4.72,1.29-5.48a1.76,1.76,0,0,0-1.5-.16A2.06,2.06,0,0,1,81,160.82a5.5,5.5,0,0,1-2.6,3c-1.8.92-3,2-3.2,3.32,1.23.58,2.19,2.54,1.4,3.7,1.32.69,1.61,2.26.68,3.72.63.57.28,2.67-.84,3.16,0,0,.23,2.19-2.49,2.19-1.11,0-8.64-3.72-11.35-4.09l-.06.58s9,3.57,10.09,4.07c1.88.86,4.7.36,10.58-2.13a.8.8,0,0,0,.55-.74A3,3,0,0,0,83,175.4s3.32-1.25,2.29-2.61c-.48-.62-1.15-1.35-1.15-1.35s1.57-.65,1.61-1.76c0-.75-1.1-1.75-2.12-2.27,0,0,1.33-1.14,1.21-2-.07-.47-.52-1.7-3.17-3.24C81.63,162.15,81.77,163.15,81.89,163.94Z"/><path class="cls-23" d="M84.11,167.71c-.17-.1-.33-.2-.49-.28-.55.11-4.57,2.14-5.83,2.76A30.17,30.17,0,0,0,84.11,167.71Z"/><path class="cls-23" d="M84.5,171.88c-.16-.1-.23-.35-.4-.44-.54.12-4.65,2.3-5.91,2.92A30.5,30.5,0,0,0,84.5,171.88Z"/><path class="cls-23" d="M83.3,175.8s-.16-.31-.31-.38c-.52.11-3.23,1.66-4.43,2.25A18.22,18.22,0,0,0,83.3,175.8Z"/><path class="cls-24" d="M78.12,161.35c-1-1.14,1.17-2.9,1.3-2.91s1.26.12,1.31,1.77a2.58,2.58,0,0,1-1.06,1.14A1.14,1.14,0,0,1,78.12,161.35Z"/><polygon class="cls-11" points="60.27 167.43 65.01 167.76 63.4 177.37 58.52 176.63 60.27 167.43"/><path class="cls-12" d="M47.81,137.66S56.51,110.45,37.15,96c0,0-15.32,16.91-26,37.27-3.73,7.09-15,29.38-9.76,34.15,5.59,5.09,15.12,8.18,58.16,10.25l1.82-11.1s-37.27-9-37.08-11.74S47.81,137.66,47.81,137.66Z"/><path class="cls-13" d="M24.13,154.63a1.2,1.2,0,0,0,.2,0c1.29-3.24,23.48-16.94,23.48-16.94s4.32-13.53.08-26.58C44.24,134.7,21.1,147,24.13,154.63Z"/><path class="cls-7" d="M94.17,73.66c5.35-.21,10.93-1.23,13.66-6.09,1.68-3,4.41-7.22,4.78-10.69a17.87,17.87,0,0,0-1-6.37c-2.34-3.09-6-19.33-6.49-22.23-.57-3.56-.36-8.66-1.87-12-2.21-4.83-7.43-3.82-12.66-5.47-3.85-1.21-9.72-2-12.87,1.08-1,1-1.75,2.4-2.91,3.17s-2.3.7-3.29,1.55c-2.19,1.88-4.19,4.21-4.69,7.14-.54,3.1-3.83,7.58-3.21,10.59C64.71,39.49,71.33,57.91,73.79,62c2.72,4.52,7.5,7.8,12.38,9.59A36,36,0,0,0,94.17,73.66Z"/><path class="cls-8" d="M77,50.77c-2.73-4.48-7.47-13.38-6.65-18.7C71.83,22.48,83.73,21.49,87,20.94c5.4-.92,12.45-4.38,17.79,3.5-.22-2.85-.45-5.89-1.47-8.12-2.21-4.83-7.43-3.82-12.66-5.47-3.85-1.21-9.72-2-12.87,1.08-1,1-1.75,2.4-2.91,3.17s-2.3.7-3.29,1.55c-2.19,1.88-4.19,4.21-4.69,7.14-.54,3.1-3.83,7.58-3.21,10.59.75,3.62,4.29,13.9,7.16,21,3.06,0,6.09.19,9.12.38C78.87,54.17,78,52.37,77,50.77Z"/><path class="cls-25" d="M68.66,16.38c4.1,4.59,5.28,6.61,9.78,4.27,2.29-1.19,10.73-3.26,13.25-3.72a15.39,15.39,0,0,1,7.14,0c2,.5,4.51,1.26,5.68,5,3.1-3.88.34-8.53-1.69-10.06-1.65-1.24-8.47-.62-10.57-.81-2.72-.25-5.26,3-7,4.69s-3.78-1.11-6.2-.09C75.92,17,71.58,18.29,68.66,16.38Z"/><path class="cls-26" d="M94.77,2.71C87.41-3,78.68,1.45,72.65,5.74c-2.68,1.91-9.93,11.84-11.53,14,4.78,4.87,13.43,4.28,19.25.76a58.22,58.22,0,0,0,7.74-5.91c1.8-1.55,4.35-2.77,6.89-2.1A12.38,12.38,0,0,1,104.72,24c2.86-.43,8-5.61,6.14-11.13C108.85,6.77,103.93,9.83,94.77,2.71Z"/><path class="cls-27" d="M92.43,1.27A13.17,13.17,0,0,0,83.68.39C83,1.93,81.79,3.92,82,5.45c.37,2.74.7,5.06-.07,7.76a7.37,7.37,0,0,1-1,2A6.16,6.16,0,0,0,80.11,20c0,.2.09.4.14.6h0a57.47,57.47,0,0,0,7.85-6c.18-.16.38-.31.58-.47a5.75,5.75,0,0,0,2.36-4.79V9.2A20.55,20.55,0,0,1,92.43,1.27Z"/><path class="cls-26" d="M68.34,38c-.09,2.59,6.31,12.48,9.31,15.1,2.51,2.17,6.39,8,.93,10.81-3.91,2-11.57-.46-14.93-2.76-5.41-3.7-7.27-7.37-7.82-12.32-.27-2.37.62-24.2,1.75-26.49C60.16,17.06,68.66,12,71.38,22,70.69,20.23,68.56,32.07,68.34,38Z"/><path class="cls-27" d="M77.65,53.06C74.87,50.64,69.18,42,68.43,38.65a13.54,13.54,0,0,1-3,.93A19.66,19.66,0,0,1,56,39c-.21,4.71-.29,8.81-.18,9.76.55,5,2.41,8.62,7.82,12.32,3.36,2.3,11,4.75,14.93,2.76C84,61.09,80.16,55.23,77.65,53.06Z"/><path class="cls-28" d="M76.65,57.88c-1.84-1.62-4.33-2-5.81-4.09a16.46,16.46,0,0,1-1-1.89c-.62,2-2.71,1.38-2.81,1.74-.56,2-1.53,2.51-.31,9.08,3.77,1.61,8.91,2.67,11.89,1.15a4.35,4.35,0,0,0,2.63-5.15A4.25,4.25,0,0,1,76.65,57.88Z"/><path class="cls-27" d="M109.67,46a28.93,28.93,0,0,1-12.46,4.41C93,50.9,86.84,50,82.57,50.29c-3.63.22-10.36,2.89-10.74,3.05C71.63,70.53,89.09,74.71,92.52,75c8,.68,19-2.24,22.3-10.4C117.4,58.3,113.35,51.08,109.67,46Z"/><path class="cls-29" d="M84.24,53.66s13.8,4.27,21.25-3.07c0,0,.89,10.82-8.64,11.12A13.07,13.07,0,0,1,84.24,53.66Z"/><path class="cls-11" d="M104.53,51.43c-6.23,5-15.87,3.32-19.15,2.54a9.53,9.53,0,0,1,.46,1.52c0,.11,0,.22,0,.33,1.63,1.51,4.68,3.23,10.12,3.06s7.76-2.86,8.75-5.13C104.71,53,104.64,52.19,104.53,51.43Z"/><path class="cls-7" d="M71.57,54.48S69.38,45.56,68.28,44s-5.23-4.64-7,1.39S64.94,57.32,71.57,54.48Z"/><path class="cls-30" d="M63.2,45.56s2.29-1.69,3.74-.5,4.88,8.32,2.49,8.57-4-.1-3.44-3.09.65-3.65,0-3.95S62.16,46.5,63.2,45.56Z"/><path class="cls-26" d="M85.22,23.13a1.06,1.06,0,0,1,1.21.89c.24,1.61.52,4.6-.72,4.8-1.7.28-7.45.27-12.89,4.27,0,0-1.24-2.28,1.71-5.47C77.11,24.83,82.41,23.52,85.22,23.13Z"/><path class="cls-26" d="M95.73,22.48a.68.68,0,0,0-.67.63c-.11,1.48-.17,5.05,1.87,4.66a40.28,40.28,0,0,1,9.74.42c.09,0-.69-3.18-4.89-4.75A21.62,21.62,0,0,0,95.73,22.48Z"/><path class="cls-31" d="M107.91,44c.16,1.68-1.77,3.26-4.32,3.51s-4.76-.9-4.93-2.58,1.76-3.26,4.31-3.52S107.74,42.31,107.91,44Z"/><path class="cls-32" d="M89.55,46.56C89.48,48.53,87,50,84,49.92s-5.33-1.78-5.26-3.74,2.54-3.47,5.51-3.36S89.62,44.6,89.55,46.56Z"/><g class="cls-33"><path class="cls-34" d="M77,38.57a6.56,6.56,0,0,1,6.28-4.36c4.91,0,4.9,4.85,4.9,4.85s-1.76,3.4-6.6,2.49C77.74,40.83,77,38.57,77,38.57Z"/><path class="cls-35" d="M85.86,38.49a3.66,3.66,0,1,1-3.65-3.89A3.77,3.77,0,0,1,85.86,38.49Z"/></g><path class="cls-36" d="M82.71,36.18a6.81,6.81,0,0,1,5.45,2.89h0S88.47,34,82.57,34A5.49,5.49,0,0,0,77,38.57v0A8.5,8.5,0,0,1,82.71,36.18Z"/><g class="cls-37"><path class="cls-34" d="M97.14,36.22s1.15-4.15,5.28-4.15,4.13,4.62,4.13,4.62A4.79,4.79,0,0,1,101,39.06C97.78,38.38,97.14,36.22,97.14,36.22Z"/><path class="cls-38" d="M104.27,36.28a3,3,0,1,1-3-3.27A3.15,3.15,0,0,1,104.27,36.28Z"/></g><path class="cls-36" d="M101.61,33.86c3.12,0,4.69,2.72,4.94,2.83,0,0,0-4.62-4.13-4.62s-5.28,4.15-5.28,4.15l0,.05A5.63,5.63,0,0,1,101.61,33.86Z"/><path class="cls-39" d="M106.59,30a57.55,57.55,0,0,0-10,1.54,1.15,1.15,0,0,0-.69,1.33c0,.22.08.48.13.75a5.17,5.17,0,0,0-5.67,1c-.43-1.45-.89-2.55-1.16-2.62a104.48,104.48,0,0,0-14.59,2.1,1.19,1.19,0,0,0-.87,1.48c.64,2.28,2.24,7.93,2.41,8.34.49,1.12,14.87-.44,15.29-2.51a17.05,17.05,0,0,0-.74-5.56,9.25,9.25,0,0,1,3.1-1.6,3.63,3.63,0,0,1,2.51.78c.47,2.36,1.09,5.26,1.17,5.56.33,1.14,10.69-.18,11-2.18.2-1.57-.74-6.23-1.38-8C106.85,30.06,106.69,30,106.59,30ZM90.08,40.86c-.33,1.67-12.34,2.9-12.73,2-.14-.33-1.31-5-1.82-6.77a1,1,0,0,1,.7-1.18,88.19,88.19,0,0,1,11.93-1.76C88.74,33.28,90.42,39.19,90.08,40.86ZM107.33,38c-.22,1.6-8.74,2.66-9,1.76-.09-.32-.86-4.67-1.16-6.37a.91.91,0,0,1,.54-1.06A46.59,46.59,0,0,1,106,31C106.38,31.14,107.54,36.4,107.33,38Z"/><path class="cls-40" d="M98.74,45.86c.2-.79-1.64-3.45-3.88-8.39a18.16,18.16,0,0,1-1.22-3,8,8,0,0,1,1.08,1.18c2.08,2.68,7,9.73,6,11.25-.65,1-1.22,1.69-5,2-1.38.11-2.79,0-3.26-.44-.15-.14.55-.28,1.89-.38C96.14,47.94,98.57,46.77,98.74,45.86Z"/><path class="cls-41" d="M183.78,147.22a4.11,4.11,0,0,0,4.9,3S273.26,29.81,272.16,28.71h0C271.25,28,183.78,147.22,183.78,147.22Z"/><path class="cls-7" d="M220.66,109.62a8.54,8.54,0,0,1-3.24,1.76,8.48,8.48,0,0,0-3.06,1.32c-.86.89-.94,2.56,3.87,1.62,3.35-.65,4.19-1.64,4.87-2.63s.83-4.9.83-4.9Z"/><path class="cls-8" d="M218.86,110.8a8.18,8.18,0,0,1-1.44.58,8.48,8.48,0,0,0-3.06,1.32c-.86.89-.94,2.56,3.87,1.62.41-.08.77-.17,1.1-.26A5.19,5.19,0,0,1,218.86,110.8Z"/><path class="cls-42" d="M214.08,113.41c-.09-.72,1.66-1.11,1.73-1.06a.94.94,0,0,1,.19,1.5,1.94,1.94,0,0,1-1.18.17C214.29,113.93,214.13,113.73,214.08,113.41Z"/><path class="cls-23" d="M220,111.06l3.68-1.49c.19-1.35.25-2.78.25-2.78l-3.27,2.83a8.54,8.54,0,0,1-3.24,1.76,10.49,10.49,0,0,0-2.88,1.16C216.25,111.85,218.18,111.79,220,111.06Z"/><path class="cls-7" d="M205.52,105a63.22,63.22,0,0,0,5.8-4c1.32-1.22,3.45.79,8.24-3.27a1,1,0,0,1,1.53.32c.34.84.33,2.29-1.42,4.57-2.18,2.84-5.74,2.75-6.54,3s-1.9,4.7-7.24,4.32C203.11,109.65,205.52,105,205.52,105Z"/><path class="cls-8" d="M221.09,98c0-.06-.08-.09-.11-.14a5.6,5.6,0,0,1-.47,1.56,6,6,0,0,1-5.87,3.22,15.28,15.28,0,0,1-1.84-.24c0,2.64-1.65,5.28-2.37,6.25,1.6-1.22,2.22-2.91,2.7-3.07.8-.26,4.36-.17,6.54-3C221.42,100.24,221.43,98.79,221.09,98Z"/><path class="cls-24" d="M217.21,99.32s2.13-1.61,2.26-1.61.69-.66.74,1a4.41,4.41,0,0,1-1.22,1.53C218.31,100.68,217.5,99.65,217.21,99.32Z"/><path class="cls-7" d="M218,107.62c-1.39.57-4.72,2.65-4.15,3.68.69,1.26,3,.42,5.41-.44s5.72-1.86,5.89-3a20.09,20.09,0,0,0-.12-3.64S218.33,107.47,218,107.62Z"/><path class="cls-8" d="M219.31,107v0l-1.34.64c-1.39.57-4.72,2.65-4.15,3.68.69,1.26,3,.42,5.41-.44l.24-.09A5.13,5.13,0,0,1,219.31,107Z"/><path class="cls-42" d="M214,111c-.23-.78,1.63-1.54,1.72-1.49a1.05,1.05,0,0,1,.49,1.62,2.26,2.26,0,0,1-1.27.41C214.32,111.56,214.1,111.37,214,111Z"/><path class="cls-23" d="M225.1,105.26c0-.61-.1-1.06-.1-1.06s-6.67,3.27-7,3.42a14,14,0,0,0-2.38,1.35C218.79,108.37,221.7,106.48,225.1,105.26Z"/><path class="cls-7" d="M220.1,102.91a13.39,13.39,0,0,1-2.54,1.53c-1.87.88-5.5,2.79-4.57,4.11.61.86,1.52.77,3.3,0,1.51-.64,3.4-1.51,3.84-1.77.84-.5,5.84-2,5.84-3.41,0-1.77.34-4.2-2.61-2.56A28.19,28.19,0,0,0,220.1,102.91Z"/><path class="cls-8" d="M218.35,104a8.56,8.56,0,0,1-.79.42c-1.87.88-5.5,2.79-4.57,4.11.61.86,1.52.77,3.3,0,1.28-.55,2.85-1.26,3.55-1.62A4.78,4.78,0,0,1,218.35,104Z"/><path class="cls-42" d="M213.05,108.25c-.27-.87,1.8-1.71,1.9-1.66a1.18,1.18,0,0,1,.55,1.81,2.51,2.51,0,0,1-1.41.45C213.41,108.85,213.17,108.64,213.05,108.25Z"/><path class="cls-43" d="M84.41,37.65a.49.49,0,0,1-.52.47.47.47,0,1,1,0-.94A.49.49,0,0,1,84.41,37.65Z"/><path class="cls-43" d="M102.88,35.48a.52.52,0,1,1-.52-.47A.49.49,0,0,1,102.88,35.48Z"/><path class="cls-44" d="M532.38,79.82s-1.85-5.46.8-6,4.13,6.87,4.13,6.87S537.25,84.29,532.38,79.82Z"/><path class="cls-45" d="M528.08,106.73s9,6.81,17.38-1.62C545.46,105.11,534.44,103.47,528.08,106.73Z"/><path class="cls-7" d="M542.38,111.88s-3.48-15.73-2.84-17.26-7.33,2-7.33,2,.94,12.89.39,15.09S542.38,111.88,542.38,111.88Z"/><path class="cls-8" d="M532.6,111.72c.34-1.35.11-6.75-.11-10.71l.18.12a9.11,9.11,0,0,0,4.7,1.4c.3,3.33.6,6.66,1,10C535.52,112.84,532.29,113,532.6,111.72Z"/><path class="cls-4" d="M595.91,353.47s-9,7.86-19.41,10.87c0,0-1.12,1.7,5.23,1.7,15.12,0,17.35-6.6,17.35-6.6v3l3.13-.56v-8.37Z"/><path class="cls-4" d="M615.76,353.11A139.94,139.94,0,0,1,604.32,366c-2.46,2.51-.52,4,3,2.48,11-4.61,13.38-9.08,13.38-9.08v2.33l3.14-.58v-7.72Z"/><path class="cls-14" d="M624.93,50c-1.39.35-6,3.67-9.45,5a66.16,66.16,0,0,1,2.67-9.43c2.17-5.35-1.86-16.48-4.09-18.85s3.57-.38,5.14-1.5l3.15-3.38s9.47-.75,7.22,7.5C628.16,34.47,624.84,45,624.93,50Z"/><path class="cls-7" d="M590.89,87.54s3.11-6.64,4.24-20.23c7.42-.21,14-.82,19.84-5.2,1.24,7.08,4.19,22.93,7.66,26.35,0,0-4,33.45-16.46,40.2S573,114.82,590.89,87.54Z"/><path class="cls-8" d="M603.86,82.62C607.75,81,611.71,79,616,79.26a10.58,10.58,0,0,1,2.75.47c-1.72-6-3.07-13.37-3.82-17.62-5.87,4.38-12.42,5-19.84,5.2-.86,10.44-2.9,16.76-3.79,19.14C595.78,85.85,599.58,84.37,603.86,82.62Z"/><path class="cls-7" d="M577.46,52.62a116.58,116.58,0,0,0,2.33-13.78c.31-3.49-.23-8.42,1-11.71,1.83-4.83,7-4.19,11.91-6.14,3.64-1.43,9.28-2.56,12.53.19,1,.86,1.86,2.21,3,2.88s2.27.52,3.28,1.28c2.25,1.68,4.34,3.81,5,6.61.73,3,4.22,7.09,3.81,10.05-.69,5-5.88,23.31-8,27.43s-14.84,13.68-28,9.4C574,75.44,577,54.76,577.46,52.62Z"/><path class="cls-8" d="M597.37,31C591.28,31,587.18,27,580.15,30a12.66,12.66,0,0,1,.65-2.82c1.83-4.83,7-4.19,11.91-6.14,3.64-1.43,9.28-2.56,12.53.19,1,.86,1.86,2.21,3,2.88s2.27.52,3.28,1.28c2.25,1.68,4.34,3.81,5,6.61.73,3,4.22,7.09,3.81,10.05-.49,3.56-2.86,12.55-5.18,19.67-3,.2-6.08-2.38-5.24-4,2.35-4.52,5.09-10.72,3.94-15.81C611.85,32.66,605.42,31.17,597.37,31Z"/><path class="cls-7" d="M615.21,61.67s1.68-9.62,2.73-11.4,5.22-5.29,7.56,1S622.45,64.2,615.21,61.67Z"/><path class="cls-30" d="M623.45,51.6s-2.56-1.63-4-.26-4.58,9.18-2,9.27,4.21-.39,3.42-3.52-1-3.84-.29-4.2S624.62,52.51,623.45,51.6Z"/><path class="cls-46" d="M578.16,54.25c-.06,1.64,1.92,3,4.41,3.12s4.56-1.19,4.61-2.83-1.93-3-4.42-3.12S578.21,52.61,578.16,54.25Z"/><path class="cls-47" d="M596.51,55.94c.2,1.89,2.69,3.19,5.57,2.89s5-2.09,4.85-4-2.69-3.19-5.57-2.89S596.31,54,596.51,55.94Z"/><g class="cls-48"><path class="cls-34" d="M608.64,48s-.66-3.69-5.41-4.16-5.44,3.56-5.44,3.56,1.37,3.46,6.14,3C607.69,50.07,608.64,48,608.64,48Z"/><path class="cls-49" d="M600,47.19a3.64,3.64,0,1,0,4-3.4A3.7,3.7,0,0,0,600,47.19Z"/></g><path class="cls-36" d="M603.33,45.1a6.61,6.61,0,0,0-5.54,2.27h0s.2-4.7,5.87-3.94,5,4.54,5,4.54v0A8.25,8.25,0,0,0,603.33,45.1Z"/><g class="cls-50"><path class="cls-34" d="M588,45.91a4.23,4.23,0,0,0-4.29-3.7,4.68,4.68,0,0,0-4.86,3.63,4.65,4.65,0,0,0,5.25,2.61C587.3,48,588,45.91,588,45.91Z"/><path class="cls-51" d="M581.13,45.57a2.93,2.93,0,1,0,3.1-3A3.05,3.05,0,0,0,581.13,45.57Z"/></g><path class="cls-36" d="M583.84,43.37c-3-.18-4.7,2.37-5,2.46,0,0,.88-4.35,4.86-4,5.58.5,4.29,4.08,4.29,4.08l0,.05A5.46,5.46,0,0,0,583.84,43.37Z"/><path class="cls-40" d="M587.75,56.25c-.25-.75,1.52-4.26,3.36-9.19a18,18,0,0,0,1-3,7.12,7.12,0,0,0-1,1.22C589.28,48,584.88,56,585.91,57.37c.69.94,1.67,1.12,5.35,1.17a4.08,4.08,0,0,0,2.91-1c.14-.15-.55-.23-1.86-.24C590.57,57.29,588,57.12,587.75,56.25Z"/><path class="cls-14" d="M615.51,60l-3.87-1.16s5.56-11.74,4.47-18.58-7.16-9.82.13-14.78,6.54-3.73,6.54-3.73,8.19,4.74.4,26.23C623.18,48,617.7,45.72,615.51,60Z"/><path class="cls-14" d="M587.18,10.54c1.92-.89,4.8-.2,6.85-.08a42,42,0,0,0,11-.87c18.25-3.76,18.43,12.2,18.43,12.2s-9.25,8.16-10.6,7.75c-6.36-1.91-13,2.17-20-1.91-4.32-2.5-9.92-5-12.35.73C580.47,28.32,566.62,20.14,587.18,10.54Z"/><path class="cls-14" d="M600.75,34l.67.1.14,1.92.84-1.75c2.73.46,6.29,1.3,8.5,3.38,3.06,2.89,2,5.18,2,5.18-5.54-3.51-11.86-3.36-13.53-3.51C598.17,39.15,599,33.68,600.75,34Z"/><path class="cls-14" d="M582.62,33.77a16.13,16.13,0,0,1,2.69-.68l.68,1.8.25-1.94a18.24,18.24,0,0,1,2.82-.14,1.11,1.11,0,0,1,.83.83c.06,1.44-.68,4.9-2.53,4.45a26.35,26.35,0,0,0-7.84,0C579.44,38.06,578.75,35.16,582.62,33.77Z"/><path class="cls-52" d="M603.54,40.23a7.78,7.78,0,0,0-7.15,4.15c-1.54-1.49-3-2.13-4.35-1.91a3.51,3.51,0,0,0-1.9,1,7.14,7.14,0,0,0-7-5c-4,0-7.26,2.93-7.26,6.53s3.26,6.54,7.26,6.54,7.15-2.84,7.24-6.38a2.92,2.92,0,0,1,1.88-1.55c1-.18,2.34.52,3.74,2a5.8,5.8,0,0,0-.12,1.11c0,3.61,3.45,6.54,7.69,6.54s7.7-2.93,7.7-6.54S607.78,40.23,603.54,40.23ZM583.11,50.39c-3.34,0-6.06-2.39-6.06-5.34s2.72-5.33,6.06-5.33,6,2.39,6,5.33S586.44,50.39,583.11,50.39Zm20.43,1.72c-3.58,0-6.49-2.39-6.49-5.34s2.91-5.34,6.49-5.34,6.5,2.4,6.5,5.34S607.12,52.11,603.54,52.11Z"/><path class="cls-53" d="M591.55,197.75a6.79,6.79,0,0,0,1.91-1.48H615s-7,59.9-7.36,78.56c-.48,23.51-1.53,31.53-2.88,79.55H591.39S586.24,297,584,275.14c-1.77-17.1-4.16-55.93-6.11-71.32C582.31,201.56,587.21,200,591.55,197.75Z"/><path class="cls-26" d="M620.26,196.27s11.86-8.93,13.72,6.8c2.09,17.58-6,32.54-5.45,69.94.32,24-.14,40.85-3.87,81.37H611.78s-4.58-44.07-7.49-76.74c-2.4-26.91-2.07-81-2.07-81Z"/><path class="cls-54" d="M634,203.07c-1.86-15.73-13.72-6.8-13.72-6.8l-5.25.11v-.11H593.46a6.79,6.79,0,0,1-1.91,1.48c-4.34,2.29-9.24,3.81-13.67,6.07.56,4.41,1.16,10.77,1.76,18,0,0,7.71.11,11,.18,3,.07,9.21-2.81,11.59-5.09A43.5,43.5,0,0,0,617,221.29c3.07.27,13.18.45,16.25.45C634.19,215.12,634.72,209.24,634,203.07Z"/><path class="cls-9" d="M622.63,88.46l8.59,6.08S612.34,135,601.1,138.42,583.93,92,583.93,92l8.33-3.58s1.18-1.92,13.21,0C615.89,90.13,620.78,90.55,622.63,88.46Z"/><path class="cls-26" d="M610.06,95.21,606.31,88h-3.38c-.7.28-.31,2.06-1.22,2.06-.25,0-.49,0-.73,0l-3.29,3.56,4.65,5.16-4.44,7.73,12.37,1L605.11,99Z"/><path class="cls-10" d="M622.93,88.68l8.29,5.86S612.34,135,601.1,138.42,583.93,92,583.93,92l6-2.89s4.33,12.52,13.38,13C613.81,102.75,621.08,90.76,622.93,88.68Z"/><path class="cls-34" d="M592.13,84.12l-2.53,5.11,9.31,8.15L604,88A52.56,52.56,0,0,1,592.13,84.12Z"/><path class="cls-34" d="M619.35,81.59l3.74,7.2-14.44,9.3L604,88s5.06.17,8.13-1.27A26.44,26.44,0,0,0,619.35,81.59Z"/><path class="cls-55" d="M589.6,89.23s10.91,43.56,16.35,50.06c0,0-3.46,41.17-2.67,52.17s0,33.5-32.31,19.83c0,0,9.92-33.83,6.59-56.66S573.3,110,571,97.7C571,97.7,582.64,92.34,589.6,89.23Z"/><path class="cls-56" d="M603.16,186.67c-2.75-.13-8.9,1.45-11.33,0-7.33-4.49-7.22-14.89-9.37-22.87a105.12,105.12,0,0,1-2.9-14.5c-.27-2.16-2.2-10.8-2.65-14.44-.6-4.86-2-2.15-1.41,3.44.58,5.31,1.25,10.81,2.06,16.37,3.33,22.83-6.59,56.66-6.59,56.66,32.33,13.67,33.09-8.83,32.31-19.83C603.19,190.22,603.15,188.58,603.16,186.67Z"/><path class="cls-57" d="M606,139.29c-1.56-1.86-3.58-6.79-5.66-12.87a22.25,22.25,0,0,0-2.45,1.91c-3.05,2.73-2.55,24.95-2.78,45.34-.29,26.09,2.55,38.93,2.55,38.93,6.12-4.74,6-16.06,5.67-21.14C602.49,180.46,606,139.29,606,139.29Z"/><path class="cls-55" d="M623.09,88.79s25.3,7.56,29.63,12.22c0,0-23.33,35.36-20,62.49s9.06,40.17,10.63,46.67c0,0-40,12.75-43.69-3.75s-3.16-78-3.16-78S611.24,124,623.09,88.79Z"/><path class="cls-56" d="M632.72,163.5c-1.57-12.81,2.8-27.45,7.85-39.33a9.82,9.82,0,0,0-10.19,4.76c-3.61,6-6.21,17.11-7.29,24-1.59,10.1-.28,29.15-1.89,32.23-3.18,6.07-17.56,2.35-23.8.69.71,8.29,1.28,15.51,2.09,19.76,3.43,17.9,43.86,4.53,43.86,4.53C641.78,203.67,636.06,190.63,632.72,163.5Z"/><path class="cls-55" d="M572.39,97.05c-3.45,1-6.2,6.07-8.09,9.24-9.71,16.27-14.64,42.72-17.48,57.83-1.78,9.44,1.75,9.55,1.75,9.55s10.9-6.62,27.88-34.38A115.91,115.91,0,0,0,572.39,97.05Z"/><path class="cls-56" d="M555.87,164.7c-.38,1.3-.77,2.54-1.21,3.72,4.85-4.87,12.39-13.75,21.79-29.13a90.05,90.05,0,0,0,.46-10.18C575.49,130.86,557.45,159.31,555.87,164.7Z"/><path class="cls-55" d="M528.08,106.83s7.65,2.11,17.38-1.63c0,0,5.48,20.59,5.56,42.19.09,25.27-1.21,26.19-3.48,26.65C535.23,176.54,528.08,106.83,528.08,106.83Z"/><path class="cls-56" d="M538.47,148.94c-1.91-12.76-4.56-28.85-6.45-41.57a21.06,21.06,0,0,1-3.94-.54s7.15,69.71,19.46,67.21a2.23,2.23,0,0,0,1.75-1.15C545.18,171,539.29,154.42,538.47,148.94Z"/><path class="cls-7" d="M546.37,85.51a8,8,0,0,1-1,.07,6.64,6.64,0,0,1-3-.67c.09.42.19.85.3,1.3,0,0,.82,4-2.41,5.36s-1.28-8-2.32-10.35-6.76-2-7.74,1-1,10.69.42,13.26,2.76,8,6.37,8.52a3.88,3.88,0,0,0,3.57-1.37,44,44,0,0,0,4.88-6c1.16-1.86,0-7.22.65-9.66A7.27,7.27,0,0,0,546.37,85.51Z"/><path class="cls-7" d="M537,104s-1.56,2.69-6.4-1.22c0,0-5-11.23-6.15-13.77s4.95-5.44,4.95-5.44,6.94,4.68,7.74,12S537,104,537,104Z"/><path class="cls-58" d="M535.92,95.08a8.81,8.81,0,0,0,4.17-1.65c-.09-.44-.21-1.05-.37-1.73-1.34,0-1.44-2.53-1.42-5.16a9.31,9.31,0,0,0-1.83-3.5c-2.41-2.13-5.29-.66-6.49.12a29,29,0,0,0-.44,6.19c0,.09,0,.18.05.27a9.47,9.47,0,0,0,1.84,3.7A6.57,6.57,0,0,0,535.92,95.08Z"/><path class="cls-7" d="M529.72,80.72l-.56-1.51s0-3.08,1.66-3.12S532.48,82,532.48,82Z"/><path class="cls-8" d="M529.72,80.72l-.56-1.51s0-3.08,1.66-3.12S532.48,82,532.48,82Z"/><path class="cls-7" d="M529.51,77.87s6.78,7.25,7.59,5.68c.48-.91-1.32-4.78-5.37-7.8C530.41,74.77,528.4,76.92,529.51,77.87Z"/><path class="cls-7" d="M526.51,84.1s.65-3.74.75-4.34,5,5.72,5,5.72S526.56,83.68,526.51,84.1Z"/><path class="cls-8" d="M526.51,84.1s.65-3.74.75-4.34,5,5.72,5,5.72S526.56,83.68,526.51,84.1Z"/><path class="cls-7" d="M535.48,86s-1-3.61-1.66-3.89-4.19-3.8-4.77-3.81-2.59.8-1.94,2.33,3.35,2.88,4.2,3.06,1.77,5.14,3.51,4.61S535.48,86,535.48,86Z"/><path class="cls-8" d="M535.48,86A16.63,16.63,0,0,0,534,82.29a5.9,5.9,0,0,1-1.76,2.94c.64,1.47,1.43,3.41,2.55,3.07C536.57,87.78,535.48,86,535.48,86Z"/><path class="cls-59" d="M534.23,87.92s-.7-1.82.79-1.73c.33,0,.6,1,.6,1S536.07,88.07,534.23,87.92Z"/><path class="cls-7" d="M524.31,88.33s.2-4.36,1.8-4.63a14.28,14.28,0,0,1,4.92.2c.5.25,2.91,4.34,4,5s-3.34,3.23-5.38-1.88c0,0-1.85.4-2.16.18s1.17,1.54,1.21,1.87S524.69,90.24,524.31,88.33Z"/><g class="cls-60"><path class="cls-61" d="M537,78.81l.1-.29c-.16-.21-.75-.82-.9-1s-1.41.26-1.49.14c-.12.49-2-1.49-2.24-1,0,.51,0,1.34,1.94,3,.81.7-.26,2.09-.43,2.52,1.45,1.2,2.78,2,3.11,1.39A4.31,4.31,0,0,0,537,78.81Z"/></g><path class="cls-8" d="M537.16,95.68A25.44,25.44,0,0,0,535,93.33a30,30,0,0,1,2.06,3.85,8.64,8.64,0,0,1-.15,6.93L537,104S540.18,101.42,537.16,95.68Z"/><path class="cls-8" d="M544.6,87.46a3.56,3.56,0,0,0,.87-1.27,6.49,6.49,0,0,1-2.51.48c-.15,0-.29,0-.44,0a5.31,5.31,0,0,1-.85,3.61,6.49,6.49,0,0,1-.22,1.1,5.56,5.56,0,0,0,1.22-1.28c1-1.6-.75,4.2-.75,4.2a7.19,7.19,0,0,1-1.86,1.46,3.54,3.54,0,0,1-1.21,2.62l-.66.56s0,0,0,.06a1.78,1.78,0,0,1,0,.42,4.78,4.78,0,0,1,0,1.73,8.12,8.12,0,0,1-.46,1.74,4,4,0,0,1-.45.75,4.81,4.81,0,0,0,3.18-1.44c1.8-1.8,2.92-4.89,3.57-6.13,1.1-2.12-.3-3.75.09-7.53A1.56,1.56,0,0,1,544.6,87.46Z"/><path class="cls-8" d="M535.05,88.9a3.73,3.73,0,0,1-.8-.75c-.2.33-.65.59-1.67.44a4,4,0,0,1-3-2.49s-2,.49-2.82-.09c0,0,.38,1.77,0,2.38-.21.33.7.19,1.56,0-.43-.6-1-1.33-.81-1.18s2.16-.18,2.16-.18C531.71,92.13,536.16,89.57,535.05,88.9Z"/><path class="cls-7" d="M613.73,183.29s-8.25-3.51-9.44-2.75-7,4.19-8.25,4.82,20.63,5.5,17.69-1.82Z"/><path class="cls-8" d="M613.73,183.29s-8.25-3.51-9.44-2.75-7,4.19-8.25,4.82S616.67,190.61,613.73,183.29Z"/><path class="cls-62" d="M545.48,119.46h0c-.4.34,75.78,92.32,75.78,92.32h0a3.37,3.37,0,0,0,3.31-2.74l0-.17S545.88,119.13,545.48,119.46Z"/><path class="cls-63" d="M615,197.94l-16.08-18.3a19.64,19.64,0,0,1-2.9,1.66l15.26,18.46A27.79,27.79,0,0,1,615,197.94Z"/><path class="cls-7" d="M631.43,190.92a8.73,8.73,0,0,1-.76-1.57,29.79,29.79,0,0,1-1-3.71c-.05-.2-.08-.34-.1-.46l0-.1c-3.67.29-7.19.42-8.36.11-1.8-.48-3.53-1.28-5.3-1.87-5.33-1.79-7-1.25-12.29-.18-2.78.56-8.9,1.68-9.81,2.38-.76.58-.63,3.72,2.36,4-1,.1-1.06,1.26-.37,2.16a6.92,6.92,0,0,0,2.37,2c-.53.53.09,1.64.72,2.36a3.1,3.1,0,0,0,2.6,1c-1.24.59-.21,1.85,1.26,2.17s7.67-2,13-3.93c1.84-.68,4.56-3.28,6.44-3.94.53-.19,4.74-.22,9.31-.3Z"/><path class="cls-8" d="M609,194.93a4.58,4.58,0,0,1-2.32-3.76,4.68,4.68,0,0,1-2.19-4,4.94,4.94,0,0,1-1.3-4c-2.95.58-8.51,1.62-9.37,2.29s-.63,3.72,2.36,4c-1,.1-1.06,1.26-.37,2.16a6.92,6.92,0,0,0,2.37,2c-.53.53.09,1.64.72,2.36a3.1,3.1,0,0,0,2.6,1c-1.24.59-.21,1.85,1.26,2.17,1,.22,4.1-.74,7.65-2A4.5,4.5,0,0,1,609,194.93Z"/><path class="cls-8" d="M631.43,190.92a8.73,8.73,0,0,1-.76-1.57c-.2-.57-.37-1.15-.52-1.73-3.28.25-6.57.49-7.85.64-2.45.27-1.68,2.72-2.32,4.33l.71-.46a6.25,6.25,0,0,1,1.47-.76h0c.39-.15,4.55-.21,9.3-.32C631.46,191,631.44,191,631.43,190.92Z"/><path class="cls-23" d="M604,187.55c.31.27-4.65,2.22-6.88,2.37-.27,0-1.41-.21-1.52-.47C595.57,189.45,601.48,188.16,604,187.55Z"/><path class="cls-23" d="M607.22,191.31c.23.28-4.33,2.35-8.35,2.73a1.74,1.74,0,0,1-1-.52C597.74,193.27,605.47,192.05,607.22,191.31Z"/><path class="cls-23" d="M609.65,194.55c.14.27-3.25,2.34-6.56,2.73l-1.48.15a.64.64,0,0,1-.65-.38C600.87,196.82,608,195.07,609.65,194.55Z"/><path class="cls-55" d="M652.72,101a214.13,214.13,0,0,1,19.87,64.28c2.75,20-48.48,29.88-48.48,29.88s-2.59-10.83-4.13-13.63c0,0,32-14,31.81-17.82s-16.22-26.79-16.22-26.79S637.89,111.18,652.72,101Z"/><path class="cls-56" d="M638.23,123.92a73.77,73.77,0,0,0-2.66,13s16.06,23,16.22,26.79a.36.36,0,0,1,0,.1,3.54,3.54,0,0,0,2.63-1.66C655.77,159.06,639.12,125.05,638.23,123.92Z"/><polygon class="cls-64" points="541.77 97.9 542.31 75.88 541.77 75.21 535.62 75.21 535.62 97.9 541.77 97.9"/><polygon class="cls-65" points="535.62 94.89 535.62 104.57 535.62 105.93 535.62 114.58 536.16 115.25 541.77 114.58 541.77 105.93 541.77 104.57 541.77 94.57 536.16 95.57 535.62 94.89"/><rect class="cls-66" x="536.16" y="75.88" width="6.15" height="22.35"/><rect class="cls-67" x="536.16" y="95.57" width="6.15" height="19.69"/><path class="cls-34" d="M540.74,111.72h-.85L538.63,110v1.75h-.89v-3.6h.84l1.27,1.77v-1.77h.89Z"/><path class="cls-34" d="M540.55,80.52v.07h-.91v0a.35.35,0,0,0-.39-.37c-.27,0-.4.11-.4.24,0,.53,1.76.11,1.78,1.45a1.17,1.17,0,0,1-1.33,1.25c-.84,0-1.48-.25-1.48-1.28h.91c0,.39.19.46.49.46s.42,0,.42-.25c0-.51-1.78-.1-1.78-1.5,0-.84.64-1.16,1.36-1.16S540.54,79.75,540.55,80.52Z"/><path class="cls-68" d="M537.24,75.21h-1.62v6.3A6.71,6.71,0,0,0,537.24,75.21Z"/><path class="cls-68" d="M539.71,81.51a8.92,8.92,0,0,0,2.6,6.74v-11C540.52,77.68,539.73,80,539.71,81.51Z"/><path class="cls-7" d="M542.77,87.65A6,6,0,0,1,545.31,90a13.26,13.26,0,0,1,.8-3,4.17,4.17,0,0,0,.07-3c-.21-.57-1.19-2.06-1.42-2.74-.75-2.27,0-2.83-.77-3.31-1.66-1-3,1.27-1.3,8.3A6.68,6.68,0,0,1,542.77,87.65Z"/><path class="cls-8" d="M542.25,89.17c.78.5,1.42,2.36,1.69,2.58a23.93,23.93,0,0,1,0-2.5,13.27,13.27,0,0,0-1.15-6.42,4,4,0,0,1-.19-.52,3.91,3.91,0,0,1,1.1-4.16c-1.6-1-3,1.25-1.29,8.08A6.23,6.23,0,0,1,542.25,89.17Z"/><path class="cls-7" d="M535.8,74.84c-.79-1.65-1.64-1.48-2.62-1.12s-1.25.77-1.19,1.25c.06.71,1.11,4.21,3.17,3.63S535.8,74.84,535.8,74.84Z"/><path class="cls-8" d="M533.73,77.14a9.14,9.14,0,0,1-1.09-.21c.52,1,1.36,2,2.52,1.67s1.14-1.49,1-2.45A3.58,3.58,0,0,1,533.73,77.14Z"/><path class="cls-24" d="M544.39,78.66a1.61,1.61,0,0,0-1.19,1.87,1.55,1.55,0,0,0,1.87,1.31A7.73,7.73,0,0,1,544.39,78.66Z"/><path class="cls-24" d="M533.05,76.8s-.24-.52,1.21-1,1.56.12,1.56.12A2.54,2.54,0,0,1,533.05,76.8Z"/><path class="cls-59" d="M533.54,89.45s-1.12-1.26.44-1.26c.33,0,.83.76.83.76S535,89.83,533.54,89.45Z"/><path class="cls-29" d="M601.68,62.26S589.27,66.87,582.22,60c0,0-.42,10.53,8.27,10.49S601.68,62.26,601.68,62.26Z"/><path class="cls-11" d="M583.12,60.78c5.86,4.68,14.58,2.68,17.53,1.81-.17.57-.54,1.5-.54,1.5-1.43,1.52-4,3-9,3s-7.09-2.22-8.07-4.39C583.08,62.7,583.06,61.53,583.12,60.78Z"/><ellipse class="cls-69" cx="600.39" cy="139.13" rx="1.48" ry="2.16"/><path class="cls-69" d="M603.37,165.07c.11,1.19-.45,2.22-1.27,2.29s-1.56-.82-1.67-2,.45-2.22,1.26-2.3S603.25,163.88,603.37,165.07Z"/><path class="cls-70" d="M589.78,88.86s9.26,33,11,39c0,0-17.94-14.16-15.27-19a9.55,9.55,0,0,1,2.92-2.63s-7-6.4-5.38-9.66A22.21,22.21,0,0,1,589.78,88.86Z"/><path class="cls-70" d="M596.5,129.11s16.6-8.69,26.59-40.32c0,0,8.13,5.75,6.64,10.69-.46,1.54-4,5.94-8,6.69,0,0,3.91,3.42.9,7.46S602,130.17,596.5,129.11Z"/><path class="cls-43" d="M602.42,46.69a.5.5,0,0,1-.52.47.47.47,0,1,1,0-.94A.5.5,0,0,1,602.42,46.69Z"/><path class="cls-43" d="M583.41,45a.44.44,0,0,1-.46.42.43.43,0,1,1,0-.85A.44.44,0,0,1,583.41,45Z"/><path class="cls-7" d="M427.37,127.06s5.05-1.15,7.8-2.94c1.21-.78,2.19-2.31,6.25-4.12a10.5,10.5,0,0,0,3.46-1.55c.23-.2,2.43-1.87,3.4-.72a.93.93,0,0,1,.13.92c-.34,1.1-1.58,1.7-3.79,2.85-5,2.63-3.36,2.78-3.18,2.84a59,59,0,0,0,8.38-.61c1.32-.32,5.31-2.77,7.13-3.55,1.56-.66,3,1.36-3.84,4.55,0,0,6.41-3.88,7.36-3.12.59.47.8,2.12-6.5,5.2,0,0,5.95-2.93,6.79-2.1.63.63-1,2.58-6.83,4.23l3.51-1.12c.45-.15,1-.15,1.15.08.26.55-.07,1.28-1.69,2.12a20.92,20.92,0,0,1-4.76,1.5c-2.26.36-4.47.69-6.37.84s-4.94.43-6.41.5-5.73-1-6.73-.9a13.24,13.24,0,0,0-3.19,1.36Z"/><path class="cls-8" d="M438,130.73c-2.58-1.8-2.18-3.79-3.1-6.44a31.65,31.65,0,0,1-7.52,2.77l2.07,6.26a13.24,13.24,0,0,1,3.19-1.36c1-.1,5.26,1,6.73.9,1-.05,2.65-.19,4.22-.32C442.38,132.05,439.07,131.48,438,130.73Z"/><path class="cls-8" d="M456.64,122.64s-3,1.37-3.65,1.71c-.39.22-3.08,1.35-3.08,1.35s2.78-.63,3.36-.88A25.26,25.26,0,0,0,456.64,122.64Z"/><path class="cls-8" d="M457.24,125.27l-3.79,1.16-2.68.83a17.79,17.79,0,0,0,2.86-.31C454.26,126.73,457.24,125.27,457.24,125.27Z"/><path class="cls-8" d="M457,127.88l-3.57.93-2.57.58s1.78-.07,2.45-.14C453.83,129.2,457,127.88,457,127.88Z"/><path class="cls-8" d="M441.82,128.15a6.75,6.75,0,0,1,3.22.6,15.87,15.87,0,0,1,2.56,1.56c-.55-.28-.69-.2-4.58-1.44-1.61-.51-3.84.57-5,2.34a.58.58,0,0,1,.06-.11A4,4,0,0,1,441.82,128.15Z"/><path class="cls-7" d="M372,254.32s-9.23,54.62-6.84,81.51c0,0,7.64,15.35,9.31,18.21,0,0-4.46-1-5.81-2.94l-9.07-12.89s1.71-3.14,1.71-3.86-2.58-40.25-6.2-53.32a19.64,19.64,0,0,1,.16-11c.28-.94.64-1.94,1.07-3a53.58,53.58,0,0,0,3.5-15.27Z"/><path class="cls-7" d="M358.46,255.59s-27.84,77.69-30.23,87.87c0,0-3.18,13.84-7.87,11.62s5.57-14.4,5.57-14.4,9.43-61,11.37-65c2.36-4.78,7.56-16.06,7.4-19.32S358.46,255.59,358.46,255.59Z"/><path class="cls-8" d="M344.7,256.39c.16,3.26-4.88,14.68-7.4,19.32-2.1,3.86-11.37,65-11.37,65a50.4,50.4,0,0,0-5.52,8.12,39.3,39.3,0,0,0,6.09-7.42c1.06-8.63,3.38-16.54,5.86-24.83,2.84-9.48,5.1-29,8.78-38.17,1.71-4.27,6.86-3.73,9.74-1.51,4.45-12.35,7.58-21.28,7.58-21.28S344.54,253.12,344.7,256.39Z"/><path class="cls-8" d="M355.24,270.07c.28-.94.64-1.94,1.07-3,.29-.72.55-1.45.8-2.16h0a54,54,0,0,0,2.7-13.11L372,254.32s-1.34,9.76-2.77,18.53a12,12,0,0,0-4.33,1c-3.07,1.5-5.48,5.18-5.17,11.75.6,12.32,1.19,51.71,5.68,60.84-2.64-3.74-5.82-8.27-5.82-8.27s1.71-3.14,1.71-3.86-2.58-40.25-6.2-53.32A19.64,19.64,0,0,1,355.24,270.07Z"/><path class="cls-4" d="M368.88,343.28s8.19,12.13,9.74,13.39c0,0,1.55,1.19-3.16.77a54.46,54.46,0,0,0-7.83-3.23,1.12,1.12,0,0,1-.72-.7c-.56-1.66-2.43-6.87-4.71-10.05v6.45h-1.51s.11-5.81-1.12-7.08-2.66-4.12-1.89-5.11a42.9,42.9,0,0,1,3.6-3.37,8.81,8.81,0,0,0,1,6.12c1.57,2.42,5.19,7.09,8.24,8.69a.51.51,0,0,0,.73-.61A48,48,0,0,0,368.88,343.28Z"/><path class="cls-4" d="M328.45,342.64s-1.27,8.32-1.91,9.43-5,8.17-8.21,9.65c-.63.28-2.54.64-2.51,0a37.15,37.15,0,0,1,3.31-12.47s4-6.42,6.8-8.53c0,0-7.08,10.74-4.9,11.65C324.63,353.83,328.45,342.64,328.45,342.64Z"/><path class="cls-7" d="M357.7,72.63a25.47,25.47,0,0,1-6-1.72c-1.1-.45-2.19-1-3.3-1.38a16.15,16.15,0,0,1-1.88-.44,5.79,5.79,0,0,1-1.26-.4c-.23,5.74-1.51,20.36-8.68,23.15,0,0,5.12,6.28,18.14,4.53s9.46-8.18,9.46-8.18S355.28,86.52,357.7,72.63Z"/><path class="cls-8" d="M341.81,89.47c1.6-1.23,6.49-6.66,8.5-7.17a14.38,14.38,0,0,1,7.88.26c-.88-2.29-1.26-5.48-.49-9.93a25.47,25.47,0,0,1-6-1.72c-1.1-.45-2.19-1-3.3-1.38a16.15,16.15,0,0,1-1.88-.44,5.79,5.79,0,0,1-1.26-.4c-.17,4.26-.92,13.38-4.21,19C341.17,87.6,340.68,90.34,341.81,89.47Z"/><path class="cls-7" d="M335,31.77S332.36,56.36,339.34,67s25.07,11.45,26.17,10.75c1.26-.8,6.86-8.41,10.17-16.36,1.8-4.33,1.13-9.22-.89-13.45-.8-1.68-1.25-3.55-2-5.25-1.77-4.2.72-15-10.71-19.16S336.25,23.38,335,31.77Z"/><path class="cls-8" d="M362.11,23.53c-11.44-4.19-25.86-.15-27.11,8.24,0,0-.57,8.88-.32,16.51a60.23,60.23,0,0,0,7.53-12.23,59,59,0,0,0,2.12-6.63s4.58,4.26,6.54,4.94c7.44,2.58,13.38-.65,15.54,0,1.3.39,4.67,4.17,6.33,4.83C373.56,30.32,368.16,25.75,362.11,23.53Z"/><path class="cls-26" d="M334.65,46.5s-12-10.18-19.56,1.15S321.66,74.11,338.45,66C338.45,66,334,55,334.65,46.5Z"/><path class="cls-71" d="M334.6,49.12c-2.27,0-4.79.09-6.51,1.13-2.19,1.32-2,5.17-1.43,7.42,1,4.18,3.83,7.09,6.51,10.13A23.56,23.56,0,0,0,338.45,66S334.86,57.09,334.6,49.12Z"/><path class="cls-7" d="M335,48.5s-1.89-5.14-8.35-2.46.57,16,10,11.27A52,52,0,0,0,335,48.5Z"/><path class="cls-30" d="M327.24,48.58s2.43-1.51,3.81-.5,4.29,6.51,2.13,7.27c-1.93.68-3.79-.09-3.27-2.59s.26-3.08-.26-2.65C328.56,51,326.39,50,327.24,48.58Z"/><path class="cls-26" d="M336.65,18.59s-22-8-13.09,25.32c0,0,4.23-1.73,11.07,2.91C334.63,46.82,352.5,26.07,336.65,18.59Z"/><path class="cls-72" d="M363,27.06s10.07-3.74,11.67,1.6-2.24,10.44-2.24,10.44S370.91,27.06,363,27.06Z"/><path class="cls-26" d="M372.4,41.25c.11-1.33,9.44-9.85,5.79-17.28-2.29-4.69-6.87-9.82-18.56-13.08C339.11,5.17,334,19.2,334,19.2c2.74.78,3.1.71,12.66,10.37s16.6-.76,19.46-2.28,9.19-2.71,7.17,4.57C371.86,36.83,371.56,39.19,372.4,41.25Z"/><path class="cls-36" d="M339.11,42.3s3.26-4.68,5.52-5.53,10.46-1.34,10.59-.28-1,3.84-1.43,3.84-6.67-1.55-8.15-1.16S340,42.6,339.11,42.3Z"/><path class="cls-36" d="M372.18,38a3.83,3.83,0,0,0-2.6-2.57c-1.93-.36-7.05.39-6.89,1s.57,3.12,2.05,2.73,4-2.15,5.05-1.79S372.32,38.46,372.18,38Z"/><g class="cls-73"><path class="cls-34" d="M353.09,44.47s-7.15-.8-9.43,2.24c0,0,.23,3.79,2.11,4.56s6.78.66,7,.33a3.93,3.93,0,0,0,1.07-1.19,6.93,6.93,0,0,0,.58-3.56A4.57,4.57,0,0,0,353.09,44.47Z"/><circle class="cls-74" cx="348.94" cy="48.28" r="3.76"/></g><path class="cls-75" d="M341.87,45.48s-.62,2.8,2,2.8a7.14,7.14,0,0,1,6.15-2.5c4.32.17,4.37,1.32,4.37,1.32a3.65,3.65,0,0,0-2.52-3.62c-2.76-1.06-5.8.36-7.71,1.64S341.87,45.48,341.87,45.48Z"/><path class="cls-75" d="M344.16,49.16s-.11,2.76,3.52,2.88,4.76-.06,4.92-.14c.49-.22,1.13-1.26,1.13-1.26a2.66,2.66,0,0,1-1.21.56,42.4,42.4,0,0,1-5.06.07A4.13,4.13,0,0,1,344.16,49.16Z"/><g class="cls-76"><path class="cls-34" d="M365.35,44s5.73-1.45,7.92.81c0,0,.24,3.17-1.2,4s-5.44,1.3-5.64,1.05a3.17,3.17,0,0,1-1-.87,5.77,5.77,0,0,1-.87-2.88A3.79,3.79,0,0,1,365.35,44Z"/><path class="cls-77" d="M365.29,47.13a3.09,3.09,0,1,0,2.64-3.54A3.12,3.12,0,0,0,365.29,47.13Z"/></g><path class="cls-75" d="M374.94,43.28s.39,2.22-1.54,2.8A6,6,0,0,0,368,44.71c-3.56.63-3.47,1.59-3.47,1.59A3.06,3.06,0,0,1,366.24,43c2.16-1.18,4.84-.35,6.57.5S374.94,43.28,374.94,43.28Z"/><path class="cls-75" d="M373.08,47.19s.33,2.2-2.67,2.72-3.66.2-3.8.16a3.6,3.6,0,0,1-1.08-.91,2.32,2.32,0,0,0,1.06.32A40.4,40.4,0,0,0,370.8,49C371.51,48.73,372.64,48.62,373.08,47.19Z"/><path class="cls-78" d="M376.78,54.8c.12,2.08-1.83,4.07-4.38,4.46s-4.7-1-4.83-3.08,1.84-4.08,4.38-4.46S376.65,52.71,376.78,54.8Z"/><path class="cls-79" d="M354,58.24c-.07,2.62-2.88,4.61-6.27,4.45s-6.1-2.42-6-5,2.88-4.61,6.28-4.45S354,55.62,354,58.24Z"/><path class="cls-40" d="M360.63,46.3c-.28,0,1,4.1,1.82,5.93,1.35,3.16,2.76,4.68.72,5.43a42,42,0,0,0-4.05,1.42,4.36,4.36,0,0,0,1,.18c3.28.22,7.13-.44,5-4.33C363.69,52.18,361.51,49.13,360.63,46.3Z"/><path class="cls-34" d="M355.1,63.63S358,69.92,363,69.35s4.12-5,4.12-5S357.31,64.47,355.1,63.63Z"/><path class="cls-80" d="M354.91,63.63s2.51,6.68,7.7,6.79c2.22,0,3.73-.8,6-6.44l-2.31.72s-.54,3.48-3.74,3.25-4.54-1.84-5.69-3.63A2.22,2.22,0,0,1,354.91,63.63Z"/><path class="cls-80" d="M369.38,62.55S369,65.81,363,65.81c-5.43,0-7.32-.15-9.27-2.6,0,0,3.55,1.15,5.08.77s2.53-2.25,4.11-.61a2.13,2.13,0,0,1,3.06-.27A2.6,2.6,0,0,0,369.38,62.55Z"/><path class="cls-43" d="M335.62,59.06a1.92,1.92,0,1,1-1.91-1.92A1.91,1.91,0,0,1,335.62,59.06Z"/><path class="cls-81" d="M367.84,89.51l-5.92-2.31a7.1,7.1,0,0,1-6,3.93c1.74-.07.18,0-.29.08-.8.15-1.61.29-2.42.42a25,25,0,0,1-2.87.05,14.34,14.34,0,0,1-4.12-.47,13.57,13.57,0,0,1-4.49-2.57,5.53,5.53,0,0,1-1-1.09c-1.83-.28-4.78,4.75-4.78,4.75,9.53,5.27,14.87,63.26,14.87,63.26l17.05,1.86C372.11,108.31,367.84,89.51,367.84,89.51Z"/><path class="cls-34" d="M341.51,87.51s4.22,4.62,12.94,3.86c0,0,2.55,10.85-9.66,8.64S336.76,89.17,341.51,87.51Z"/><path class="cls-34" d="M361.54,87s-1.16,3.11-7.09,4.39c0,0,4,12.82,14.59,1.48l1.4-1.89S364,88,361.54,87Z"/><path class="cls-82" d="M379.92,182.39a111,111,0,0,0-4.45-13.9,7.82,7.82,0,0,1-4.38-6.45V162c-.08-.33-.16-.66-.27-1-.22-.67-.46-1.33-.73-2-.13-.24-.69-1.39-.78-1.56-.28-.51-.57-1-.86-1.52a7.79,7.79,0,0,1-.65-1.41L346,153.7s-22.29,18.14-24.61,33,17.11,64.84,14.48,74.85c0,0-1.24,6.71-3.19,7.46v0a80.15,80.15,0,0,1,25.57,0,35.24,35.24,0,0,0,20.08-2.49,11.47,11.47,0,0,1-2.92-8.23c.08-5,1.72-13.07,4.47-25.94C386.7,200.68,383.52,197,379.92,182.39Z"/><path class="cls-83" d="M375.47,168.49a7.82,7.82,0,0,1-4.38-6.45V162c-.08-.33-.16-.66-.27-1-.22-.67-.46-1.33-.73-2-.13-.24-.69-1.39-.78-1.56-.28-.51-.57-1-.86-1.52a7.79,7.79,0,0,1-.65-1.41L346,153.7s-3.19,2.6-7.28,6.63h0l-.58.58-.16.16c-.8.8-1.62,1.65-2.45,2.54l-.06.06a90.81,90.81,0,0,0-6.82,8.09l-.06.09q-1.17,1.57-2.22,3.21l-.15.22a31.18,31.18,0,0,0-4.84,11.46c-2.33,14.88,17.11,64.84,14.48,74.85,0,0-1.24,6.71-3.19,7.46v0a79.85,79.85,0,0,1,14.17-1,125.92,125.92,0,0,0-1.17-19.86c-1.8-11.52-4.73-18.49-7.54-29.75-2.94-11.84-5.16-21.25-3.28-33.3.27-1.77.49-3.54.69-5.31,2.68.33,7.58.74,10.1,0,3.12-.87,9.95-8.49,14-9.38,1.43-.31,3.15,5.86,7.89,8.62,2.84,1.66,7.83,1.66,11.6.32A114,114,0,0,0,375.47,168.49Z"/><path class="cls-84" d="M350.3,150.93c.32,2.9-1.75,6.77-1.75,6.77l19.81.74c.19-2.24-.16-5.4,0-7.51Z"/><path class="cls-85" d="M341.83,86.07s-24.59,6.1-24.59,6.52c0,0,8.81,16.57,9.23,28.07,0,0,9.84,5.89,16.08,27.61a9.88,9.88,0,0,1-2.94,10.08c-5.18,4.64-13.25,11.72-15.12,12.45,0,0,12.39,11.83,23,3.07,8.73-7.22,8.85-20.15,9.09-27.72.14-4.38-.36-15.77-2.83-30.19C352,105.47,348.15,92.25,341.83,86.07Z"/><path class="cls-86" d="M331.79,117.87A114.64,114.64,0,0,0,323,105.53c1.77,5.07,3.27,10.61,3.44,15.13,0,0,9.84,5.89,16.08,27.61a9.88,9.88,0,0,1-2.94,10.08c-5.18,4.64-13.25,11.72-15.12,12.45,0,0,12.39,11.83,23,3.07,7.55-6.24,8.66-16.76,9-24.38C347.09,147.39,340.94,134.7,331.79,117.87Z"/><path class="cls-85" d="M360.6,86.22s10.77,1.82,19.12,3.39c3.34.62,4.82,3.19,5.88,5.64,4.79,11.08,11.88,40.45,13.73,40.45,2.28,0,33-10.92,33-10.92l3,8.05S402,150.59,396.48,150.59c-8.05,0-12.26-15.57-15.67-23.61,0,0-7.34,9.25-8.39,12.87-1.37,4.66-2.82,10.38-3,13.93s6.79,14.91,10.07,19.11c0,0-4.43,5.25-9.79,3.42s-4.81-34.77-5.15-51.49S366.31,97.22,360.6,86.22Z"/><path class="cls-86" d="M371.34,143.72c-.21.27-2.92,5.34-6.34,5.89.43,13.28,1.51,25.6,4.74,26.7,5.36,1.83,9.79-3.42,9.79-3.42-3.28-4.2-10.21-15.47-10.07-19.11A53.37,53.37,0,0,1,371.34,143.72Z"/><path class="cls-86" d="M401,146.53c-6.94-1.63-11.24-6.6-13-13.4-2.2-8.58-3.4-17.12-6.63-25.39,0,0,1.13,5.76,2.17,10.14,1.25,5.24-2.73,9.1-2.73,9.1,3.4,8,7.66,23.73,15.67,23.61,3.23-.05,8.29-3.25,14.5-5.51C407.45,145.72,404.65,147.38,401,146.53Z"/><path class="cls-87" d="M336.37,163.38a10.67,10.67,0,0,0,4.21-11S333.29,151.84,336.37,163.38Z"/><path class="cls-7" d="M334.06,151s.47,3.57,4,2.92h.09c.36-.58,1.51.76,2.31.08s1.08-3.12,2.4-3.39a7.45,7.45,0,0,1-.1,2.05c1.61-.78,3-1.94,3.65-1.54,1.23.73,6.68,6.31,10.53,7.78a.54.54,0,0,1,.36.71c-.38.81-1.53,1.9-4.89-.17-4.77-2.93-5.71-5.08-5.9-4s5.92,5.24,8.42,6.42a.84.84,0,0,1,.17,1.1c-.59.65-2,1.33-5-.92-4.34-3.28-5.31-4.49-5.73-4.37s5.92,4.82,8,6.24a.7.7,0,0,1,0,1c-.58.46-1.78.85-3.87-.67-3.18-2.32-5.47-4.73-5.7-4.61s5,4.55,6.06,5.48c.8.71-1.68,2.18-4.18-.2s-3.06-3.7-4.35-3.66-3.7,2.63-9.52-3.07C330.85,158.21,329.59,151.83,334.06,151Z"/><path class="cls-8" d="M336.53,154a4.12,4.12,0,0,0,1.57,0h.09c.36-.58,1.75.11,2.55-.56s.84-2.48,2.16-2.75a6.55,6.55,0,0,1-.1,2.05c1.33-.65,2.45-1.52,3.22-1.6-1.62,2.5.82,3.16,2.62,4.64A35.74,35.74,0,0,0,353,159c1.22.65,2.24,1.42,3.67,1.38-.69.43-2,.46-4.21-.93-3.91-2.4-5.24-4.27-5.7-4.27-.45-.43-1.12-.67-1.71.68s3.83,4.62,6.8,6.53c1.06.68,1.93,1.16,2.77,1-.76.4-2.12.43-4.43-1.32-3.35-2.53-4.69-3.83-5.32-4.23-.88-.4-1.1-.45-1.4.2-.38.81.62,1.85,2.21,3.16a32.72,32.72,0,0,0,4.16,3.34,2.85,2.85,0,0,0,2.46.46c-.61.42-1.78.69-3.75-.74-.64-.47-1.23-.93-1.79-1.38-1-.9-2.08-1.8-2.82-2.42a11,11,0,0,0-.92-.75h0c-.09-.05-.15-.08-.17-.06s0,0,0,.06c-.15,0-.4.17-.72.69s1.6,3,3.61,4.49c1,.74,1.88,1.34,2.8,1.14-.77.37-2.29.36-3.82-1.1-2.5-2.38-3.06-3.7-4.35-3.66-.84,0-2.38,1.36-5.38,0A8.76,8.76,0,0,1,336.53,154Z"/><path class="cls-88" d="M339.33,153.69c-.5,0-1-.05-1.14.25h-.09a4.12,4.12,0,0,1-1.57,0,8.76,8.76,0,0,0-1.54,7.33,5.55,5.55,0,0,0,3.73.47A7.09,7.09,0,0,1,339.33,153.69Z"/><path class="cls-24" d="M355.12,158.76c-.44.86,1.45,1.63,1.53,1.6a1.12,1.12,0,0,0,.73-1,10.56,10.56,0,0,0-1.18-.63C355.88,158.59,355.25,158.5,355.12,158.76Z"/><path class="cls-24" d="M352.9,161.9c-.43.86,1.53,1.51,1.61,1.48a.89.89,0,0,0,.7-1.16,4.46,4.46,0,0,0-1.41-.54C353.37,161.6,353,161.64,352.9,161.9Z"/><path class="cls-24" d="M350.5,163.81c-.29.65,1.42,1.4,1.49,1.38a.75.75,0,0,0,.63-.92,4.94,4.94,0,0,0-1.34-.67C350.91,163.53,350.62,163.56,350.5,163.81Z"/><path class="cls-24" d="M347.26,164.76c-.33.5,1,1.34,1,1.33a.69.69,0,0,0,.75-.66,5,5,0,0,0-1.13-.82A.52.52,0,0,0,347.26,164.76Z"/><path class="cls-85" d="M317.7,92.59c2.29,4.27,7.91,18.32,9.38,28.08,0,0-14.77,18.75-13.57,21.4.21.44,23.32,9.3,27.07,10.34,0,0-5.66,1.79-4.21,11,0,0-19.37-5.11-34.95-9.68-3.9-1.14-5.37-4.81-4.06-8.86,4-12.36,8-22.53,13.42-39.31C313.58,96.79,317.19,91.64,317.7,92.59Z"/><path class="cls-86" d="M323.63,107.26c-1,12.94-6.3,22.36-9.34,29.18a12.42,12.42,0,0,0-1,3.92c-.07.72-.07,1.36.19,1.42.05-2,2.64-5.87,4.18-8.17,4-6,9.45-12.94,9.45-12.94A87.94,87.94,0,0,0,323.63,107.26Z"/><path class="cls-43" d="M351.11,47.19a.59.59,0,0,1-.61.55.55.55,0,1,1,0-1.1A.59.59,0,0,1,351.11,47.19Z"/><ellipse class="cls-43" cx="369.27" cy="45.98" rx="0.56" ry="0.51"/><path class="cls-89" d="M446.92,107.82a9.86,9.86,0,0,0-3.4-6.92c.44,1.06,0,2.28.15,3.4a3.76,3.76,0,0,0,1.22,2.1A11.38,11.38,0,0,0,446.92,107.82Z"/><path class="cls-90" d="M444.84,105.28c-.72-1-.73-2.64-1.16-3.84a2.88,2.88,0,0,1-.11-.49l-.05,0c.44,1.06,0,2.28.15,3.4a3.76,3.76,0,0,0,1.22,2.1,11.38,11.38,0,0,0,2,1.42c0-.18,0-.36-.05-.54A7.71,7.71,0,0,1,444.84,105.28Z"/><path class="cls-89" d="M451.74,102.32a5.2,5.2,0,0,1,2.07,1.46,6,6,0,0,0,2,1.53,2,2,0,0,0,2.32-.5,2.23,2.23,0,0,1-2.15,1.3,17.19,17.19,0,0,1-2.64-.4,7.21,7.21,0,0,0-6.51,2.64,8.17,8.17,0,0,1,1-4.33A3.59,3.59,0,0,1,451.74,102.32Z"/><path class="cls-90" d="M455.83,105.31a3.89,3.89,0,0,1-.92-.54c-.68-.07-1.35-.26-2-.35-2.42-.33-5,.49-6,3.62,0,.11,0,.21,0,.31a7.2,7.2,0,0,1,6.51-2.64,17.19,17.19,0,0,0,2.64.4,2.23,2.23,0,0,0,2.15-1.3A2,2,0,0,1,455.83,105.31Z"/><path class="cls-91" d="M450.25,105.73a11.32,11.32,0,0,0,.81-1.89,6.69,6.69,0,0,1-2.52,2.85h.21a6.42,6.42,0,0,1,1.18-.57A3.12,3.12,0,0,0,450.25,105.73Z"/><path class="cls-91" d="M450.77,105.86c.23,0,.47-.1.71-.13a2.32,2.32,0,0,0,.3-.22,1.65,1.65,0,0,0,.51-1.1A5.38,5.38,0,0,1,450.77,105.86Z"/><path class="cls-91" d="M453.17,105.7a1.35,1.35,0,0,0,.89-1,11.79,11.79,0,0,1-1.42.91A4.73,4.73,0,0,1,453.17,105.7Z"/><path class="cls-89" d="M446.14,121.87c.18-5.08.6-10.16,1.21-15.2-2,5-2.05,10.48-2.12,15.84,0,.3.46.38.67.18A1.16,1.16,0,0,0,446.14,121.87Z"/><path class="cls-90" d="M446.41,116.8q.33-5.08.94-10.13a32.34,32.34,0,0,0-1.94,10A4.21,4.21,0,0,1,446.41,116.8Z"/><path class="cls-89" d="M457.61,108.1a12.58,12.58,0,0,0-2,3.46,13.78,13.78,0,0,1-2,3.49,4.46,4.46,0,0,1-3.49,1.69c-1.75-.1-3.22-1.58-5-1.62a9.31,9.31,0,0,1,2.23-4.71,6,6,0,0,1,4.7-2c.91.07,1.79.38,2.7.43A4.65,4.65,0,0,0,457.61,108.1Z"/><path class="cls-90" d="M446.7,114.7a4.61,4.61,0,0,1-1.38-.19c-.05.21-.11.41-.15.61,1.75,0,3.22,1.52,5,1.62a4.46,4.46,0,0,0,3.49-1.69,13.78,13.78,0,0,0,2-3.49c.2-.46.41-.91.64-1.36C453.34,112.36,450.57,114.61,446.7,114.7Z"/><path class="cls-91" d="M445.44,114.94a24.72,24.72,0,0,1,5.32-2.3,10.49,10.49,0,0,0,4.82-3.1,4.8,4.8,0,0,1-2,2.32,13.64,13.64,0,0,1-2.88,1.25Z"/><path class="cls-91" d="M449.36,112.33a9.07,9.07,0,0,0,1.41-2.4l-3.54,4.27A4.47,4.47,0,0,0,449.36,112.33Z"/><path class="cls-91" d="M452,111.82a5.28,5.28,0,0,0,.73-1.93,8.29,8.29,0,0,1-2.15,3,1,1,0,0,0,.88-.28A3.1,3.1,0,0,0,452,111.82Z"/><path class="cls-91" d="M448.75,113.94c-.3-.11-.66-.25-.92-.06a9.15,9.15,0,0,0,2.73.82,3.12,3.12,0,0,0,2.63-.89A5.79,5.79,0,0,1,448.75,113.94Z"/><path class="cls-91" d="M454.53,112.6a11.79,11.79,0,0,1-3.7.14,1.47,1.47,0,0,0,.82.48A3.25,3.25,0,0,0,454.53,112.6Z"/><path class="cls-89" d="M445.79,111a6.67,6.67,0,0,0-2.79-3,9.82,9.82,0,0,0-4-1.06c-1.38-.11-2.76-.07-4.15-.16a6.47,6.47,0,0,1,1.51,3.71,21.67,21.67,0,0,0,.67,4,4.08,4.08,0,0,0,2.73,2.78,5.12,5.12,0,0,0,3-.54,8.15,8.15,0,0,0,2.08-1.21,3.76,3.76,0,0,0,1.29-2A4.06,4.06,0,0,0,445.79,111Z"/><path class="cls-90" d="M445,113.76a4.53,4.53,0,0,1-6.21-1.4,24.06,24.06,0,0,1-1.21-2.76s-.12-.15-.39-.61-.49-.77-.72-1.16-.36-.67-.52-1l-1.1,0a6.47,6.47,0,0,1,1.51,3.71,21.67,21.67,0,0,0,.67,4,4.08,4.08,0,0,0,2.73,2.78,5.12,5.12,0,0,0,3-.54,8.15,8.15,0,0,0,2.08-1.21,3.76,3.76,0,0,0,1.29-2,3.09,3.09,0,0,0,0-.91A4.52,4.52,0,0,1,445,113.76Z"/><path class="cls-91" d="M445.54,114.77a7.74,7.74,0,0,1-3.93-2.09,23.33,23.33,0,0,1-2.86-3.48c1.54.71,2.3,2.43,3.52,3.6A11.93,11.93,0,0,0,445.54,114.77Z"/><path class="cls-91" d="M444.07,114.32l-.93-3.59a10,10,0,0,0,.43,3C443.65,114,443.8,114.31,444.07,114.32Z"/><path class="cls-91" d="M441.76,112.55c-.25-1-.51-2-.76-3a7.39,7.39,0,0,0,0,1.63A2.52,2.52,0,0,0,441.76,112.55Z"/><path class="cls-91" d="M440.58,112.5a6,6,0,0,1-2.91-1A5.42,5.42,0,0,0,442,113c0-.31-.14-.38-.45-.47A3.69,3.69,0,0,0,440.58,112.5Z"/><path class="cls-91" d="M438.83,113.42a4,4,0,0,0,2.4,1.48,4.62,4.62,0,0,0,3-.58c-.18-.1-.54-.17-.64-.35a3.54,3.54,0,0,1-2.42.3A10.85,10.85,0,0,1,438.83,113.42Z"/><g class="cls-92"><path class="cls-93" d="M438.58,127.92c2,1.93,5.51.3,7.84,1.46,1.95,1,6.13-1.93,7.58-3.09,1.27-1-8.59-3.58-10.22-3.3-2,.35-3.94,1.48-5.94,2C434.83,125.85,437.71,127.07,438.58,127.92Z"/></g><path class="cls-55" d="M438.65,126.42c1,1.8,1.67.63,2.44.7a2,2,0,0,1,1.37.59c.65.53,1.22.09,1.92-.11,1-.3,1.78.4,2.72.6s1.13-.52,1.86-.81,1.5.08,2.23-.1c.45-.12.19-.31.3-.67s3.17,0,2.17-.92A30,30,0,0,0,450,123a9.79,9.79,0,0,0-5-1.54,8.66,8.66,0,0,0-4.63,1.47c-1.05.67-3,1.53-3.64,2.82C436.26,126.89,438.51,126.17,438.65,126.42Z"/><path class="cls-7" d="M825.64,90.6a56.18,56.18,0,0,0,7-23c7.42-.21,13.76-1.8,19.64-6.18,1.24,7.08,1.62,26.69,5.09,30.12,0,0-4,33.44-16.46,40.19S807.77,117.87,825.64,90.6Z"/><path class="cls-8" d="M850.79,82.31a21.89,21.89,0,0,1,3.88.68c-1-5.29-1.64-17.34-2.38-21.59-5.88,4.38-12.22,6-19.64,6.18C831.78,78,827,87.12,826.09,89.5,828.51,86.22,846.46,82.08,850.79,82.31Z"/><path class="cls-4" d="M831.92,353.14a24.27,24.27,0,0,1-9,7.9c-1.33.66-9.78,4-5.82,6.45,1.67,1,7.95-.61,10.31-1.6a127.18,127.18,0,0,0,12-5.75v-5.6Z"/><path class="cls-4" d="M858.7,353.14a24.31,24.31,0,0,0,8.16,8.78c1.25.79,9.32,5,5.13,7-1.77.86-7.85-1.41-10.1-2.64a130.11,130.11,0,0,1-11.3-6.94v-5.58Z"/><path class="cls-94" d="M840.67,187.93c-1.12.06-2.25.1-3.39.11-3.87,0-7.81.2-11.67,0a20.68,20.68,0,0,1-5.71-1.18c-15.61,20.53-2.19,50.34-3.09,89.5-.54,23.37,12,78.39,12,78.39h14.63s-2.14-34.89-4.07-73.89c-.66-13.35-.5-44.25.8-55.42a.41.41,0,0,1,.52-.35Z"/><path class="cls-24" d="M852.43,105.6s-.24-.52,1.21-1,1.56.12,1.56.12A2.54,2.54,0,0,1,852.43,105.6Z"/><path class="cls-5" d="M856.79,187.41s9.27-1.83,11.13,13.9c2.09,17.58-3.37,25.44-2.86,62.84.32,24-.14,50-3.87,90.55H846s-2.86-53.28-5.77-86c-2.4-26.91-6.23-83.43-6.23-83.43Z"/><path class="cls-95" d="M816.83,274.66c3.13.74,8.29.52,9.68.51,4.56,0,8.71-.8,12.56-3.23-.28-15.13,0-37.42,1.08-46.55a.41.41,0,0,1,.52-.35V187.93c-1.12.06-2.25.1-3.39.11-3.87,0-7.81.2-11.67,0a20.68,20.68,0,0,1-5.71-1.18C804.51,207.05,817.33,236.31,816.83,274.66Z"/><path class="cls-96" d="M840.56,273c3.16,1.23,6.34,2.35,9.83,2.35,3.8,0,10.48.44,14.74-1.3,0-3.34,0-6.63-.07-9.86-.51-37.4,5-45.26,2.86-62.84-1.86-15.73-11.13-13.9-11.13-13.9L834,185.31s3.83,56.52,6.23,83.43C840.4,270.54,840.46,271.52,840.56,273Z"/><path class="cls-7" d="M822.74,80.43c-7.26-1.75-10.55-9.76-11.78-15.76a16.19,16.19,0,0,1,1-9.54A147.86,147.86,0,0,0,817.65,36c.68-3.54.63-8.65,2.24-11.89,2.37-4.76,7.55-3.58,12.83-5.06,3.88-1.1,9.77-1.67,12.83,1.48,1,1,1.67,2.45,2.81,3.26s2.27.77,3.23,1.65c2.13,1.95,4.06,4.35,4.47,7.29.43,3.12,3.58,7.7,2.86,10.69-1.22,5.08-8.42,23.27-11,27.28C845.05,75.15,834.74,80.81,822.74,80.43Z"/><path class="cls-8" d="M819.89,24.13c2.37-4.76,7.55-3.58,12.83-5.06,3.88-1.1,9.77-1.67,12.83,1.48,1,1,1.67,2.45,2.81,3.26s2.27.77,3.23,1.65c2.13,1.95,4.06,4.35,4.47,7.29.43,3.12,3.58,7.7,2.86,10.69-.86,3.59-4.72,13.75-7.82,20.81a13.48,13.48,0,0,1-2.23-.2h0a14.39,14.39,0,0,0,2-4.22c.24-1,3-8.37,2-16a10.52,10.52,0,0,0-1.65-4.39c-1.48-2.24-3.92-6.76-3.18-11.34a19.4,19.4,0,0,1-12,1.15c-5.37-1.14-12.3-4.78-17.9,2.92C818.47,29.36,818.8,26.32,819.89,24.13Z"/><path class="cls-7" d="M851.73,62.07s2.66-8.84,3.9-10.4,5.82-4.45,7.58,1.64S858.83,65.14,851.73,62.07Z"/><path class="cls-30" d="M861.09,53.44s-2.43-1.77-4-.62-5.56,8.15-3,8.48,4.32,0,3.83-3-.59-3.68.12-4S862.19,54.41,861.09,53.44Z"/><path class="cls-14" d="M837.69,32.41a1.06,1.06,0,0,0-1.23.86c-.3,1.6-.67,4.58.56,4.82,1.7.33,7.45.51,12.76,4.68,0,0,1.3-2.24-1.54-5.52C845.75,34.38,840.5,32.9,837.69,32.41Z"/><path class="cls-14" d="M826.21,31.66a.68.68,0,0,1,.65.65c.06,1.49,0,5-2,4.6a30.31,30.31,0,0,0-8.62-.2c-.09,0-.33-2.85,3.91-4.28A21.19,21.19,0,0,1,826.21,31.66Z"/><path class="cls-97" d="M814.39,51.65c-.22,1.67,1.66,3.31,4.2,3.65s4.79-.75,5-2.43-1.65-3.31-4.2-3.65S814.61,50,814.39,51.65Z"/><path class="cls-98" d="M832.65,54.79c0,2,2.43,3.55,5.41,3.54s5.38-1.62,5.37-3.58S841,51.2,838,51.21,832.64,52.83,832.65,54.79Z"/><g class="cls-99"><path class="cls-34" d="M845.47,47.2a6.55,6.55,0,0,0-6.13-4.55c-4.91-.16-5.06,4.69-5.06,4.69s1.65,3.45,6.52,2.7C844.64,49.44,845.47,47.2,845.47,47.2Z"/><ellipse class="cls-100" cx="840.25" cy="46.96" rx="3.89" ry="3.66" transform="translate(766.59 885.29) rotate(-88.18)"/></g><path class="cls-36" d="M839.88,44.21c-4.72-.13-5.29,3-5.6,3.14h0s-1.12-5.2,5.75-4.88a5.54,5.54,0,0,1,5.44,4.74v0C845.15,47.09,843.44,44.3,839.88,44.21Z"/><g class="cls-101"><path class="cls-34" d="M825.4,44.21s-1-4.18-5.15-4.31S816,44.39,816,44.39a4.79,4.79,0,0,0,5.48,2.54C824.69,46.35,825.4,44.21,825.4,44.21Z"/><path class="cls-102" d="M818.27,44.05a3,3,0,1,0,3.11-3.17A3.14,3.14,0,0,0,818.27,44.05Z"/></g><path class="cls-36" d="M821,41.6a5.56,5.56,0,0,0-5,2.78c0-.05.17-4.58,4.28-4.48,6.48.16,5.15,4.31,5.15,4.31l0,0C825.11,44.14,824,41.73,821,41.6Z"/><path class="cls-40" d="M824.15,53.89c-.17-.8,1.76-3.4,4.15-8.26a20.09,20.09,0,0,0,1.32-3,7.27,7.27,0,0,0-1.12,1.15c-2.17,2.6-7.26,9.5-6.34,11,.61,1,1.16,1.74,4.93,2.17,1.37.16,2.78.11,3.27-.33.15-.13-.54-.29-1.88-.44C826.69,56.06,824.3,54.81,824.15,53.89Z"/><path class="cls-81" d="M857.38,91.52,866,97.6s-18.89,40.5-30.13,43.87S818.68,95.1,818.68,95.1L827,91.52s1.18-1.93,13.22,0C850.64,93.18,855.53,93.6,857.38,91.52Z"/><path class="cls-26" d="M844.81,98.26l-3.75-7.16h-3.38c-.7.27-.31,2.05-1.22,2.05-.25,0-.49,0-.73,0l-3.29,3.56,4.65,5.17-6.47,21.46,4.47,7.08,7.24-4.67-2.47-23.62Z"/><path class="cls-34" d="M826.88,87.17l-2.53,5.11,9.31,8.15,5.07-9.4A52.56,52.56,0,0,1,826.88,87.17Z"/><path class="cls-34" d="M854.91,84.41l2.93,7.43-14.44,9.3L838.73,91a29.54,29.54,0,0,0,7.53-2C850.61,87,854.91,84.41,854.91,84.41Z"/><path class="cls-34" d="M824.35,92.28s10.91,43.57,16.35,50.07c0,0-3.46,41.16-2.67,52.16.45,6.32-.54,54.14-6.8,73.56a39.23,39.23,0,0,1-25.51-1.93s2-58.48,3.84-67.92c2.36-11.79,4.6-27.86,2.75-40.54-3.33-22.83-4.26-44.6-6.59-56.93C805.72,100.75,817.39,95.39,824.35,92.28Z"/><path class="cls-103" d="M813.17,260.68c-5.21-4.29,3.68-100,.12-117.75a166.12,166.12,0,0,0-4.77-18.88c1,10.13,2.05,21.73,3.79,33.63,1.85,12.68-.39,28.75-2.75,40.54-1.88,9.44-3.84,67.92-3.84,67.92a39.23,39.23,0,0,0,25.51,1.93c.28-.88.54-1.84.79-2.84C826.71,264.72,817,263.81,813.17,260.68Z"/><path class="cls-103" d="M840.7,142.35c-1.56-1.87-3.58-6.8-5.65-12.88a21.46,21.46,0,0,0-2.46,1.91c-3.05,2.73-2.55,25-2.78,45.34-.2,17.93,2.14,60.34,4.07,80l1.63-10.49.59,17.06s2.82-13.12,2.66-22.89c-.21-12.26-.41-41.3-.73-45.84C837.24,183.51,840.7,142.35,840.7,142.35Z"/><path class="cls-34" d="M857.84,91.84s25.3,7.56,29.64,12.22c0,0-23.34,35.36-20,62.49s7.12,94.09,8.69,100.59c0,0-33.85,5-39,1-2.26-1.74-5.87-136.71-5.87-136.71S846,127,857.84,91.84Z"/><path class="cls-103" d="M839.06,175.34c3.31,2.35,12.92,7.34,17.28,7.38,6.52.06,10.75-.78,12.19-6.5-.35-3.58-.71-6.84-1-9.67-2.68-21.77,11.8-48.81,17.63-58.66-4.92,1.65-9.58,4.84-13.53,7.72-6.66,4.86-10.11,12.25-13.64,19.44-2.87,5.84-7,12.58-14.27,13-1.54.09-10.62.35-17.06-1.25-7.25-1.81-11.57-11.75-14.53-9.14-.44.39-.35,8.24.52,10.11A48.83,48.83,0,0,0,826,164.83C831.44,169.29,837.67,174.36,839.06,175.34Z"/><path class="cls-103" d="M869.07,181.94c-.67,1.36-1.24,27.28-1.15,33.21.1,6.29,1.36,12.47,1.5,18.75.5,22.41-4.29,28.22-10.07,30.16-4.67,1.56-17.27,2.17-23,1.15a7.51,7.51,0,0,0,.67,2.87c5.2,4,39.11-.94,39.11-.94C875,262.28,871.61,212.49,869.07,181.94Z"/><path class="cls-34" d="M807.14,100.1c-3.45,1-6.62,5.86-8.09,9.25-7.36,17-17.3,30.59-22.45,36.25-9.7,10.66-14,10.31-13.66,13.72.82,9.57,5.15,9.55,5.15,9.55s29.83-11.54,43.11-26.52A116,116,0,0,0,807.14,100.1Z"/><path class="cls-103" d="M811.51,126.45c-6,7.14-12.42,18.89-19.23,25.52-5.36,5.21-11.67,8.46-16.11,11-1.27-3.11,2.5-14.31,1.74-18.83-.46.55-.9,1.05-1.31,1.5-9.7,10.66-14,10.31-13.66,13.72a17.31,17.31,0,0,0,1.69,6.71c.58,1.08,1.91,2.91,3.29,2.84a3.89,3.89,0,0,0,1.43-.44c3.95-1.78,7.93-3.51,11.8-5.42,9.72-4.81,22.53-12.18,30.05-20.66A101.31,101.31,0,0,0,811.51,126.45Z"/><path class="cls-104" d="M836.61,142.18c0,1.19-.66,2.16-1.47,2.16s-1.48-1-1.48-2.16.66-2.16,1.48-2.16S836.61,141,836.61,142.18Z"/><path class="cls-104" d="M837.1,178c.12,1.19-.45,2.22-1.26,2.29s-1.56-.82-1.68-2,.45-2.22,1.26-2.3S837,176.84,837.1,178Z"/><path class="cls-104" d="M838.59,203.73c.11,1.18-.45,2.21-1.27,2.29s-1.56-.82-1.67-2,.45-2.21,1.26-2.29S838.47,202.54,838.59,203.73Z"/><path class="cls-104" d="M842.17,229.73c.12,1.18-.45,2.21-1.26,2.29s-1.56-.82-1.68-2,.45-2.21,1.27-2.29S842.06,228.54,842.17,229.73Z"/><path class="cls-104" d="M824.53,91.92s9.27,33,11,39c0,0-17.94-14.16-15.26-19a9.42,9.42,0,0,1,2.91-2.63s-7-6.41-5.38-9.67A22.13,22.13,0,0,1,824.53,91.92Z"/><path class="cls-104" d="M831.25,132.16s16.6-8.69,26.59-40.32c0,0,8.14,5.76,6.64,10.69-.46,1.54-4,5.94-8,6.69,0,0,3.91,3.42.9,7.46S836.77,133.22,831.25,132.16Z"/><path class="cls-105" d="M830.92,24.32S820.38,17,818.38,30.25c0,0-5.35-2.87-2.82-6.46S829.13,15.05,830.92,24.32Z"/><path class="cls-14" d="M811,58.35s-.43,6.26,2.53,10.36c3.94,5.46,10.19,1.37,10.19,1.37,3.48,3.15,7.69,5.29,13.4,2.35a35,35,0,0,0,12.36-11.66c1.67-2.79,6.14-10.26,4.38-19.8,0,0-8.51-8.43-3.2-17.19l-.09-2.47s24-1.52,18.12,16.72-5.46,15.28-5.46,15.28-2.16-5.76-6.92-2c-1.9,1.48-3.49,7.1-4.18,9.9a3.1,3.1,0,0,1-.18,1.3,36.06,36.06,0,0,1-11,16.12c-4.6,3.71-9.81,6.36-17,5.73a12,12,0,0,1-2.59-.49c-4.61-1.46-6.9-4.79-8.45-7.64a21.89,21.89,0,0,1-2.22-6.6C810.15,66.6,809.37,61.41,811,58.35Z"/><path class="cls-14" d="M853,23.73S844.43,31.54,827.7,26c-12.87-4.28-9.32,4.28-9.32,4.28S812,26,813.61,21.07A15.43,15.43,0,0,1,826,10.47C850.18,6.24,861.13,18.86,853,23.73Z"/><path class="cls-11" d="M836,62.83s-12.71,3.47-19.05-4c0,0-.9,9,7.7,9.74S836,62.83,836,62.83Z"/><path class="cls-14" d="M825.58,58.25s6-2,8.91,2.77c2.15,3.48,7,2.25,7,2.25s-4.83,7.43-11.65,2.79c-3.83-2.61-4.61-4.93-4.61-4.93Z"/><path class="cls-14" d="M826.31,58.07s-3-2.89-7.61,0c-3.47,2.15-6.6-.72-6.6-.72s.91,8.89,8.76,6.36c5.26-1.69,5.56-3.25,5.56-3.25Z"/><ellipse class="cls-43" cx="820.38" cy="43.24" rx="0.52" ry="0.47"/><path class="cls-43" d="M839.39,46.33a.6.6,0,0,1-.63.57.61.61,0,0,1-.63-.57.6.6,0,0,1,.63-.57A.6.6,0,0,1,839.39,46.33Z"/><path class="cls-7" d="M805,127.52s-10.48-.69-13.35-2.25c-1.59-.86-3.34-2.22-5.11-3-1.44-.63-3.52-.54-2.32,1a18.68,18.68,0,0,0,10.58,5.19C801,129,806.06,130.52,805,127.52Z"/><path class="cls-8" d="M805,127.52s-10.48-.69-13.35-2.25c-.49-.27-1-.58-1.51-.91a3.18,3.18,0,0,1-2.37,1.63,16.89,16.89,0,0,0,7,2.45C801,129,806.06,130.52,805,127.52Z"/><path class="cls-106" d="M764.61,107.12s7,8.34,17.23,3.73C781.84,110.85,771.59,106.26,764.61,107.12Z"/><path class="cls-107" d="M793.34,107.15a9.6,9.6,0,0,0,7.07-1.56c-.28-.94-.46-1.59-.46-1.59a30.2,30.2,0,0,0-11.68,0l-.15.48C789.7,105.31,791.74,106.87,793.34,107.15Z"/><path class="cls-108" d="M788.27,104A23.11,23.11,0,0,0,800,104s2.35,8.29,2.72,8.77,2.3,8.41,1,9-3.9,2.46-8.09,2-9.31-.65-9.31-.65-2.75-2.86-2.32-4.55S788.27,104,788.27,104Z"/><path class="cls-109" d="M799.11,110a1.61,1.61,0,1,1-1.6-1.43A1.53,1.53,0,0,1,799.11,110Z"/><path class="cls-109" d="M790.71,114.71a1,1,0,1,1-1-.88A.94.94,0,0,1,790.71,114.71Z"/><path class="cls-109" d="M797.14,117a.67.67,0,1,1-.67-.6A.64.64,0,0,1,797.14,117Z"/><path class="cls-109" d="M800,115a.65.65,0,0,1-.68.6.64.64,0,0,1-.67-.6.65.65,0,0,1,.67-.61A.66.66,0,0,1,800,115Z"/><path class="cls-109" d="M791.61,106a.65.65,0,0,1-.68.6.61.61,0,1,1,0-1.21A.65.65,0,0,1,791.61,106Z"/><ellipse class="cls-109" cx="794.67" cy="106.59" rx="0.67" ry="0.6"/><path class="cls-109" d="M794.16,111.32a1,1,0,1,1-1-.92A1,1,0,0,1,794.16,111.32Z"/><path class="cls-109" d="M792.63,118.79a1,1,0,1,1-1-.92A1,1,0,0,1,792.63,118.79Z"/><path class="cls-110" d="M805,118.1l-6.78-20.59V82.21H797.1l.12,14.69,5.66,19.39c1,3-.7,4.71-2.24,5.64a8.16,8.16,0,0,1-2.77,1,21,21,0,0,1-7.64,0,8.16,8.16,0,0,1-2.77-1c-1.54-.93-3.27-2.68-2.24-5.64l5.66-19.39L791,82.21h-1.08v15.3l-6.78,20.59a4.83,4.83,0,0,0,1.06,4.81h0l.08.08a4.78,4.78,0,0,0,1.66,1.12,20.3,20.3,0,0,0,16.22,0,4.87,4.87,0,0,0,1.66-1.12l.08-.08h0A4.83,4.83,0,0,0,805,118.1Z"/><path class="cls-110" d="M794,79.34c-3.11,0-5.62.78-5.62,1.75s2.51,2.25,5.62,2.25,5.62-1.28,5.62-2.25S797.09,79.34,794,79.34Zm0,3c-2.17,0-3.94-.54-3.94-1.22s1.77-1.23,3.94-1.23,3.94.55,3.94,1.23S796.16,82.31,794,82.31Z"/><path class="cls-111" d="M790.94,90l.06-7.1a10.84,10.84,0,0,0,3,.42c.22,0,.44,0,.66,0a5,5,0,0,0-1-1c-2,0-3.64-.58-3.64-1.22,0-.25.25-.49.68-.69l-.18-.05a4.13,4.13,0,0,1-1-.32c-.73.29-1.17.66-1.17,1.06s.59,1,1.55,1.44v7.9C790.27,90.31,790.61,90.17,790.94,90Z"/><path class="cls-111" d="M794,122.87s-2-.75-2.94.65a3.33,3.33,0,0,0,.19,2.11,21.64,21.64,0,0,0,2.81.17,19.92,19.92,0,0,0,6-.83C798.88,123.22,795.91,121.24,794,122.87Z"/><path class="cls-7" d="M777.54,100.65s6.34-1.53,7-10.43c.37-5.18-5.76-1.58-7.7,3.52C776,95.76,777.74,99.26,777.54,100.65Z"/><path class="cls-8" d="M777.54,100.65s6.34-1.41,7-10.43c.36-5.18-5.76-1.58-7.7,3.52C776,95.76,777.74,99.26,777.54,100.65Z"/><path class="cls-7" d="M767,115.74s4.75-13.25,5.12-17.53,5.54,4.5,5.54,4.5a56.59,56.59,0,0,0-1,16.1C777.3,127.78,767,115.74,767,115.74Z"/><path class="cls-8" d="M776.63,109.65a4.45,4.45,0,0,1-3.45-4.19c0-2.33.16-4.66.25-7a5.41,5.41,0,0,1,.15-1.07c-.76-.57-1.36-.53-1.48.82-.37,4.28-5.12,17.53-5.12,17.53s10.32,12,9.62,3.07A57.77,57.77,0,0,1,776.63,109.65Z"/><path class="cls-7" d="M776.63,93a11.79,11.79,0,0,0,2.91,5.89c1.2,1.23-1.22,3.67-2.66,4.13s-6.06-.83-5.53-8.93S776.56,92.57,776.63,93Z"/><path class="cls-8" d="M778.46,101.43c-3.36,0-4.87-3-4.43-5.56-.06-2-.19-3.75.68-5.64l.13-.2c-1.58-.54-3.22,0-3.49,4-.53,8.1,4.1,9.4,5.53,8.93a5,5,0,0,0,2.25-1.65A4.74,4.74,0,0,1,778.46,101.43Z"/><path class="cls-7" d="M774.12,96.82s14.51-5,13.38-7.65-5.61.5-8.41,2-6.89,1.24-7.24,1.77S771.4,97,774.12,96.82Z"/><path class="cls-24" d="M785.19,90.87c.91,0,2.33-.9,1.9-1.44a3.4,3.4,0,0,0-2.3-.46C784.25,89.06,784,90.88,785.19,90.87Z"/><path class="cls-8" d="M776.34,92.05c-2.18.46-4.24.46-4.49.84s-.45,4.07,2.27,3.93c0,0,1.46-.51,3.42-1.28A5,5,0,0,1,776.34,92.05Z"/><path class="cls-7" d="M771.12,89.59s-2.26,2.24-.17,4,7.93-2.29,8.92-2.84,7.59-1.13,9.06-1.61,3.1-1.87,2.18-2.83-8.52,0-10.24.52S772.29,89.09,771.12,89.59Z"/><path class="cls-8" d="M777.07,87.84c-2.47.68-5.24,1.45-6,1.75,0,0-2.26,2.24-.17,4,1.42,1.16,4.6-.32,6.78-1.56A5.1,5.1,0,0,1,777.07,87.84Z"/><path class="cls-7" d="M771.31,86.7a4.31,4.31,0,0,0-.17,3.29c.71,1.51,6.89-2.68,9.73-3.21s11.62.1,12.16-3.06-8.52-.88-11.23-.49S772.33,85.72,771.31,86.7Z"/><path class="cls-8" d="M778.58,84c-3,.81-6.55,2.06-7.27,2.75a4.31,4.31,0,0,0-.17,3.29c.57,1.21,4.67-1.25,7.73-2.54A5.1,5.1,0,0,1,778.58,84Z"/><path class="cls-7" d="M772.56,87a5,5,0,0,1,.42-4.09c1.22-1.81,5.73-2.92,7.22-3.74s9.53-.61,9.67.39-1.74,3.32-4.44,3.41-3.81-.67-5,.07S775.31,87,772.56,87Z"/><path class="cls-8" d="M779.05,80c0-.09,0-.19,0-.28-2,.77-5.1,1.77-6.09,3.24a5,5,0,0,0-.42,4.09c2.75,0,6.62-3.22,7.84-4l.05,0A4.36,4.36,0,0,1,779.05,80Z"/><path class="cls-24" d="M787.18,81.42c1,0,2.5-1,2.05-1.55a3.72,3.72,0,0,0-2.48-.5C786.16,79.47,785.93,81.43,787.18,81.42Z"/><path class="cls-24" d="M790.36,84.91c1,0,2.51-1,2-1.55a3.67,3.67,0,0,0-2.48-.5C789.34,83,789.12,84.92,790.36,84.91Z"/><path class="cls-24" d="M789,88.12c.91,0,2.32-.9,1.9-1.43a3.45,3.45,0,0,0-2.3-.47C788.07,86.31,787.86,88.13,789,88.12Z"/><path class="cls-34" d="M764.58,107.2a35.11,35.11,0,0,0,17.23,3.73s-1.82,18.36-5.3,36.92c-3.29,17.54-7.81,21.55-10.12,21.27C753.84,167.59,764.58,107.2,764.58,107.2Z"/><path class="cls-103" d="M762.33,143.67c.66-6.71,1.7-13.39,2.57-20.06.46-3.5,3-13.28,3.11-14.89a28.22,28.22,0,0,1-3.43-1.52s-10.74,60.39,1.81,61.92c1.05.12,2.56-.64,4.2-3.15C762.06,164.47,761.44,152.55,762.33,143.67Z"/><path class="cls-7" d="M804.45,128.6s-10.09-.11-12.28-1.29-7.44-4.38-10.62-5.43c-1.34-.45-3.11.29-2.26,1.07,2.08,1.94,10.15,5.3,12.78,6.24C795.77,130.51,805.3,130.13,804.45,128.6Z"/><path class="cls-8" d="M804.45,128.6s-10.09-.11-12.28-1.29c-.87-.46-2.22-1.25-3.72-2.09a3.56,3.56,0,0,1-1.45,1.91c2.07.91,4,1.68,5.07,2.06C795.77,130.51,805.3,130.13,804.45,128.6Z"/><path class="cls-7" d="M793,127.76s-11.7-4.71-13.51-5.09c-2.23-.48-3.63,1.4-2.79,2a18.22,18.22,0,0,0,4,1.15C786,127.08,795.21,130.44,793,127.76Z"/><path class="cls-8" d="M793,127.76s-2.49-1-5.35-2.12a4.75,4.75,0,0,1-.17.49,3.62,3.62,0,0,1-1,1.27C790.71,128.61,794.5,129.58,793,127.76Z"/><path class="cls-8" d="M808.7,131.42s-11.52,5.76-13.83,3.82a62.72,62.72,0,0,1-7-6.15c-2-2.27,8.33,2.95,16,.92C808.1,128.9,811.09,130.88,808.7,131.42Z"/><path class="cls-7" d="M812.29,140a18.13,18.13,0,0,0,2.83-2,12,12,0,0,0,2.8-3.81h0l-8.29-9.28c-1.49-2.14-15.73-1.46-16.63,2.3s7.49,4.93,13,4.73C809.34,131.82,810.89,136.83,812.29,140Z"/><path class="cls-8" d="M799.29,128.36c1.93-.82.17-3.21,1.37-4.46-3.7.41-7.23,1.51-7.66,3.32,0,.17-.6,1.05-.6,1.21C794.69,129.41,798.32,128.78,799.29,128.36Z"/><path class="cls-8" d="M808.42,124.22c-3.35-1-12-.47-14.65,1.86a9.32,9.32,0,0,0,4.36,2.34c3,.1,5.63-.59,8.34.06a6.55,6.55,0,0,1,1.14-3.5A2.56,2.56,0,0,1,808.42,124.22Z"/><path class="cls-7" d="M793.85,129s-10.17-3.85-13.58-3.34c-1.86.27-3.17,1.56-1.43,2.17s2.43.48,5.65,1.7c1.64.62,7.17,1.37,12.77,4.84,2.4,1.48,13.2-2.75,13.2-2.75C810.4,130.48,798,129.85,793.85,129Z"/><path class="cls-7" d="M817.83,133.71s-5.61-5.46-7.49-8.34c-2.7-4.12-6.37-1.46-10.3-2-4.62-.65-5.82-1.46-6.8,0-1.5,2.27,2.59,4.8,8.24,3.54,5.09-1.14,5.14,1.94,5.14,1.94S817.65,136.51,817.83,133.71Z"/><path class="cls-24" d="M796,123.14s-2.42-.77-2.45,1.46c0,.83,1.25,1.55,2.08,1.45A2,2,0,0,0,796,123.14Z"/><path class="cls-8" d="M816.27,131.11c-.78.64-2.36,1-3.24,1.54a4.17,4.17,0,0,1-4.66.17c2,1.64,2.82,5,3.67,7.52,0,0,.76-1.25.79-1.27a9.27,9.27,0,0,0,2.29-1.06,11.53,11.53,0,0,0,2.69-3.59l.55-1.36Z"/><path class="cls-34" d="M887.48,104.06s14.16,13.45-19.54,66.82a14.57,14.57,0,0,1-16,6.2c-17.35-5.15-45.05-37.31-45.05-37.31s7.74-6.33,10.71-11c0,0,30.71,28.81,36.21,25.92,3.39-1.79,10.86-28.38,10.86-28.38S869.55,102.58,887.48,104.06Z"/></g></g></g></svg>