<?xml version="1.0" standalone="no"?><!DOCTYPE svg PUBLIC "-//W3C//DTD SVG 1.1//EN" "http://www.w3.org/Graphics/SVG/1.1/DTD/svg11.dtd"><svg t="1560771250074" class="icon" style="" viewBox="0 0 1024 1024" version="1.1" xmlns="http://www.w3.org/2000/svg" p-id="2781" xmlns:xlink="http://www.w3.org/1999/xlink" width="200" height="200"><defs><style type="text/css"></style></defs><path d="M954.5 632.7c-10.5-82-84.4-141.4-167.1-141.4h-42.8V451c0-124.1-93.4-232.6-217.2-240.9-135.8-9.1-249.2 98.8-249.2 232.7v48.5h-42.8c-82.7 0-156.5 59.3-167.1 141.4-12.8 99.3 64.5 184.2 161.3 184.2h563.5c96.8 0 174.1-84.9 161.4-184.2z m-324-68.7l-5.7 5.7c-11.3 11.3-29.6 11.3-40.8 0l-39.2-39.2v165.3c0 18.3-14.8 33.2-33.2 33.2h-0.5c-18.3 0-33.2-14.8-33.2-33.2V530.5l-39.2 39.2c-11.3 11.3-29.6 11.3-40.8 0l-5.7-5.7c-11.3-11.3-11.3-29.6 0-40.8l97.5-97.5c5.9-5.9 13.8-8.8 21.6-8.4 7.8-0.3 15.7 2.5 21.6 8.4l97.5 97.5c11.4 11.2 11.4 29.5 0.1 40.8z" fill="#1296db" p-id="2782"></path></svg>